solid OpenSCAD_Model
  facet normal -1 0 0
    outer loop
      vertex 0 0 0
      vertex 0 195 32
      vertex 0 195 0
    endloop
  endfacet
  facet normal -1 -0 0
    outer loop
      vertex 0 195 32
      vertex 0 0 0
      vertex 0 0 32
    endloop
  endfacet
  facet normal -0 0 1
    outer loop
      vertex 61.5788 23 32
      vertex 65.0429 6.5 32
      vertex 65.0429 23 32
    endloop
  endfacet
  facet normal 0 0 1
    outer loop
      vertex 65.0429 6.5 32
      vertex 61.5788 23 32
      vertex 61.5788 6.5 32
    endloop
  endfacet
  facet normal -0 0 1
    outer loop
      vertex 61.5788 50.5 32
      vertex 65.0429 34 32
      vertex 65.0429 50.5 32
    endloop
  endfacet
  facet normal 0 0 1
    outer loop
      vertex 65.0429 34 32
      vertex 61.5788 50.5 32
      vertex 61.5788 34 32
    endloop
  endfacet
  facet normal -0 0 1
    outer loop
      vertex 61.5788 78 32
      vertex 65.0429 61.5 32
      vertex 65.0429 78 32
    endloop
  endfacet
  facet normal 0 0 1
    outer loop
      vertex 65.0429 61.5 32
      vertex 61.5788 78 32
      vertex 61.5788 61.5 32
    endloop
  endfacet
  facet normal -0 0 1
    outer loop
      vertex 61.5788 105.5 32
      vertex 65.0429 89 32
      vertex 65.0429 105.5 32
    endloop
  endfacet
  facet normal 0 0 1
    outer loop
      vertex 65.0429 89 32
      vertex 61.5788 105.5 32
      vertex 61.5788 89 32
    endloop
  endfacet
  facet normal -0 0 1
    outer loop
      vertex 61.5788 133 32
      vertex 65.0429 116.5 32
      vertex 65.0429 133 32
    endloop
  endfacet
  facet normal 0 0 1
    outer loop
      vertex 65.0429 116.5 32
      vertex 61.5788 133 32
      vertex 61.5788 116.5 32
    endloop
  endfacet
  facet normal -0 0 1
    outer loop
      vertex 61.5788 160.5 32
      vertex 65.0429 144 32
      vertex 65.0429 160.5 32
    endloop
  endfacet
  facet normal 0 0 1
    outer loop
      vertex 65.0429 144 32
      vertex 61.5788 160.5 32
      vertex 61.5788 144 32
    endloop
  endfacet
  facet normal -0 0 1
    outer loop
      vertex 61.5788 188 32
      vertex 65.0429 171.5 32
      vertex 65.0429 188 32
    endloop
  endfacet
  facet normal 0 0 1
    outer loop
      vertex 65.0429 171.5 32
      vertex 61.5788 188 32
      vertex 61.5788 171.5 32
    endloop
  endfacet
  facet normal 0 0 1
    outer loop
      vertex 65.0429 188 32
      vertex 66 195 32
      vertex 65.0429 193.5 32
    endloop
  endfacet
  facet normal -0 0 1
    outer loop
      vertex 61.5788 195 32
      vertex 65.0429 193.5 32
      vertex 66 195 32
    endloop
  endfacet
  facet normal 0 0 1
    outer loop
      vertex 65.0429 193.5 32
      vertex 61.5788 195 32
      vertex 61.5788 193.5 32
    endloop
  endfacet
  facet normal 0 0 1
    outer loop
      vertex 65.0429 171.5 32
      vertex 66 195 32
      vertex 65.0429 188 32
    endloop
  endfacet
  facet normal 0 0 1
    outer loop
      vertex 65.0429 160.5 32
      vertex 66 195 32
      vertex 65.0429 171.5 32
    endloop
  endfacet
  facet normal 0 0 1
    outer loop
      vertex 65.0429 144 32
      vertex 66 195 32
      vertex 65.0429 160.5 32
    endloop
  endfacet
  facet normal 0 0 1
    outer loop
      vertex 65.0429 133 32
      vertex 66 195 32
      vertex 65.0429 144 32
    endloop
  endfacet
  facet normal 0 0 1
    outer loop
      vertex 66 195 32
      vertex 65.0429 133 32
      vertex 66 0 32
    endloop
  endfacet
  facet normal -0 0 1
    outer loop
      vertex 65.0429 116.5 32
      vertex 66 0 32
      vertex 65.0429 133 32
    endloop
  endfacet
  facet normal -0 0 1
    outer loop
      vertex 65.0429 105.5 32
      vertex 66 0 32
      vertex 65.0429 116.5 32
    endloop
  endfacet
  facet normal -0 0 1
    outer loop
      vertex 65.0429 89 32
      vertex 66 0 32
      vertex 65.0429 105.5 32
    endloop
  endfacet
  facet normal -0 0 1
    outer loop
      vertex 65.0429 78 32
      vertex 66 0 32
      vertex 65.0429 89 32
    endloop
  endfacet
  facet normal -0 0 1
    outer loop
      vertex 65.0429 61.5 32
      vertex 66 0 32
      vertex 65.0429 78 32
    endloop
  endfacet
  facet normal -0 0 1
    outer loop
      vertex 65.0429 50.5 32
      vertex 66 0 32
      vertex 65.0429 61.5 32
    endloop
  endfacet
  facet normal -0 0 1
    outer loop
      vertex 65.0429 34 32
      vertex 66 0 32
      vertex 65.0429 50.5 32
    endloop
  endfacet
  facet normal -0 0 1
    outer loop
      vertex 65.0429 23 32
      vertex 66 0 32
      vertex 65.0429 34 32
    endloop
  endfacet
  facet normal -0 0 1
    outer loop
      vertex 65.0429 6.5 32
      vertex 66 0 32
      vertex 65.0429 23 32
    endloop
  endfacet
  facet normal -0 0 1
    outer loop
      vertex 65.0429 1 32
      vertex 66 0 32
      vertex 65.0429 6.5 32
    endloop
  endfacet
  facet normal 0 0 1
    outer loop
      vertex 61.5788 0 32
      vertex 65.0429 1 32
      vertex 61.5788 1 32
    endloop
  endfacet
  facet normal 0 0 1
    outer loop
      vertex 65.0429 1 32
      vertex 61.5788 0 32
      vertex 66 0 32
    endloop
  endfacet
  facet normal 0 0 1
    outer loop
      vertex 4.42116 195 32
      vertex 0.95706 193.5 32
      vertex 4.42116 193.5 32
    endloop
  endfacet
  facet normal 0 0 1
    outer loop
      vertex 0 195 32
      vertex 0.95706 188 32
      vertex 0.95706 193.5 32
    endloop
  endfacet
  facet normal 0 0 1
    outer loop
      vertex 0.95706 188 32
      vertex 0 195 32
      vertex 0.95706 171.5 32
    endloop
  endfacet
  facet normal 0 0 1
    outer loop
      vertex 0.95706 171.5 32
      vertex 0 195 32
      vertex 0.95706 160.5 32
    endloop
  endfacet
  facet normal 0 0 1
    outer loop
      vertex 0.95706 160.5 32
      vertex 0 195 32
      vertex 0.95706 144 32
    endloop
  endfacet
  facet normal 0 0 1
    outer loop
      vertex 0.95706 144 32
      vertex 0 195 32
      vertex 0.95706 133 32
    endloop
  endfacet
  facet normal 0 0 1
    outer loop
      vertex 0.95706 133 32
      vertex 0 195 32
      vertex 0.95706 116.5 32
    endloop
  endfacet
  facet normal 0 0 1
    outer loop
      vertex 0.95706 116.5 32
      vertex 0 195 32
      vertex 0.95706 105.5 32
    endloop
  endfacet
  facet normal 0 0 1
    outer loop
      vertex 0.95706 105.5 32
      vertex 0 195 32
      vertex 0.95706 89 32
    endloop
  endfacet
  facet normal 0 0 1
    outer loop
      vertex 0.95706 89 32
      vertex 0 195 32
      vertex 0.95706 78 32
    endloop
  endfacet
  facet normal 0 0 1
    outer loop
      vertex 0.95706 78 32
      vertex 0 195 32
      vertex 0.95706 61.5 32
    endloop
  endfacet
  facet normal 0 0 1
    outer loop
      vertex 0 0 32
      vertex 0.95706 61.5 32
      vertex 0 195 32
    endloop
  endfacet
  facet normal 0 0 1
    outer loop
      vertex 0.95706 61.5 32
      vertex 0 0 32
      vertex 0.95706 50.5 32
    endloop
  endfacet
  facet normal 0 0 1
    outer loop
      vertex 0.95706 50.5 32
      vertex 0 0 32
      vertex 0.95706 34 32
    endloop
  endfacet
  facet normal 0 0 1
    outer loop
      vertex 0.95706 34 32
      vertex 0 0 32
      vertex 0.95706 23 32
    endloop
  endfacet
  facet normal 0 0 1
    outer loop
      vertex 0.95706 23 32
      vertex 0 0 32
      vertex 0.95706 6.5 32
    endloop
  endfacet
  facet normal -0 0 1
    outer loop
      vertex 0 195 32
      vertex 0.95706 193.5 32
      vertex 4.42116 195 32
    endloop
  endfacet
  facet normal -0 0 1
    outer loop
      vertex 0.95706 188 32
      vertex 4.42116 171.5 32
      vertex 4.42116 188 32
    endloop
  endfacet
  facet normal 0 0 1
    outer loop
      vertex 4.42116 171.5 32
      vertex 0.95706 188 32
      vertex 0.95706 171.5 32
    endloop
  endfacet
  facet normal -0 0 1
    outer loop
      vertex 0.95706 160.5 32
      vertex 4.42116 144 32
      vertex 4.42116 160.5 32
    endloop
  endfacet
  facet normal 0 0 1
    outer loop
      vertex 4.42116 144 32
      vertex 0.95706 160.5 32
      vertex 0.95706 144 32
    endloop
  endfacet
  facet normal -0 0 1
    outer loop
      vertex 0.95706 133 32
      vertex 4.42116 116.5 32
      vertex 4.42116 133 32
    endloop
  endfacet
  facet normal 0 0 1
    outer loop
      vertex 4.42116 116.5 32
      vertex 0.95706 133 32
      vertex 0.95706 116.5 32
    endloop
  endfacet
  facet normal -0 0 1
    outer loop
      vertex 0.95706 105.5 32
      vertex 4.42116 89 32
      vertex 4.42116 105.5 32
    endloop
  endfacet
  facet normal 0 0 1
    outer loop
      vertex 4.42116 89 32
      vertex 0.95706 105.5 32
      vertex 0.95706 89 32
    endloop
  endfacet
  facet normal -0 0 1
    outer loop
      vertex 0.95706 78 32
      vertex 4.42116 61.5 32
      vertex 4.42116 78 32
    endloop
  endfacet
  facet normal 0 0 1
    outer loop
      vertex 4.42116 61.5 32
      vertex 0.95706 78 32
      vertex 0.95706 61.5 32
    endloop
  endfacet
  facet normal -0 0 1
    outer loop
      vertex 0.95706 50.5 32
      vertex 4.42116 34 32
      vertex 4.42116 50.5 32
    endloop
  endfacet
  facet normal 0 0 1
    outer loop
      vertex 4.42116 34 32
      vertex 0.95706 50.5 32
      vertex 0.95706 34 32
    endloop
  endfacet
  facet normal -0 0 1
    outer loop
      vertex 0.95706 23 32
      vertex 4.42116 6.5 32
      vertex 4.42116 23 32
    endloop
  endfacet
  facet normal 0 0 1
    outer loop
      vertex 4.42116 6.5 32
      vertex 0.95706 23 32
      vertex 0.95706 6.5 32
    endloop
  endfacet
  facet normal -0 0 1
    outer loop
      vertex 0.95706 1 32
      vertex 4.42116 0 32
      vertex 4.42116 1 32
    endloop
  endfacet
  facet normal 0 0 1
    outer loop
      vertex 0.95706 1 32
      vertex 0 0 32
      vertex 4.42116 0 32
    endloop
  endfacet
  facet normal 0 0 1
    outer loop
      vertex 0.95706 6.5 32
      vertex 0 0 32
      vertex 0.95706 1 32
    endloop
  endfacet
  facet normal 1 -0 0
    outer loop
      vertex 66 0 32
      vertex 66 195 0
      vertex 66 195 32
    endloop
  endfacet
  facet normal 1 0 0
    outer loop
      vertex 66 195 0
      vertex 66 0 32
      vertex 66 0 0
    endloop
  endfacet
  facet normal 0 1 0
    outer loop
      vertex 66 195 32
      vertex 61.5788 195 21.5
      vertex 61.5788 195 32
    endloop
  endfacet
  facet normal 0 1 0
    outer loop
      vertex 61.5788 195 21.5
      vertex 66 195 0
      vertex 33 195 5
    endloop
  endfacet
  facet normal 0 1 -0
    outer loop
      vertex 66 195 0
      vertex 61.5788 195 21.5
      vertex 66 195 32
    endloop
  endfacet
  facet normal 0 1 -0
    outer loop
      vertex 4.42116 195 21.5
      vertex 0 195 32
      vertex 4.42116 195 32
    endloop
  endfacet
  facet normal 0 1 0
    outer loop
      vertex 4.42116 195 21.5
      vertex 0 195 0
      vertex 0 195 32
    endloop
  endfacet
  facet normal 0 1 0
    outer loop
      vertex 33 195 5
      vertex 0 195 0
      vertex 4.42116 195 21.5
    endloop
  endfacet
  facet normal 0 1 0
    outer loop
      vertex 0 195 0
      vertex 33 195 5
      vertex 66 195 0
    endloop
  endfacet
  facet normal 0 0 -1
    outer loop
      vertex 0 0 0
      vertex 66 195 0
      vertex 66 0 0
    endloop
  endfacet
  facet normal -0 0 -1
    outer loop
      vertex 66 195 0
      vertex 0 0 0
      vertex 0 195 0
    endloop
  endfacet
  facet normal 0 -1 0
    outer loop
      vertex 0 0 32
      vertex 4.42116 0 21.5
      vertex 4.42116 0 32
    endloop
  endfacet
  facet normal 0 -1 -0
    outer loop
      vertex 4.42116 0 21.5
      vertex 0 0 0
      vertex 33 0 5
    endloop
  endfacet
  facet normal 0 -1 0
    outer loop
      vertex 0 0 0
      vertex 4.42116 0 21.5
      vertex 0 0 32
    endloop
  endfacet
  facet normal 0 -1 0
    outer loop
      vertex 61.5788 0 21.5
      vertex 66 0 32
      vertex 61.5788 0 32
    endloop
  endfacet
  facet normal 0 -1 0
    outer loop
      vertex 61.5788 0 21.5
      vertex 66 0 0
      vertex 66 0 32
    endloop
  endfacet
  facet normal 0 -1 0
    outer loop
      vertex 33 0 5
      vertex 66 0 0
      vertex 61.5788 0 21.5
    endloop
  endfacet
  facet normal 0 -1 0
    outer loop
      vertex 66 0 0
      vertex 33 0 5
      vertex 0 0 0
    endloop
  endfacet
  facet normal 0.5 0 0.866025
    outer loop
      vertex 4.42116 1 21.5
      vertex 33 0 5
      vertex 33 1 5
    endloop
  endfacet
  facet normal 0.5 0 0.866025
    outer loop
      vertex 33 0 5
      vertex 4.42116 1 21.5
      vertex 4.42116 0 21.5
    endloop
  endfacet
  facet normal 0.5 0 0.866025
    outer loop
      vertex 4.42116 195 21.5
      vertex 33 193.5 5
      vertex 33 195 5
    endloop
  endfacet
  facet normal 0.5 0 0.866025
    outer loop
      vertex 33 193.5 5
      vertex 4.42116 195 21.5
      vertex 4.42116 193.5 21.5
    endloop
  endfacet
  facet normal 0.5 0 0.866025
    outer loop
      vertex 4.42116 23 21.5
      vertex 33 6.5 5
      vertex 33 23 5
    endloop
  endfacet
  facet normal 0.5 0 0.866025
    outer loop
      vertex 33 6.5 5
      vertex 4.42116 23 21.5
      vertex 4.42116 6.5 21.5
    endloop
  endfacet
  facet normal 0.5 0 0.866025
    outer loop
      vertex 4.42116 50.5 21.5
      vertex 33 34 5
      vertex 33 50.5 5
    endloop
  endfacet
  facet normal 0.5 0 0.866025
    outer loop
      vertex 33 34 5
      vertex 4.42116 50.5 21.5
      vertex 4.42116 34 21.5
    endloop
  endfacet
  facet normal 0.5 0 0.866025
    outer loop
      vertex 4.42116 78 21.5
      vertex 33 61.5 5
      vertex 33 78 5
    endloop
  endfacet
  facet normal 0.5 0 0.866025
    outer loop
      vertex 33 61.5 5
      vertex 4.42116 78 21.5
      vertex 4.42116 61.5 21.5
    endloop
  endfacet
  facet normal 0.5 0 0.866025
    outer loop
      vertex 4.42116 105.5 21.5
      vertex 33 89 5
      vertex 33 105.5 5
    endloop
  endfacet
  facet normal 0.5 0 0.866025
    outer loop
      vertex 33 89 5
      vertex 4.42116 105.5 21.5
      vertex 4.42116 89 21.5
    endloop
  endfacet
  facet normal 0.5 0 0.866025
    outer loop
      vertex 4.42116 133 21.5
      vertex 33 116.5 5
      vertex 33 133 5
    endloop
  endfacet
  facet normal 0.5 0 0.866025
    outer loop
      vertex 33 116.5 5
      vertex 4.42116 133 21.5
      vertex 4.42116 116.5 21.5
    endloop
  endfacet
  facet normal 0.5 0 0.866025
    outer loop
      vertex 4.42116 160.5 21.5
      vertex 33 144 5
      vertex 33 160.5 5
    endloop
  endfacet
  facet normal 0.5 0 0.866025
    outer loop
      vertex 33 144 5
      vertex 4.42116 160.5 21.5
      vertex 4.42116 144 21.5
    endloop
  endfacet
  facet normal 0.5 0 0.866025
    outer loop
      vertex 4.42116 188 21.5
      vertex 33 171.5 5
      vertex 33 188 5
    endloop
  endfacet
  facet normal 0.5 0 0.866025
    outer loop
      vertex 33 171.5 5
      vertex 4.42116 188 21.5
      vertex 4.42116 171.5 21.5
    endloop
  endfacet
  facet normal 1 -0 0
    outer loop
      vertex 4.42116 0 32
      vertex 4.42116 1 21.5
      vertex 4.42116 1 32
    endloop
  endfacet
  facet normal 1 0 0
    outer loop
      vertex 4.42116 1 21.5
      vertex 4.42116 0 32
      vertex 4.42116 0 21.5
    endloop
  endfacet
  facet normal 1 -0 0
    outer loop
      vertex 4.42116 193.5 32
      vertex 4.42116 195 21.5
      vertex 4.42116 195 32
    endloop
  endfacet
  facet normal 1 0 0
    outer loop
      vertex 4.42116 195 21.5
      vertex 4.42116 193.5 32
      vertex 4.42116 193.5 21.5
    endloop
  endfacet
  facet normal 1 -0 0
    outer loop
      vertex 4.42116 6.5 32
      vertex 4.42116 23 21.5
      vertex 4.42116 23 32
    endloop
  endfacet
  facet normal 1 0 0
    outer loop
      vertex 4.42116 23 21.5
      vertex 4.42116 6.5 32
      vertex 4.42116 6.5 21.5
    endloop
  endfacet
  facet normal 1 -0 0
    outer loop
      vertex 4.42116 34 32
      vertex 4.42116 50.5 21.5
      vertex 4.42116 50.5 32
    endloop
  endfacet
  facet normal 1 0 0
    outer loop
      vertex 4.42116 50.5 21.5
      vertex 4.42116 34 32
      vertex 4.42116 34 21.5
    endloop
  endfacet
  facet normal 1 -0 0
    outer loop
      vertex 4.42116 61.5 32
      vertex 4.42116 78 21.5
      vertex 4.42116 78 32
    endloop
  endfacet
  facet normal 1 0 0
    outer loop
      vertex 4.42116 78 21.5
      vertex 4.42116 61.5 32
      vertex 4.42116 61.5 21.5
    endloop
  endfacet
  facet normal 1 -0 0
    outer loop
      vertex 4.42116 89 32
      vertex 4.42116 105.5 21.5
      vertex 4.42116 105.5 32
    endloop
  endfacet
  facet normal 1 0 0
    outer loop
      vertex 4.42116 105.5 21.5
      vertex 4.42116 89 32
      vertex 4.42116 89 21.5
    endloop
  endfacet
  facet normal 1 -0 0
    outer loop
      vertex 4.42116 116.5 32
      vertex 4.42116 133 21.5
      vertex 4.42116 133 32
    endloop
  endfacet
  facet normal 1 0 0
    outer loop
      vertex 4.42116 133 21.5
      vertex 4.42116 116.5 32
      vertex 4.42116 116.5 21.5
    endloop
  endfacet
  facet normal 1 -0 0
    outer loop
      vertex 4.42116 144 32
      vertex 4.42116 160.5 21.5
      vertex 4.42116 160.5 32
    endloop
  endfacet
  facet normal 1 0 0
    outer loop
      vertex 4.42116 160.5 21.5
      vertex 4.42116 144 32
      vertex 4.42116 144 21.5
    endloop
  endfacet
  facet normal 1 -0 0
    outer loop
      vertex 4.42116 171.5 32
      vertex 4.42116 188 21.5
      vertex 4.42116 188 32
    endloop
  endfacet
  facet normal 1 0 0
    outer loop
      vertex 4.42116 188 21.5
      vertex 4.42116 171.5 32
      vertex 4.42116 171.5 21.5
    endloop
  endfacet
  facet normal -0.500001 0 0.866025
    outer loop
      vertex 33 1 5
      vertex 61.5788 0 21.5
      vertex 61.5788 1 21.5
    endloop
  endfacet
  facet normal -0.500001 0 0.866025
    outer loop
      vertex 61.5788 0 21.5
      vertex 33 1 5
      vertex 33 0 5
    endloop
  endfacet
  facet normal -0.500001 0 0.866025
    outer loop
      vertex 33 195 5
      vertex 61.5788 193.5 21.5
      vertex 61.5788 195 21.5
    endloop
  endfacet
  facet normal -0.500001 0 0.866025
    outer loop
      vertex 61.5788 193.5 21.5
      vertex 33 195 5
      vertex 33 193.5 5
    endloop
  endfacet
  facet normal -0.500001 0 0.866025
    outer loop
      vertex 33 23 5
      vertex 61.5788 6.5 21.5
      vertex 61.5788 23 21.5
    endloop
  endfacet
  facet normal -0.500001 0 0.866025
    outer loop
      vertex 61.5788 6.5 21.5
      vertex 33 23 5
      vertex 33 6.5 5
    endloop
  endfacet
  facet normal -0.500001 0 0.866025
    outer loop
      vertex 33 50.5 5
      vertex 61.5788 34 21.5
      vertex 61.5788 50.5 21.5
    endloop
  endfacet
  facet normal -0.500001 0 0.866025
    outer loop
      vertex 61.5788 34 21.5
      vertex 33 50.5 5
      vertex 33 34 5
    endloop
  endfacet
  facet normal -0.500001 0 0.866025
    outer loop
      vertex 33 78 5
      vertex 61.5788 61.5 21.5
      vertex 61.5788 78 21.5
    endloop
  endfacet
  facet normal -0.500001 0 0.866025
    outer loop
      vertex 61.5788 61.5 21.5
      vertex 33 78 5
      vertex 33 61.5 5
    endloop
  endfacet
  facet normal -0.500001 0 0.866025
    outer loop
      vertex 33 105.5 5
      vertex 61.5788 89 21.5
      vertex 61.5788 105.5 21.5
    endloop
  endfacet
  facet normal -0.500001 0 0.866025
    outer loop
      vertex 61.5788 89 21.5
      vertex 33 105.5 5
      vertex 33 89 5
    endloop
  endfacet
  facet normal -0.500001 0 0.866025
    outer loop
      vertex 33 133 5
      vertex 61.5788 116.5 21.5
      vertex 61.5788 133 21.5
    endloop
  endfacet
  facet normal -0.500001 0 0.866025
    outer loop
      vertex 61.5788 116.5 21.5
      vertex 33 133 5
      vertex 33 116.5 5
    endloop
  endfacet
  facet normal -0.500001 0 0.866025
    outer loop
      vertex 33 160.5 5
      vertex 61.5788 144 21.5
      vertex 61.5788 160.5 21.5
    endloop
  endfacet
  facet normal -0.500001 0 0.866025
    outer loop
      vertex 61.5788 144 21.5
      vertex 33 160.5 5
      vertex 33 144 5
    endloop
  endfacet
  facet normal -0.500001 0 0.866025
    outer loop
      vertex 33 188 5
      vertex 61.5788 171.5 21.5
      vertex 61.5788 188 21.5
    endloop
  endfacet
  facet normal -0.500001 0 0.866025
    outer loop
      vertex 61.5788 171.5 21.5
      vertex 33 188 5
      vertex 33 171.5 5
    endloop
  endfacet
  facet normal -1 0 0
    outer loop
      vertex 61.5788 0 21.5
      vertex 61.5788 1 32
      vertex 61.5788 1 21.5
    endloop
  endfacet
  facet normal -1 -0 0
    outer loop
      vertex 61.5788 1 32
      vertex 61.5788 0 21.5
      vertex 61.5788 0 32
    endloop
  endfacet
  facet normal -1 0 0
    outer loop
      vertex 61.5788 193.5 21.5
      vertex 61.5788 195 32
      vertex 61.5788 195 21.5
    endloop
  endfacet
  facet normal -1 -0 0
    outer loop
      vertex 61.5788 195 32
      vertex 61.5788 193.5 21.5
      vertex 61.5788 193.5 32
    endloop
  endfacet
  facet normal -1 0 0
    outer loop
      vertex 61.5788 6.5 21.5
      vertex 61.5788 23 32
      vertex 61.5788 23 21.5
    endloop
  endfacet
  facet normal -1 -0 0
    outer loop
      vertex 61.5788 23 32
      vertex 61.5788 6.5 21.5
      vertex 61.5788 6.5 32
    endloop
  endfacet
  facet normal -1 0 0
    outer loop
      vertex 61.5788 34 21.5
      vertex 61.5788 50.5 32
      vertex 61.5788 50.5 21.5
    endloop
  endfacet
  facet normal -1 -0 0
    outer loop
      vertex 61.5788 50.5 32
      vertex 61.5788 34 21.5
      vertex 61.5788 34 32
    endloop
  endfacet
  facet normal -1 0 0
    outer loop
      vertex 61.5788 61.5 21.5
      vertex 61.5788 78 32
      vertex 61.5788 78 21.5
    endloop
  endfacet
  facet normal -1 -0 0
    outer loop
      vertex 61.5788 78 32
      vertex 61.5788 61.5 21.5
      vertex 61.5788 61.5 32
    endloop
  endfacet
  facet normal -1 0 0
    outer loop
      vertex 61.5788 89 21.5
      vertex 61.5788 105.5 32
      vertex 61.5788 105.5 21.5
    endloop
  endfacet
  facet normal -1 -0 0
    outer loop
      vertex 61.5788 105.5 32
      vertex 61.5788 89 21.5
      vertex 61.5788 89 32
    endloop
  endfacet
  facet normal -1 0 0
    outer loop
      vertex 61.5788 116.5 21.5
      vertex 61.5788 133 32
      vertex 61.5788 133 21.5
    endloop
  endfacet
  facet normal -1 -0 0
    outer loop
      vertex 61.5788 133 32
      vertex 61.5788 116.5 21.5
      vertex 61.5788 116.5 32
    endloop
  endfacet
  facet normal -1 0 0
    outer loop
      vertex 61.5788 144 21.5
      vertex 61.5788 160.5 32
      vertex 61.5788 160.5 21.5
    endloop
  endfacet
  facet normal -1 -0 0
    outer loop
      vertex 61.5788 160.5 32
      vertex 61.5788 144 21.5
      vertex 61.5788 144 32
    endloop
  endfacet
  facet normal -1 0 0
    outer loop
      vertex 61.5788 171.5 21.5
      vertex 61.5788 188 32
      vertex 61.5788 188 21.5
    endloop
  endfacet
  facet normal -1 -0 0
    outer loop
      vertex 61.5788 188 32
      vertex 61.5788 171.5 21.5
      vertex 61.5788 171.5 32
    endloop
  endfacet
  facet normal 0 1 0
    outer loop
      vertex 65.0429 1 32
      vertex 61.5788 1 21.5
      vertex 61.5788 1 32
    endloop
  endfacet
  facet normal 0 1 -0
    outer loop
      vertex 65.0429 1 19.5
      vertex 61.5788 1 21.5
      vertex 65.0429 1 32
    endloop
  endfacet
  facet normal 0 1 0
    outer loop
      vertex 65.0429 1 19.5
      vertex 33 1 5
      vertex 61.5788 1 21.5
    endloop
  endfacet
  facet normal -0 1 0
    outer loop
      vertex 33 1 5
      vertex 65.0429 1 19.5
      vertex 33 1 1
    endloop
  endfacet
  facet normal 0 1 -0
    outer loop
      vertex 4.42116 1 21.5
      vertex 0.95706 1 32
      vertex 4.42116 1 32
    endloop
  endfacet
  facet normal 0 1 0
    outer loop
      vertex 4.42116 1 21.5
      vertex 0.95706 1 19.5
      vertex 0.95706 1 32
    endloop
  endfacet
  facet normal 0 1 0
    outer loop
      vertex 33 1 5
      vertex 0.95706 1 19.5
      vertex 4.42116 1 21.5
    endloop
  endfacet
  facet normal 0 1 0
    outer loop
      vertex 0.95706 1 19.5
      vertex 33 1 5
      vertex 33 1 1
    endloop
  endfacet
  facet normal 0.5 0 0.866025
    outer loop
      vertex 0.95706 6.5 19.5
      vertex 33 1 1
      vertex 33 6.5 1
    endloop
  endfacet
  facet normal 0.5 0 0.866025
    outer loop
      vertex 33 1 1
      vertex 0.95706 6.5 19.5
      vertex 0.95706 1 19.5
    endloop
  endfacet
  facet normal 1 -0 0
    outer loop
      vertex 0.95706 1 32
      vertex 0.95706 6.5 19.5
      vertex 0.95706 6.5 32
    endloop
  endfacet
  facet normal 1 0 0
    outer loop
      vertex 0.95706 6.5 19.5
      vertex 0.95706 1 32
      vertex 0.95706 1 19.5
    endloop
  endfacet
  facet normal 0 -1 0
    outer loop
      vertex 0.95706 6.5 32
      vertex 4.42116 6.5 21.5
      vertex 4.42116 6.5 32
    endloop
  endfacet
  facet normal 0 -1 0
    outer loop
      vertex 0.95706 6.5 19.5
      vertex 4.42116 6.5 21.5
      vertex 0.95706 6.5 32
    endloop
  endfacet
  facet normal 0 -1 0
    outer loop
      vertex 0.95706 6.5 19.5
      vertex 33 6.5 5
      vertex 4.42116 6.5 21.5
    endloop
  endfacet
  facet normal -0 -1 -0
    outer loop
      vertex 33 6.5 5
      vertex 0.95706 6.5 19.5
      vertex 33 6.5 1
    endloop
  endfacet
  facet normal 0 -1 0
    outer loop
      vertex 61.5788 6.5 21.5
      vertex 65.0429 6.5 32
      vertex 61.5788 6.5 32
    endloop
  endfacet
  facet normal 0 -1 0
    outer loop
      vertex 61.5788 6.5 21.5
      vertex 65.0429 6.5 19.5
      vertex 65.0429 6.5 32
    endloop
  endfacet
  facet normal 0 -1 0
    outer loop
      vertex 33 6.5 5
      vertex 65.0429 6.5 19.5
      vertex 61.5788 6.5 21.5
    endloop
  endfacet
  facet normal 0 -1 0
    outer loop
      vertex 65.0429 6.5 19.5
      vertex 33 6.5 5
      vertex 33 6.5 1
    endloop
  endfacet
  facet normal -0.5 0 0.866025
    outer loop
      vertex 33 6.5 1
      vertex 65.0429 1 19.5
      vertex 65.0429 6.5 19.5
    endloop
  endfacet
  facet normal -0.5 0 0.866025
    outer loop
      vertex 65.0429 1 19.5
      vertex 33 6.5 1
      vertex 33 1 1
    endloop
  endfacet
  facet normal -1 0 0
    outer loop
      vertex 65.0429 1 19.5
      vertex 65.0429 6.5 32
      vertex 65.0429 6.5 19.5
    endloop
  endfacet
  facet normal -1 -0 0
    outer loop
      vertex 65.0429 6.5 32
      vertex 65.0429 1 19.5
      vertex 65.0429 1 32
    endloop
  endfacet
  facet normal 0 1 0
    outer loop
      vertex 65.0429 23 32
      vertex 61.5788 23 21.5
      vertex 61.5788 23 32
    endloop
  endfacet
  facet normal 0 1 -0
    outer loop
      vertex 65.0429 23 19.5
      vertex 61.5788 23 21.5
      vertex 65.0429 23 32
    endloop
  endfacet
  facet normal 0 1 0
    outer loop
      vertex 65.0429 23 19.5
      vertex 33 23 5
      vertex 61.5788 23 21.5
    endloop
  endfacet
  facet normal -0 1 0
    outer loop
      vertex 33 23 5
      vertex 65.0429 23 19.5
      vertex 33 23 1
    endloop
  endfacet
  facet normal 0 1 -0
    outer loop
      vertex 4.42116 23 21.5
      vertex 0.95706 23 32
      vertex 4.42116 23 32
    endloop
  endfacet
  facet normal 0 1 0
    outer loop
      vertex 4.42116 23 21.5
      vertex 0.95706 23 19.5
      vertex 0.95706 23 32
    endloop
  endfacet
  facet normal 0 1 0
    outer loop
      vertex 33 23 5
      vertex 0.95706 23 19.5
      vertex 4.42116 23 21.5
    endloop
  endfacet
  facet normal 0 1 0
    outer loop
      vertex 0.95706 23 19.5
      vertex 33 23 5
      vertex 33 23 1
    endloop
  endfacet
  facet normal 0.5 0 0.866025
    outer loop
      vertex 0.95706 34 19.5
      vertex 33 23 1
      vertex 33 34 1
    endloop
  endfacet
  facet normal 0.5 0 0.866025
    outer loop
      vertex 33 23 1
      vertex 0.95706 34 19.5
      vertex 0.95706 23 19.5
    endloop
  endfacet
  facet normal 1 -0 0
    outer loop
      vertex 0.95706 23 32
      vertex 0.95706 34 19.5
      vertex 0.95706 34 32
    endloop
  endfacet
  facet normal 1 0 0
    outer loop
      vertex 0.95706 34 19.5
      vertex 0.95706 23 32
      vertex 0.95706 23 19.5
    endloop
  endfacet
  facet normal -0.5 0 0.866025
    outer loop
      vertex 33 34 1
      vertex 65.0429 23 19.5
      vertex 65.0429 34 19.5
    endloop
  endfacet
  facet normal -0.5 0 0.866025
    outer loop
      vertex 65.0429 23 19.5
      vertex 33 34 1
      vertex 33 23 1
    endloop
  endfacet
  facet normal -1 0 0
    outer loop
      vertex 65.0429 23 19.5
      vertex 65.0429 34 32
      vertex 65.0429 34 19.5
    endloop
  endfacet
  facet normal -1 -0 0
    outer loop
      vertex 65.0429 34 32
      vertex 65.0429 23 19.5
      vertex 65.0429 23 32
    endloop
  endfacet
  facet normal 0 -1 0
    outer loop
      vertex 0.95706 34 32
      vertex 4.42116 34 21.5
      vertex 4.42116 34 32
    endloop
  endfacet
  facet normal 0 -1 0
    outer loop
      vertex 0.95706 34 19.5
      vertex 4.42116 34 21.5
      vertex 0.95706 34 32
    endloop
  endfacet
  facet normal 0 -1 0
    outer loop
      vertex 0.95706 34 19.5
      vertex 33 34 5
      vertex 4.42116 34 21.5
    endloop
  endfacet
  facet normal -0 -1 -0
    outer loop
      vertex 33 34 5
      vertex 0.95706 34 19.5
      vertex 33 34 1
    endloop
  endfacet
  facet normal 0 -1 0
    outer loop
      vertex 61.5788 34 21.5
      vertex 65.0429 34 32
      vertex 61.5788 34 32
    endloop
  endfacet
  facet normal 0 -1 0
    outer loop
      vertex 61.5788 34 21.5
      vertex 65.0429 34 19.5
      vertex 65.0429 34 32
    endloop
  endfacet
  facet normal 0 -1 0
    outer loop
      vertex 33 34 5
      vertex 65.0429 34 19.5
      vertex 61.5788 34 21.5
    endloop
  endfacet
  facet normal 0 -1 0
    outer loop
      vertex 65.0429 34 19.5
      vertex 33 34 5
      vertex 33 34 1
    endloop
  endfacet
  facet normal 0 1 0
    outer loop
      vertex 65.0429 50.5 32
      vertex 61.5788 50.5 21.5
      vertex 61.5788 50.5 32
    endloop
  endfacet
  facet normal 0 1 -0
    outer loop
      vertex 65.0429 50.5 19.5
      vertex 61.5788 50.5 21.5
      vertex 65.0429 50.5 32
    endloop
  endfacet
  facet normal 0 1 0
    outer loop
      vertex 65.0429 50.5 19.5
      vertex 33 50.5 5
      vertex 61.5788 50.5 21.5
    endloop
  endfacet
  facet normal -0 1 0
    outer loop
      vertex 33 50.5 5
      vertex 65.0429 50.5 19.5
      vertex 33 50.5 1
    endloop
  endfacet
  facet normal 0 1 -0
    outer loop
      vertex 4.42116 50.5 21.5
      vertex 0.95706 50.5 32
      vertex 4.42116 50.5 32
    endloop
  endfacet
  facet normal 0 1 0
    outer loop
      vertex 4.42116 50.5 21.5
      vertex 0.95706 50.5 19.5
      vertex 0.95706 50.5 32
    endloop
  endfacet
  facet normal 0 1 0
    outer loop
      vertex 33 50.5 5
      vertex 0.95706 50.5 19.5
      vertex 4.42116 50.5 21.5
    endloop
  endfacet
  facet normal 0 1 0
    outer loop
      vertex 0.95706 50.5 19.5
      vertex 33 50.5 5
      vertex 33 50.5 1
    endloop
  endfacet
  facet normal 0.5 0 0.866025
    outer loop
      vertex 0.95706 61.5 19.5
      vertex 33 50.5 1
      vertex 33 61.5 1
    endloop
  endfacet
  facet normal 0.5 0 0.866025
    outer loop
      vertex 33 50.5 1
      vertex 0.95706 61.5 19.5
      vertex 0.95706 50.5 19.5
    endloop
  endfacet
  facet normal 1 -0 0
    outer loop
      vertex 0.95706 50.5 32
      vertex 0.95706 61.5 19.5
      vertex 0.95706 61.5 32
    endloop
  endfacet
  facet normal 1 0 0
    outer loop
      vertex 0.95706 61.5 19.5
      vertex 0.95706 50.5 32
      vertex 0.95706 50.5 19.5
    endloop
  endfacet
  facet normal -0.5 0 0.866025
    outer loop
      vertex 33 61.5 1
      vertex 65.0429 50.5 19.5
      vertex 65.0429 61.5 19.5
    endloop
  endfacet
  facet normal -0.5 0 0.866025
    outer loop
      vertex 65.0429 50.5 19.5
      vertex 33 61.5 1
      vertex 33 50.5 1
    endloop
  endfacet
  facet normal -1 0 0
    outer loop
      vertex 65.0429 50.5 19.5
      vertex 65.0429 61.5 32
      vertex 65.0429 61.5 19.5
    endloop
  endfacet
  facet normal -1 -0 0
    outer loop
      vertex 65.0429 61.5 32
      vertex 65.0429 50.5 19.5
      vertex 65.0429 50.5 32
    endloop
  endfacet
  facet normal 0 -1 0
    outer loop
      vertex 0.95706 61.5 32
      vertex 4.42116 61.5 21.5
      vertex 4.42116 61.5 32
    endloop
  endfacet
  facet normal 0 -1 0
    outer loop
      vertex 0.95706 61.5 19.5
      vertex 4.42116 61.5 21.5
      vertex 0.95706 61.5 32
    endloop
  endfacet
  facet normal 0 -1 0
    outer loop
      vertex 0.95706 61.5 19.5
      vertex 33 61.5 5
      vertex 4.42116 61.5 21.5
    endloop
  endfacet
  facet normal -0 -1 -0
    outer loop
      vertex 33 61.5 5
      vertex 0.95706 61.5 19.5
      vertex 33 61.5 1
    endloop
  endfacet
  facet normal 0 -1 0
    outer loop
      vertex 61.5788 61.5 21.5
      vertex 65.0429 61.5 32
      vertex 61.5788 61.5 32
    endloop
  endfacet
  facet normal 0 -1 0
    outer loop
      vertex 61.5788 61.5 21.5
      vertex 65.0429 61.5 19.5
      vertex 65.0429 61.5 32
    endloop
  endfacet
  facet normal 0 -1 0
    outer loop
      vertex 33 61.5 5
      vertex 65.0429 61.5 19.5
      vertex 61.5788 61.5 21.5
    endloop
  endfacet
  facet normal 0 -1 0
    outer loop
      vertex 65.0429 61.5 19.5
      vertex 33 61.5 5
      vertex 33 61.5 1
    endloop
  endfacet
  facet normal 0 1 0
    outer loop
      vertex 65.0429 78 32
      vertex 61.5788 78 21.5
      vertex 61.5788 78 32
    endloop
  endfacet
  facet normal 0 1 -0
    outer loop
      vertex 65.0429 78 19.5
      vertex 61.5788 78 21.5
      vertex 65.0429 78 32
    endloop
  endfacet
  facet normal 0 1 0
    outer loop
      vertex 65.0429 78 19.5
      vertex 33 78 5
      vertex 61.5788 78 21.5
    endloop
  endfacet
  facet normal -0 1 0
    outer loop
      vertex 33 78 5
      vertex 65.0429 78 19.5
      vertex 33 78 1
    endloop
  endfacet
  facet normal 0 1 -0
    outer loop
      vertex 4.42116 78 21.5
      vertex 0.95706 78 32
      vertex 4.42116 78 32
    endloop
  endfacet
  facet normal 0 1 0
    outer loop
      vertex 4.42116 78 21.5
      vertex 0.95706 78 19.5
      vertex 0.95706 78 32
    endloop
  endfacet
  facet normal 0 1 0
    outer loop
      vertex 33 78 5
      vertex 0.95706 78 19.5
      vertex 4.42116 78 21.5
    endloop
  endfacet
  facet normal 0 1 0
    outer loop
      vertex 0.95706 78 19.5
      vertex 33 78 5
      vertex 33 78 1
    endloop
  endfacet
  facet normal 0.5 0 0.866025
    outer loop
      vertex 0.95706 89 19.5
      vertex 33 78 1
      vertex 33 89 1
    endloop
  endfacet
  facet normal 0.5 0 0.866025
    outer loop
      vertex 33 78 1
      vertex 0.95706 89 19.5
      vertex 0.95706 78 19.5
    endloop
  endfacet
  facet normal 1 -0 0
    outer loop
      vertex 0.95706 78 32
      vertex 0.95706 89 19.5
      vertex 0.95706 89 32
    endloop
  endfacet
  facet normal 1 0 0
    outer loop
      vertex 0.95706 89 19.5
      vertex 0.95706 78 32
      vertex 0.95706 78 19.5
    endloop
  endfacet
  facet normal -0.5 0 0.866025
    outer loop
      vertex 33 89 1
      vertex 65.0429 78 19.5
      vertex 65.0429 89 19.5
    endloop
  endfacet
  facet normal -0.5 0 0.866025
    outer loop
      vertex 65.0429 78 19.5
      vertex 33 89 1
      vertex 33 78 1
    endloop
  endfacet
  facet normal -1 0 0
    outer loop
      vertex 65.0429 78 19.5
      vertex 65.0429 89 32
      vertex 65.0429 89 19.5
    endloop
  endfacet
  facet normal -1 -0 0
    outer loop
      vertex 65.0429 89 32
      vertex 65.0429 78 19.5
      vertex 65.0429 78 32
    endloop
  endfacet
  facet normal 0 -1 0
    outer loop
      vertex 0.95706 89 32
      vertex 4.42116 89 21.5
      vertex 4.42116 89 32
    endloop
  endfacet
  facet normal 0 -1 0
    outer loop
      vertex 0.95706 89 19.5
      vertex 4.42116 89 21.5
      vertex 0.95706 89 32
    endloop
  endfacet
  facet normal 0 -1 0
    outer loop
      vertex 0.95706 89 19.5
      vertex 33 89 5
      vertex 4.42116 89 21.5
    endloop
  endfacet
  facet normal -0 -1 -0
    outer loop
      vertex 33 89 5
      vertex 0.95706 89 19.5
      vertex 33 89 1
    endloop
  endfacet
  facet normal 0 -1 0
    outer loop
      vertex 61.5788 89 21.5
      vertex 65.0429 89 32
      vertex 61.5788 89 32
    endloop
  endfacet
  facet normal 0 -1 0
    outer loop
      vertex 61.5788 89 21.5
      vertex 65.0429 89 19.5
      vertex 65.0429 89 32
    endloop
  endfacet
  facet normal 0 -1 0
    outer loop
      vertex 33 89 5
      vertex 65.0429 89 19.5
      vertex 61.5788 89 21.5
    endloop
  endfacet
  facet normal 0 -1 0
    outer loop
      vertex 65.0429 89 19.5
      vertex 33 89 5
      vertex 33 89 1
    endloop
  endfacet
  facet normal 0 1 0
    outer loop
      vertex 65.0429 105.5 32
      vertex 61.5788 105.5 21.5
      vertex 61.5788 105.5 32
    endloop
  endfacet
  facet normal 0 1 -0
    outer loop
      vertex 65.0429 105.5 19.5
      vertex 61.5788 105.5 21.5
      vertex 65.0429 105.5 32
    endloop
  endfacet
  facet normal 0 1 0
    outer loop
      vertex 65.0429 105.5 19.5
      vertex 33 105.5 5
      vertex 61.5788 105.5 21.5
    endloop
  endfacet
  facet normal -0 1 0
    outer loop
      vertex 33 105.5 5
      vertex 65.0429 105.5 19.5
      vertex 33 105.5 1
    endloop
  endfacet
  facet normal 0 1 -0
    outer loop
      vertex 4.42116 105.5 21.5
      vertex 0.95706 105.5 32
      vertex 4.42116 105.5 32
    endloop
  endfacet
  facet normal 0 1 0
    outer loop
      vertex 4.42116 105.5 21.5
      vertex 0.95706 105.5 19.5
      vertex 0.95706 105.5 32
    endloop
  endfacet
  facet normal 0 1 0
    outer loop
      vertex 33 105.5 5
      vertex 0.95706 105.5 19.5
      vertex 4.42116 105.5 21.5
    endloop
  endfacet
  facet normal 0 1 0
    outer loop
      vertex 0.95706 105.5 19.5
      vertex 33 105.5 5
      vertex 33 105.5 1
    endloop
  endfacet
  facet normal 0.5 0 0.866025
    outer loop
      vertex 0.95706 116.5 19.5
      vertex 33 105.5 1
      vertex 33 116.5 1
    endloop
  endfacet
  facet normal 0.5 0 0.866025
    outer loop
      vertex 33 105.5 1
      vertex 0.95706 116.5 19.5
      vertex 0.95706 105.5 19.5
    endloop
  endfacet
  facet normal 1 -0 0
    outer loop
      vertex 0.95706 105.5 32
      vertex 0.95706 116.5 19.5
      vertex 0.95706 116.5 32
    endloop
  endfacet
  facet normal 1 0 0
    outer loop
      vertex 0.95706 116.5 19.5
      vertex 0.95706 105.5 32
      vertex 0.95706 105.5 19.5
    endloop
  endfacet
  facet normal -0.5 0 0.866025
    outer loop
      vertex 33 116.5 1
      vertex 65.0429 105.5 19.5
      vertex 65.0429 116.5 19.5
    endloop
  endfacet
  facet normal -0.5 0 0.866025
    outer loop
      vertex 65.0429 105.5 19.5
      vertex 33 116.5 1
      vertex 33 105.5 1
    endloop
  endfacet
  facet normal -1 0 0
    outer loop
      vertex 65.0429 105.5 19.5
      vertex 65.0429 116.5 32
      vertex 65.0429 116.5 19.5
    endloop
  endfacet
  facet normal -1 -0 0
    outer loop
      vertex 65.0429 116.5 32
      vertex 65.0429 105.5 19.5
      vertex 65.0429 105.5 32
    endloop
  endfacet
  facet normal 0 -1 0
    outer loop
      vertex 0.95706 116.5 32
      vertex 4.42116 116.5 21.5
      vertex 4.42116 116.5 32
    endloop
  endfacet
  facet normal 0 -1 0
    outer loop
      vertex 0.95706 116.5 19.5
      vertex 4.42116 116.5 21.5
      vertex 0.95706 116.5 32
    endloop
  endfacet
  facet normal 0 -1 0
    outer loop
      vertex 0.95706 116.5 19.5
      vertex 33 116.5 5
      vertex 4.42116 116.5 21.5
    endloop
  endfacet
  facet normal -0 -1 -0
    outer loop
      vertex 33 116.5 5
      vertex 0.95706 116.5 19.5
      vertex 33 116.5 1
    endloop
  endfacet
  facet normal 0 -1 0
    outer loop
      vertex 61.5788 116.5 21.5
      vertex 65.0429 116.5 32
      vertex 61.5788 116.5 32
    endloop
  endfacet
  facet normal 0 -1 0
    outer loop
      vertex 61.5788 116.5 21.5
      vertex 65.0429 116.5 19.5
      vertex 65.0429 116.5 32
    endloop
  endfacet
  facet normal 0 -1 0
    outer loop
      vertex 33 116.5 5
      vertex 65.0429 116.5 19.5
      vertex 61.5788 116.5 21.5
    endloop
  endfacet
  facet normal 0 -1 0
    outer loop
      vertex 65.0429 116.5 19.5
      vertex 33 116.5 5
      vertex 33 116.5 1
    endloop
  endfacet
  facet normal 0 1 0
    outer loop
      vertex 65.0429 133 32
      vertex 61.5788 133 21.5
      vertex 61.5788 133 32
    endloop
  endfacet
  facet normal 0 1 -0
    outer loop
      vertex 65.0429 133 19.5
      vertex 61.5788 133 21.5
      vertex 65.0429 133 32
    endloop
  endfacet
  facet normal 0 1 0
    outer loop
      vertex 65.0429 133 19.5
      vertex 33 133 5
      vertex 61.5788 133 21.5
    endloop
  endfacet
  facet normal -0 1 0
    outer loop
      vertex 33 133 5
      vertex 65.0429 133 19.5
      vertex 33 133 1
    endloop
  endfacet
  facet normal 0 1 -0
    outer loop
      vertex 4.42116 133 21.5
      vertex 0.95706 133 32
      vertex 4.42116 133 32
    endloop
  endfacet
  facet normal 0 1 0
    outer loop
      vertex 4.42116 133 21.5
      vertex 0.95706 133 19.5
      vertex 0.95706 133 32
    endloop
  endfacet
  facet normal 0 1 0
    outer loop
      vertex 33 133 5
      vertex 0.95706 133 19.5
      vertex 4.42116 133 21.5
    endloop
  endfacet
  facet normal 0 1 0
    outer loop
      vertex 0.95706 133 19.5
      vertex 33 133 5
      vertex 33 133 1
    endloop
  endfacet
  facet normal 0.5 0 0.866025
    outer loop
      vertex 0.95706 144 19.5
      vertex 33 133 1
      vertex 33 144 1
    endloop
  endfacet
  facet normal 0.5 0 0.866025
    outer loop
      vertex 33 133 1
      vertex 0.95706 144 19.5
      vertex 0.95706 133 19.5
    endloop
  endfacet
  facet normal 1 -0 0
    outer loop
      vertex 0.95706 133 32
      vertex 0.95706 144 19.5
      vertex 0.95706 144 32
    endloop
  endfacet
  facet normal 1 0 0
    outer loop
      vertex 0.95706 144 19.5
      vertex 0.95706 133 32
      vertex 0.95706 133 19.5
    endloop
  endfacet
  facet normal -0.5 0 0.866025
    outer loop
      vertex 33 144 1
      vertex 65.0429 133 19.5
      vertex 65.0429 144 19.5
    endloop
  endfacet
  facet normal -0.5 0 0.866025
    outer loop
      vertex 65.0429 133 19.5
      vertex 33 144 1
      vertex 33 133 1
    endloop
  endfacet
  facet normal -1 0 0
    outer loop
      vertex 65.0429 133 19.5
      vertex 65.0429 144 32
      vertex 65.0429 144 19.5
    endloop
  endfacet
  facet normal -1 -0 0
    outer loop
      vertex 65.0429 144 32
      vertex 65.0429 133 19.5
      vertex 65.0429 133 32
    endloop
  endfacet
  facet normal 0 -1 0
    outer loop
      vertex 0.95706 144 32
      vertex 4.42116 144 21.5
      vertex 4.42116 144 32
    endloop
  endfacet
  facet normal 0 -1 0
    outer loop
      vertex 0.95706 144 19.5
      vertex 4.42116 144 21.5
      vertex 0.95706 144 32
    endloop
  endfacet
  facet normal 0 -1 0
    outer loop
      vertex 0.95706 144 19.5
      vertex 33 144 5
      vertex 4.42116 144 21.5
    endloop
  endfacet
  facet normal -0 -1 -0
    outer loop
      vertex 33 144 5
      vertex 0.95706 144 19.5
      vertex 33 144 1
    endloop
  endfacet
  facet normal 0 -1 0
    outer loop
      vertex 61.5788 144 21.5
      vertex 65.0429 144 32
      vertex 61.5788 144 32
    endloop
  endfacet
  facet normal 0 -1 0
    outer loop
      vertex 61.5788 144 21.5
      vertex 65.0429 144 19.5
      vertex 65.0429 144 32
    endloop
  endfacet
  facet normal 0 -1 0
    outer loop
      vertex 33 144 5
      vertex 65.0429 144 19.5
      vertex 61.5788 144 21.5
    endloop
  endfacet
  facet normal 0 -1 0
    outer loop
      vertex 65.0429 144 19.5
      vertex 33 144 5
      vertex 33 144 1
    endloop
  endfacet
  facet normal 0 1 0
    outer loop
      vertex 65.0429 160.5 32
      vertex 61.5788 160.5 21.5
      vertex 61.5788 160.5 32
    endloop
  endfacet
  facet normal 0 1 -0
    outer loop
      vertex 65.0429 160.5 19.5
      vertex 61.5788 160.5 21.5
      vertex 65.0429 160.5 32
    endloop
  endfacet
  facet normal 0 1 0
    outer loop
      vertex 65.0429 160.5 19.5
      vertex 33 160.5 5
      vertex 61.5788 160.5 21.5
    endloop
  endfacet
  facet normal -0 1 0
    outer loop
      vertex 33 160.5 5
      vertex 65.0429 160.5 19.5
      vertex 33 160.5 1
    endloop
  endfacet
  facet normal 0 1 -0
    outer loop
      vertex 4.42116 160.5 21.5
      vertex 0.95706 160.5 32
      vertex 4.42116 160.5 32
    endloop
  endfacet
  facet normal 0 1 0
    outer loop
      vertex 4.42116 160.5 21.5
      vertex 0.95706 160.5 19.5
      vertex 0.95706 160.5 32
    endloop
  endfacet
  facet normal 0 1 0
    outer loop
      vertex 33 160.5 5
      vertex 0.95706 160.5 19.5
      vertex 4.42116 160.5 21.5
    endloop
  endfacet
  facet normal 0 1 0
    outer loop
      vertex 0.95706 160.5 19.5
      vertex 33 160.5 5
      vertex 33 160.5 1
    endloop
  endfacet
  facet normal 0.5 0 0.866025
    outer loop
      vertex 0.95706 171.5 19.5
      vertex 33 160.5 1
      vertex 33 171.5 1
    endloop
  endfacet
  facet normal 0.5 0 0.866025
    outer loop
      vertex 33 160.5 1
      vertex 0.95706 171.5 19.5
      vertex 0.95706 160.5 19.5
    endloop
  endfacet
  facet normal 1 -0 0
    outer loop
      vertex 0.95706 160.5 32
      vertex 0.95706 171.5 19.5
      vertex 0.95706 171.5 32
    endloop
  endfacet
  facet normal 1 0 0
    outer loop
      vertex 0.95706 171.5 19.5
      vertex 0.95706 160.5 32
      vertex 0.95706 160.5 19.5
    endloop
  endfacet
  facet normal -0.5 0 0.866025
    outer loop
      vertex 33 171.5 1
      vertex 65.0429 160.5 19.5
      vertex 65.0429 171.5 19.5
    endloop
  endfacet
  facet normal -0.5 0 0.866025
    outer loop
      vertex 65.0429 160.5 19.5
      vertex 33 171.5 1
      vertex 33 160.5 1
    endloop
  endfacet
  facet normal -1 0 0
    outer loop
      vertex 65.0429 160.5 19.5
      vertex 65.0429 171.5 32
      vertex 65.0429 171.5 19.5
    endloop
  endfacet
  facet normal -1 -0 0
    outer loop
      vertex 65.0429 171.5 32
      vertex 65.0429 160.5 19.5
      vertex 65.0429 160.5 32
    endloop
  endfacet
  facet normal 0 -1 0
    outer loop
      vertex 0.95706 171.5 32
      vertex 4.42116 171.5 21.5
      vertex 4.42116 171.5 32
    endloop
  endfacet
  facet normal 0 -1 0
    outer loop
      vertex 0.95706 171.5 19.5
      vertex 4.42116 171.5 21.5
      vertex 0.95706 171.5 32
    endloop
  endfacet
  facet normal 0 -1 0
    outer loop
      vertex 0.95706 171.5 19.5
      vertex 33 171.5 5
      vertex 4.42116 171.5 21.5
    endloop
  endfacet
  facet normal -0 -1 -0
    outer loop
      vertex 33 171.5 5
      vertex 0.95706 171.5 19.5
      vertex 33 171.5 1
    endloop
  endfacet
  facet normal 0 -1 0
    outer loop
      vertex 61.5788 171.5 21.5
      vertex 65.0429 171.5 32
      vertex 61.5788 171.5 32
    endloop
  endfacet
  facet normal 0 -1 0
    outer loop
      vertex 61.5788 171.5 21.5
      vertex 65.0429 171.5 19.5
      vertex 65.0429 171.5 32
    endloop
  endfacet
  facet normal 0 -1 0
    outer loop
      vertex 33 171.5 5
      vertex 65.0429 171.5 19.5
      vertex 61.5788 171.5 21.5
    endloop
  endfacet
  facet normal 0 -1 0
    outer loop
      vertex 65.0429 171.5 19.5
      vertex 33 171.5 5
      vertex 33 171.5 1
    endloop
  endfacet
  facet normal 0 1 0
    outer loop
      vertex 65.0429 188 32
      vertex 61.5788 188 21.5
      vertex 61.5788 188 32
    endloop
  endfacet
  facet normal 0 1 -0
    outer loop
      vertex 65.0429 188 19.5
      vertex 61.5788 188 21.5
      vertex 65.0429 188 32
    endloop
  endfacet
  facet normal 0 1 0
    outer loop
      vertex 65.0429 188 19.5
      vertex 33 188 5
      vertex 61.5788 188 21.5
    endloop
  endfacet
  facet normal -0 1 0
    outer loop
      vertex 33 188 5
      vertex 65.0429 188 19.5
      vertex 33 188 1
    endloop
  endfacet
  facet normal 0 1 -0
    outer loop
      vertex 4.42116 188 21.5
      vertex 0.95706 188 32
      vertex 4.42116 188 32
    endloop
  endfacet
  facet normal 0 1 0
    outer loop
      vertex 4.42116 188 21.5
      vertex 0.95706 188 19.5
      vertex 0.95706 188 32
    endloop
  endfacet
  facet normal 0 1 0
    outer loop
      vertex 33 188 5
      vertex 0.95706 188 19.5
      vertex 4.42116 188 21.5
    endloop
  endfacet
  facet normal 0 1 0
    outer loop
      vertex 0.95706 188 19.5
      vertex 33 188 5
      vertex 33 188 1
    endloop
  endfacet
  facet normal 0.5 0 0.866025
    outer loop
      vertex 0.95706 193.5 19.5
      vertex 33 188 1
      vertex 33 193.5 1
    endloop
  endfacet
  facet normal 0.5 0 0.866025
    outer loop
      vertex 33 188 1
      vertex 0.95706 193.5 19.5
      vertex 0.95706 188 19.5
    endloop
  endfacet
  facet normal 1 -0 0
    outer loop
      vertex 0.95706 188 32
      vertex 0.95706 193.5 19.5
      vertex 0.95706 193.5 32
    endloop
  endfacet
  facet normal 1 0 0
    outer loop
      vertex 0.95706 193.5 19.5
      vertex 0.95706 188 32
      vertex 0.95706 188 19.5
    endloop
  endfacet
  facet normal 0 -1 0
    outer loop
      vertex 0.95706 193.5 32
      vertex 4.42116 193.5 21.5
      vertex 4.42116 193.5 32
    endloop
  endfacet
  facet normal 0 -1 0
    outer loop
      vertex 0.95706 193.5 19.5
      vertex 4.42116 193.5 21.5
      vertex 0.95706 193.5 32
    endloop
  endfacet
  facet normal 0 -1 0
    outer loop
      vertex 0.95706 193.5 19.5
      vertex 33 193.5 5
      vertex 4.42116 193.5 21.5
    endloop
  endfacet
  facet normal -0 -1 -0
    outer loop
      vertex 33 193.5 5
      vertex 0.95706 193.5 19.5
      vertex 33 193.5 1
    endloop
  endfacet
  facet normal 0 -1 0
    outer loop
      vertex 61.5788 193.5 21.5
      vertex 65.0429 193.5 32
      vertex 61.5788 193.5 32
    endloop
  endfacet
  facet normal 0 -1 0
    outer loop
      vertex 61.5788 193.5 21.5
      vertex 65.0429 193.5 19.5
      vertex 65.0429 193.5 32
    endloop
  endfacet
  facet normal 0 -1 0
    outer loop
      vertex 33 193.5 5
      vertex 65.0429 193.5 19.5
      vertex 61.5788 193.5 21.5
    endloop
  endfacet
  facet normal 0 -1 0
    outer loop
      vertex 65.0429 193.5 19.5
      vertex 33 193.5 5
      vertex 33 193.5 1
    endloop
  endfacet
  facet normal -0.5 0 0.866025
    outer loop
      vertex 33 193.5 1
      vertex 65.0429 188 19.5
      vertex 65.0429 193.5 19.5
    endloop
  endfacet
  facet normal -0.5 0 0.866025
    outer loop
      vertex 65.0429 188 19.5
      vertex 33 193.5 1
      vertex 33 188 1
    endloop
  endfacet
  facet normal -1 0 0
    outer loop
      vertex 65.0429 188 19.5
      vertex 65.0429 193.5 32
      vertex 65.0429 193.5 19.5
    endloop
  endfacet
  facet normal -1 -0 0
    outer loop
      vertex 65.0429 193.5 32
      vertex 65.0429 188 19.5
      vertex 65.0429 188 32
    endloop
  endfacet
endsolid OpenSCAD_Model
