solid OpenSCAD_Model
  facet normal 0 1 0
    outer loop
      vertex 65.0429 1 32
      vertex 61.5788 1 21.5
      vertex 61.5788 1 32
    endloop
  endfacet
  facet normal 0 1 -0
    outer loop
      vertex 65.0429 1 19.5
      vertex 61.5788 1 21.5
      vertex 65.0429 1 32
    endloop
  endfacet
  facet normal 0 1 0
    outer loop
      vertex 65.0429 1 19.5
      vertex 33 1 5
      vertex 61.5788 1 21.5
    endloop
  endfacet
  facet normal -0 1 0
    outer loop
      vertex 33 1 5
      vertex 65.0429 1 19.5
      vertex 33 1 1
    endloop
  endfacet
  facet normal 0 1 -0
    outer loop
      vertex 4.42116 1 21.5
      vertex 0.95706 1 32
      vertex 4.42116 1 32
    endloop
  endfacet
  facet normal 0 1 0
    outer loop
      vertex 4.42116 1 21.5
      vertex 0.95706 1 19.5
      vertex 0.95706 1 32
    endloop
  endfacet
  facet normal 0 1 0
    outer loop
      vertex 33 1 5
      vertex 0.95706 1 19.5
      vertex 4.42116 1 21.5
    endloop
  endfacet
  facet normal 0 1 0
    outer loop
      vertex 0.95706 1 19.5
      vertex 33 1 5
      vertex 33 1 1
    endloop
  endfacet
  facet normal 0.5 0 0.866025
    outer loop
      vertex 0.95706 6.5 19.5
      vertex 33 1 1
      vertex 33 6.5 1
    endloop
  endfacet
  facet normal 0.5 0 0.866025
    outer loop
      vertex 33 1 1
      vertex 0.95706 6.5 19.5
      vertex 0.95706 1 19.5
    endloop
  endfacet
  facet normal 1 -0 0
    outer loop
      vertex 0.95706 1 32
      vertex 0.95706 6.5 19.5
      vertex 0.95706 6.5 32
    endloop
  endfacet
  facet normal 1 0 0
    outer loop
      vertex 0.95706 6.5 19.5
      vertex 0.95706 1 32
      vertex 0.95706 1 19.5
    endloop
  endfacet
  facet normal 0 -1 0
    outer loop
      vertex 0.95706 6.5 32
      vertex 4.42116 6.5 21.5
      vertex 4.42116 6.5 32
    endloop
  endfacet
  facet normal 0 -1 0
    outer loop
      vertex 0.95706 6.5 19.5
      vertex 4.42116 6.5 21.5
      vertex 0.95706 6.5 32
    endloop
  endfacet
  facet normal 0 -1 0
    outer loop
      vertex 0.95706 6.5 19.5
      vertex 33 6.5 5
      vertex 4.42116 6.5 21.5
    endloop
  endfacet
  facet normal -0 -1 -0
    outer loop
      vertex 33 6.5 5
      vertex 0.95706 6.5 19.5
      vertex 33 6.5 1
    endloop
  endfacet
  facet normal 0 -1 0
    outer loop
      vertex 61.5788 6.5 21.5
      vertex 65.0429 6.5 32
      vertex 61.5788 6.5 32
    endloop
  endfacet
  facet normal 0 -1 0
    outer loop
      vertex 61.5788 6.5 21.5
      vertex 65.0429 6.5 19.5
      vertex 65.0429 6.5 32
    endloop
  endfacet
  facet normal 0 -1 0
    outer loop
      vertex 33 6.5 5
      vertex 65.0429 6.5 19.5
      vertex 61.5788 6.5 21.5
    endloop
  endfacet
  facet normal 0 -1 0
    outer loop
      vertex 65.0429 6.5 19.5
      vertex 33 6.5 5
      vertex 33 6.5 1
    endloop
  endfacet
  facet normal -0.5 0 0.866025
    outer loop
      vertex 33 6.5 1
      vertex 65.0429 1 19.5
      vertex 65.0429 6.5 19.5
    endloop
  endfacet
  facet normal -0.5 0 0.866025
    outer loop
      vertex 65.0429 1 19.5
      vertex 33 6.5 1
      vertex 33 1 1
    endloop
  endfacet
  facet normal -1 0 0
    outer loop
      vertex 65.0429 1 19.5
      vertex 65.0429 6.5 32
      vertex 65.0429 6.5 19.5
    endloop
  endfacet
  facet normal -1 -0 0
    outer loop
      vertex 65.0429 6.5 32
      vertex 65.0429 1 19.5
      vertex 65.0429 1 32
    endloop
  endfacet
  facet normal 0 1 0
    outer loop
      vertex 65.0429 10 32
      vertex 61.5788 10 21.5
      vertex 61.5788 10 32
    endloop
  endfacet
  facet normal 0 1 -0
    outer loop
      vertex 65.0429 10 19.5
      vertex 61.5788 10 21.5
      vertex 65.0429 10 32
    endloop
  endfacet
  facet normal 0 1 0
    outer loop
      vertex 65.0429 10 19.5
      vertex 33 10 5
      vertex 61.5788 10 21.5
    endloop
  endfacet
  facet normal -0 1 0
    outer loop
      vertex 33 10 5
      vertex 65.0429 10 19.5
      vertex 33 10 1
    endloop
  endfacet
  facet normal 0 1 -0
    outer loop
      vertex 4.42116 10 21.5
      vertex 0.95706 10 32
      vertex 4.42116 10 32
    endloop
  endfacet
  facet normal 0 1 0
    outer loop
      vertex 4.42116 10 21.5
      vertex 0.95706 10 19.5
      vertex 0.95706 10 32
    endloop
  endfacet
  facet normal 0 1 0
    outer loop
      vertex 33 10 5
      vertex 0.95706 10 19.5
      vertex 4.42116 10 21.5
    endloop
  endfacet
  facet normal 0 1 0
    outer loop
      vertex 0.95706 10 19.5
      vertex 33 10 5
      vertex 33 10 1
    endloop
  endfacet
  facet normal 0.5 0 0.866025
    outer loop
      vertex 0.95706 21 19.5
      vertex 33 10 1
      vertex 33 21 1
    endloop
  endfacet
  facet normal 0.5 0 0.866025
    outer loop
      vertex 33 10 1
      vertex 0.95706 21 19.5
      vertex 0.95706 10 19.5
    endloop
  endfacet
  facet normal 1 -0 0
    outer loop
      vertex 0.95706 10 32
      vertex 0.95706 21 19.5
      vertex 0.95706 21 32
    endloop
  endfacet
  facet normal 1 0 0
    outer loop
      vertex 0.95706 21 19.5
      vertex 0.95706 10 32
      vertex 0.95706 10 19.5
    endloop
  endfacet
  facet normal -0.5 0 0.866025
    outer loop
      vertex 33 21 1
      vertex 65.0429 10 19.5
      vertex 65.0429 21 19.5
    endloop
  endfacet
  facet normal -0.5 0 0.866025
    outer loop
      vertex 65.0429 10 19.5
      vertex 33 21 1
      vertex 33 10 1
    endloop
  endfacet
  facet normal -1 0 0
    outer loop
      vertex 65.0429 10 19.5
      vertex 65.0429 21 32
      vertex 65.0429 21 19.5
    endloop
  endfacet
  facet normal -1 -0 0
    outer loop
      vertex 65.0429 21 32
      vertex 65.0429 10 19.5
      vertex 65.0429 10 32
    endloop
  endfacet
  facet normal 0 -1 0
    outer loop
      vertex 0.95706 21 32
      vertex 4.42116 21 21.5
      vertex 4.42116 21 32
    endloop
  endfacet
  facet normal 0 -1 0
    outer loop
      vertex 0.95706 21 19.5
      vertex 4.42116 21 21.5
      vertex 0.95706 21 32
    endloop
  endfacet
  facet normal 0 -1 0
    outer loop
      vertex 0.95706 21 19.5
      vertex 33 21 5
      vertex 4.42116 21 21.5
    endloop
  endfacet
  facet normal -0 -1 -0
    outer loop
      vertex 33 21 5
      vertex 0.95706 21 19.5
      vertex 33 21 1
    endloop
  endfacet
  facet normal 0 -1 0
    outer loop
      vertex 61.5788 21 21.5
      vertex 65.0429 21 32
      vertex 61.5788 21 32
    endloop
  endfacet
  facet normal 0 -1 0
    outer loop
      vertex 61.5788 21 21.5
      vertex 65.0429 21 19.5
      vertex 65.0429 21 32
    endloop
  endfacet
  facet normal 0 -1 0
    outer loop
      vertex 33 21 5
      vertex 65.0429 21 19.5
      vertex 61.5788 21 21.5
    endloop
  endfacet
  facet normal 0 -1 0
    outer loop
      vertex 65.0429 21 19.5
      vertex 33 21 5
      vertex 33 21 1
    endloop
  endfacet
  facet normal 0 1 0
    outer loop
      vertex 65.0429 24.5 32
      vertex 61.5788 24.5 21.5
      vertex 61.5788 24.5 32
    endloop
  endfacet
  facet normal 0 1 -0
    outer loop
      vertex 65.0429 24.5 19.5
      vertex 61.5788 24.5 21.5
      vertex 65.0429 24.5 32
    endloop
  endfacet
  facet normal 0 1 0
    outer loop
      vertex 65.0429 24.5 19.5
      vertex 33 24.5 5
      vertex 61.5788 24.5 21.5
    endloop
  endfacet
  facet normal -0 1 0
    outer loop
      vertex 33 24.5 5
      vertex 65.0429 24.5 19.5
      vertex 33 24.5 1
    endloop
  endfacet
  facet normal 0 1 -0
    outer loop
      vertex 4.42116 24.5 21.5
      vertex 0.95706 24.5 32
      vertex 4.42116 24.5 32
    endloop
  endfacet
  facet normal 0 1 0
    outer loop
      vertex 4.42116 24.5 21.5
      vertex 0.95706 24.5 19.5
      vertex 0.95706 24.5 32
    endloop
  endfacet
  facet normal 0 1 0
    outer loop
      vertex 33 24.5 5
      vertex 0.95706 24.5 19.5
      vertex 4.42116 24.5 21.5
    endloop
  endfacet
  facet normal 0 1 0
    outer loop
      vertex 0.95706 24.5 19.5
      vertex 33 24.5 5
      vertex 33 24.5 1
    endloop
  endfacet
  facet normal 0.5 0 0.866025
    outer loop
      vertex 0.95706 35.5 19.5
      vertex 33 24.5 1
      vertex 33 35.5 1
    endloop
  endfacet
  facet normal 0.5 0 0.866025
    outer loop
      vertex 33 24.5 1
      vertex 0.95706 35.5 19.5
      vertex 0.95706 24.5 19.5
    endloop
  endfacet
  facet normal 1 -0 0
    outer loop
      vertex 0.95706 24.5 32
      vertex 0.95706 35.5 19.5
      vertex 0.95706 35.5 32
    endloop
  endfacet
  facet normal 1 0 0
    outer loop
      vertex 0.95706 35.5 19.5
      vertex 0.95706 24.5 32
      vertex 0.95706 24.5 19.5
    endloop
  endfacet
  facet normal -0.5 0 0.866025
    outer loop
      vertex 33 35.5 1
      vertex 65.0429 24.5 19.5
      vertex 65.0429 35.5 19.5
    endloop
  endfacet
  facet normal -0.5 0 0.866025
    outer loop
      vertex 65.0429 24.5 19.5
      vertex 33 35.5 1
      vertex 33 24.5 1
    endloop
  endfacet
  facet normal -1 0 0
    outer loop
      vertex 65.0429 24.5 19.5
      vertex 65.0429 35.5 32
      vertex 65.0429 35.5 19.5
    endloop
  endfacet
  facet normal -1 -0 0
    outer loop
      vertex 65.0429 35.5 32
      vertex 65.0429 24.5 19.5
      vertex 65.0429 24.5 32
    endloop
  endfacet
  facet normal 0 -1 0
    outer loop
      vertex 0.95706 35.5 32
      vertex 4.42116 35.5 21.5
      vertex 4.42116 35.5 32
    endloop
  endfacet
  facet normal 0 -1 0
    outer loop
      vertex 0.95706 35.5 19.5
      vertex 4.42116 35.5 21.5
      vertex 0.95706 35.5 32
    endloop
  endfacet
  facet normal 0 -1 0
    outer loop
      vertex 0.95706 35.5 19.5
      vertex 33 35.5 5
      vertex 4.42116 35.5 21.5
    endloop
  endfacet
  facet normal -0 -1 -0
    outer loop
      vertex 33 35.5 5
      vertex 0.95706 35.5 19.5
      vertex 33 35.5 1
    endloop
  endfacet
  facet normal 0 -1 0
    outer loop
      vertex 61.5788 35.5 21.5
      vertex 65.0429 35.5 32
      vertex 61.5788 35.5 32
    endloop
  endfacet
  facet normal 0 -1 0
    outer loop
      vertex 61.5788 35.5 21.5
      vertex 65.0429 35.5 19.5
      vertex 65.0429 35.5 32
    endloop
  endfacet
  facet normal 0 -1 0
    outer loop
      vertex 33 35.5 5
      vertex 65.0429 35.5 19.5
      vertex 61.5788 35.5 21.5
    endloop
  endfacet
  facet normal 0 -1 0
    outer loop
      vertex 65.0429 35.5 19.5
      vertex 33 35.5 5
      vertex 33 35.5 1
    endloop
  endfacet
  facet normal 0 1 0
    outer loop
      vertex 65.0429 39 32
      vertex 61.5788 39 21.5
      vertex 61.5788 39 32
    endloop
  endfacet
  facet normal 0 1 -0
    outer loop
      vertex 65.0429 39 19.5
      vertex 61.5788 39 21.5
      vertex 65.0429 39 32
    endloop
  endfacet
  facet normal 0 1 0
    outer loop
      vertex 65.0429 39 19.5
      vertex 33 39 5
      vertex 61.5788 39 21.5
    endloop
  endfacet
  facet normal -0 1 0
    outer loop
      vertex 33 39 5
      vertex 65.0429 39 19.5
      vertex 33 39 1
    endloop
  endfacet
  facet normal 0 1 -0
    outer loop
      vertex 4.42116 39 21.5
      vertex 0.95706 39 32
      vertex 4.42116 39 32
    endloop
  endfacet
  facet normal 0 1 0
    outer loop
      vertex 4.42116 39 21.5
      vertex 0.95706 39 19.5
      vertex 0.95706 39 32
    endloop
  endfacet
  facet normal 0 1 0
    outer loop
      vertex 33 39 5
      vertex 0.95706 39 19.5
      vertex 4.42116 39 21.5
    endloop
  endfacet
  facet normal 0 1 0
    outer loop
      vertex 0.95706 39 19.5
      vertex 33 39 5
      vertex 33 39 1
    endloop
  endfacet
  facet normal 0.5 0 0.866025
    outer loop
      vertex 0.95706 50 19.5
      vertex 33 39 1
      vertex 33 50 1
    endloop
  endfacet
  facet normal 0.5 0 0.866025
    outer loop
      vertex 33 39 1
      vertex 0.95706 50 19.5
      vertex 0.95706 39 19.5
    endloop
  endfacet
  facet normal 1 -0 0
    outer loop
      vertex 0.95706 39 32
      vertex 0.95706 50 19.5
      vertex 0.95706 50 32
    endloop
  endfacet
  facet normal 1 0 0
    outer loop
      vertex 0.95706 50 19.5
      vertex 0.95706 39 32
      vertex 0.95706 39 19.5
    endloop
  endfacet
  facet normal -0.5 0 0.866025
    outer loop
      vertex 33 50 1
      vertex 65.0429 39 19.5
      vertex 65.0429 50 19.5
    endloop
  endfacet
  facet normal -0.5 0 0.866025
    outer loop
      vertex 65.0429 39 19.5
      vertex 33 50 1
      vertex 33 39 1
    endloop
  endfacet
  facet normal -1 0 0
    outer loop
      vertex 65.0429 39 19.5
      vertex 65.0429 50 32
      vertex 65.0429 50 19.5
    endloop
  endfacet
  facet normal -1 -0 0
    outer loop
      vertex 65.0429 50 32
      vertex 65.0429 39 19.5
      vertex 65.0429 39 32
    endloop
  endfacet
  facet normal 0 -1 0
    outer loop
      vertex 0.95706 50 32
      vertex 4.42116 50 21.5
      vertex 4.42116 50 32
    endloop
  endfacet
  facet normal 0 -1 0
    outer loop
      vertex 0.95706 50 19.5
      vertex 4.42116 50 21.5
      vertex 0.95706 50 32
    endloop
  endfacet
  facet normal 0 -1 0
    outer loop
      vertex 0.95706 50 19.5
      vertex 33 50 5
      vertex 4.42116 50 21.5
    endloop
  endfacet
  facet normal -0 -1 -0
    outer loop
      vertex 33 50 5
      vertex 0.95706 50 19.5
      vertex 33 50 1
    endloop
  endfacet
  facet normal 0 -1 0
    outer loop
      vertex 61.5788 50 21.5
      vertex 65.0429 50 32
      vertex 61.5788 50 32
    endloop
  endfacet
  facet normal 0 -1 0
    outer loop
      vertex 61.5788 50 21.5
      vertex 65.0429 50 19.5
      vertex 65.0429 50 32
    endloop
  endfacet
  facet normal 0 -1 0
    outer loop
      vertex 33 50 5
      vertex 65.0429 50 19.5
      vertex 61.5788 50 21.5
    endloop
  endfacet
  facet normal 0 -1 0
    outer loop
      vertex 65.0429 50 19.5
      vertex 33 50 5
      vertex 33 50 1
    endloop
  endfacet
  facet normal 0 1 0
    outer loop
      vertex 65.0429 53.5 32
      vertex 61.5788 53.5 21.5
      vertex 61.5788 53.5 32
    endloop
  endfacet
  facet normal 0 1 -0
    outer loop
      vertex 65.0429 53.5 19.5
      vertex 61.5788 53.5 21.5
      vertex 65.0429 53.5 32
    endloop
  endfacet
  facet normal 0 1 0
    outer loop
      vertex 65.0429 53.5 19.5
      vertex 33 53.5 5
      vertex 61.5788 53.5 21.5
    endloop
  endfacet
  facet normal -0 1 0
    outer loop
      vertex 33 53.5 5
      vertex 65.0429 53.5 19.5
      vertex 33 53.5 1
    endloop
  endfacet
  facet normal 0 1 -0
    outer loop
      vertex 4.42116 53.5 21.5
      vertex 0.95706 53.5 32
      vertex 4.42116 53.5 32
    endloop
  endfacet
  facet normal 0 1 0
    outer loop
      vertex 4.42116 53.5 21.5
      vertex 0.95706 53.5 19.5
      vertex 0.95706 53.5 32
    endloop
  endfacet
  facet normal 0 1 0
    outer loop
      vertex 33 53.5 5
      vertex 0.95706 53.5 19.5
      vertex 4.42116 53.5 21.5
    endloop
  endfacet
  facet normal 0 1 0
    outer loop
      vertex 0.95706 53.5 19.5
      vertex 33 53.5 5
      vertex 33 53.5 1
    endloop
  endfacet
  facet normal 0.5 0 0.866025
    outer loop
      vertex 0.95706 64.5 19.5
      vertex 33 53.5 1
      vertex 33 64.5 1
    endloop
  endfacet
  facet normal 0.5 0 0.866025
    outer loop
      vertex 33 53.5 1
      vertex 0.95706 64.5 19.5
      vertex 0.95706 53.5 19.5
    endloop
  endfacet
  facet normal 1 -0 0
    outer loop
      vertex 0.95706 53.5 32
      vertex 0.95706 64.5 19.5
      vertex 0.95706 64.5 32
    endloop
  endfacet
  facet normal 1 0 0
    outer loop
      vertex 0.95706 64.5 19.5
      vertex 0.95706 53.5 32
      vertex 0.95706 53.5 19.5
    endloop
  endfacet
  facet normal -0.5 0 0.866025
    outer loop
      vertex 33 64.5 1
      vertex 65.0429 53.5 19.5
      vertex 65.0429 64.5 19.5
    endloop
  endfacet
  facet normal -0.5 0 0.866025
    outer loop
      vertex 65.0429 53.5 19.5
      vertex 33 64.5 1
      vertex 33 53.5 1
    endloop
  endfacet
  facet normal -1 0 0
    outer loop
      vertex 65.0429 53.5 19.5
      vertex 65.0429 64.5 32
      vertex 65.0429 64.5 19.5
    endloop
  endfacet
  facet normal -1 -0 0
    outer loop
      vertex 65.0429 64.5 32
      vertex 65.0429 53.5 19.5
      vertex 65.0429 53.5 32
    endloop
  endfacet
  facet normal 0 -1 0
    outer loop
      vertex 0.95706 64.5 32
      vertex 4.42116 64.5 21.5
      vertex 4.42116 64.5 32
    endloop
  endfacet
  facet normal 0 -1 0
    outer loop
      vertex 0.95706 64.5 19.5
      vertex 4.42116 64.5 21.5
      vertex 0.95706 64.5 32
    endloop
  endfacet
  facet normal 0 -1 0
    outer loop
      vertex 0.95706 64.5 19.5
      vertex 33 64.5 5
      vertex 4.42116 64.5 21.5
    endloop
  endfacet
  facet normal -0 -1 -0
    outer loop
      vertex 33 64.5 5
      vertex 0.95706 64.5 19.5
      vertex 33 64.5 1
    endloop
  endfacet
  facet normal 0 -1 0
    outer loop
      vertex 61.5788 64.5 21.5
      vertex 65.0429 64.5 32
      vertex 61.5788 64.5 32
    endloop
  endfacet
  facet normal 0 -1 0
    outer loop
      vertex 61.5788 64.5 21.5
      vertex 65.0429 64.5 19.5
      vertex 65.0429 64.5 32
    endloop
  endfacet
  facet normal 0 -1 0
    outer loop
      vertex 33 64.5 5
      vertex 65.0429 64.5 19.5
      vertex 61.5788 64.5 21.5
    endloop
  endfacet
  facet normal 0 -1 0
    outer loop
      vertex 65.0429 64.5 19.5
      vertex 33 64.5 5
      vertex 33 64.5 1
    endloop
  endfacet
  facet normal 0 1 0
    outer loop
      vertex 65.0429 68 32
      vertex 61.5788 68 21.5
      vertex 61.5788 68 32
    endloop
  endfacet
  facet normal 0 1 -0
    outer loop
      vertex 65.0429 68 19.5
      vertex 61.5788 68 21.5
      vertex 65.0429 68 32
    endloop
  endfacet
  facet normal 0 1 0
    outer loop
      vertex 65.0429 68 19.5
      vertex 33 68 5
      vertex 61.5788 68 21.5
    endloop
  endfacet
  facet normal -0 1 0
    outer loop
      vertex 33 68 5
      vertex 65.0429 68 19.5
      vertex 33 68 1
    endloop
  endfacet
  facet normal 0 1 -0
    outer loop
      vertex 4.42116 68 21.5
      vertex 0.95706 68 32
      vertex 4.42116 68 32
    endloop
  endfacet
  facet normal 0 1 0
    outer loop
      vertex 4.42116 68 21.5
      vertex 0.95706 68 19.5
      vertex 0.95706 68 32
    endloop
  endfacet
  facet normal 0 1 0
    outer loop
      vertex 33 68 5
      vertex 0.95706 68 19.5
      vertex 4.42116 68 21.5
    endloop
  endfacet
  facet normal 0 1 0
    outer loop
      vertex 0.95706 68 19.5
      vertex 33 68 5
      vertex 33 68 1
    endloop
  endfacet
  facet normal 0.5 0 0.866025
    outer loop
      vertex 0.95706 79 19.5
      vertex 33 68 1
      vertex 33 79 1
    endloop
  endfacet
  facet normal 0.5 0 0.866025
    outer loop
      vertex 33 68 1
      vertex 0.95706 79 19.5
      vertex 0.95706 68 19.5
    endloop
  endfacet
  facet normal 1 -0 0
    outer loop
      vertex 0.95706 68 32
      vertex 0.95706 79 19.5
      vertex 0.95706 79 32
    endloop
  endfacet
  facet normal 1 0 0
    outer loop
      vertex 0.95706 79 19.5
      vertex 0.95706 68 32
      vertex 0.95706 68 19.5
    endloop
  endfacet
  facet normal -0.5 0 0.866025
    outer loop
      vertex 33 79 1
      vertex 65.0429 68 19.5
      vertex 65.0429 79 19.5
    endloop
  endfacet
  facet normal -0.5 0 0.866025
    outer loop
      vertex 65.0429 68 19.5
      vertex 33 79 1
      vertex 33 68 1
    endloop
  endfacet
  facet normal -1 0 0
    outer loop
      vertex 65.0429 68 19.5
      vertex 65.0429 79 32
      vertex 65.0429 79 19.5
    endloop
  endfacet
  facet normal -1 -0 0
    outer loop
      vertex 65.0429 79 32
      vertex 65.0429 68 19.5
      vertex 65.0429 68 32
    endloop
  endfacet
  facet normal 0 -1 0
    outer loop
      vertex 0.95706 79 32
      vertex 4.42116 79 21.5
      vertex 4.42116 79 32
    endloop
  endfacet
  facet normal 0 -1 0
    outer loop
      vertex 0.95706 79 19.5
      vertex 4.42116 79 21.5
      vertex 0.95706 79 32
    endloop
  endfacet
  facet normal 0 -1 0
    outer loop
      vertex 0.95706 79 19.5
      vertex 33 79 5
      vertex 4.42116 79 21.5
    endloop
  endfacet
  facet normal -0 -1 -0
    outer loop
      vertex 33 79 5
      vertex 0.95706 79 19.5
      vertex 33 79 1
    endloop
  endfacet
  facet normal 0 -1 0
    outer loop
      vertex 61.5788 79 21.5
      vertex 65.0429 79 32
      vertex 61.5788 79 32
    endloop
  endfacet
  facet normal 0 -1 0
    outer loop
      vertex 61.5788 79 21.5
      vertex 65.0429 79 19.5
      vertex 65.0429 79 32
    endloop
  endfacet
  facet normal 0 -1 0
    outer loop
      vertex 33 79 5
      vertex 65.0429 79 19.5
      vertex 61.5788 79 21.5
    endloop
  endfacet
  facet normal 0 -1 0
    outer loop
      vertex 65.0429 79 19.5
      vertex 33 79 5
      vertex 33 79 1
    endloop
  endfacet
  facet normal 0 1 0
    outer loop
      vertex 65.0429 82.5 32
      vertex 61.5788 82.5 21.5
      vertex 61.5788 82.5 32
    endloop
  endfacet
  facet normal 0 1 -0
    outer loop
      vertex 65.0429 82.5 19.5
      vertex 61.5788 82.5 21.5
      vertex 65.0429 82.5 32
    endloop
  endfacet
  facet normal 0 1 0
    outer loop
      vertex 65.0429 82.5 19.5
      vertex 33 82.5 5
      vertex 61.5788 82.5 21.5
    endloop
  endfacet
  facet normal -0 1 0
    outer loop
      vertex 33 82.5 5
      vertex 65.0429 82.5 19.5
      vertex 33 82.5 1
    endloop
  endfacet
  facet normal 0 1 -0
    outer loop
      vertex 4.42116 82.5 21.5
      vertex 0.95706 82.5 32
      vertex 4.42116 82.5 32
    endloop
  endfacet
  facet normal 0 1 0
    outer loop
      vertex 4.42116 82.5 21.5
      vertex 0.95706 82.5 19.5
      vertex 0.95706 82.5 32
    endloop
  endfacet
  facet normal 0 1 0
    outer loop
      vertex 33 82.5 5
      vertex 0.95706 82.5 19.5
      vertex 4.42116 82.5 21.5
    endloop
  endfacet
  facet normal 0 1 0
    outer loop
      vertex 0.95706 82.5 19.5
      vertex 33 82.5 5
      vertex 33 82.5 1
    endloop
  endfacet
  facet normal 0.5 0 0.866025
    outer loop
      vertex 0.95706 93.5 19.5
      vertex 33 82.5 1
      vertex 33 93.5 1
    endloop
  endfacet
  facet normal 0.5 0 0.866025
    outer loop
      vertex 33 82.5 1
      vertex 0.95706 93.5 19.5
      vertex 0.95706 82.5 19.5
    endloop
  endfacet
  facet normal 1 -0 0
    outer loop
      vertex 0.95706 82.5 32
      vertex 0.95706 93.5 19.5
      vertex 0.95706 93.5 32
    endloop
  endfacet
  facet normal 1 0 0
    outer loop
      vertex 0.95706 93.5 19.5
      vertex 0.95706 82.5 32
      vertex 0.95706 82.5 19.5
    endloop
  endfacet
  facet normal -0.5 0 0.866025
    outer loop
      vertex 33 93.5 1
      vertex 65.0429 82.5 19.5
      vertex 65.0429 93.5 19.5
    endloop
  endfacet
  facet normal -0.5 0 0.866025
    outer loop
      vertex 65.0429 82.5 19.5
      vertex 33 93.5 1
      vertex 33 82.5 1
    endloop
  endfacet
  facet normal -1 0 0
    outer loop
      vertex 65.0429 82.5 19.5
      vertex 65.0429 93.5 32
      vertex 65.0429 93.5 19.5
    endloop
  endfacet
  facet normal -1 -0 0
    outer loop
      vertex 65.0429 93.5 32
      vertex 65.0429 82.5 19.5
      vertex 65.0429 82.5 32
    endloop
  endfacet
  facet normal 0 -1 0
    outer loop
      vertex 0.95706 93.5 32
      vertex 4.42116 93.5 21.5
      vertex 4.42116 93.5 32
    endloop
  endfacet
  facet normal 0 -1 0
    outer loop
      vertex 0.95706 93.5 19.5
      vertex 4.42116 93.5 21.5
      vertex 0.95706 93.5 32
    endloop
  endfacet
  facet normal 0 -1 0
    outer loop
      vertex 0.95706 93.5 19.5
      vertex 33 93.5 5
      vertex 4.42116 93.5 21.5
    endloop
  endfacet
  facet normal -0 -1 -0
    outer loop
      vertex 33 93.5 5
      vertex 0.95706 93.5 19.5
      vertex 33 93.5 1
    endloop
  endfacet
  facet normal 0 -1 0
    outer loop
      vertex 61.5788 93.5 21.5
      vertex 65.0429 93.5 32
      vertex 61.5788 93.5 32
    endloop
  endfacet
  facet normal 0 -1 0
    outer loop
      vertex 61.5788 93.5 21.5
      vertex 65.0429 93.5 19.5
      vertex 65.0429 93.5 32
    endloop
  endfacet
  facet normal 0 -1 0
    outer loop
      vertex 33 93.5 5
      vertex 65.0429 93.5 19.5
      vertex 61.5788 93.5 21.5
    endloop
  endfacet
  facet normal 0 -1 0
    outer loop
      vertex 65.0429 93.5 19.5
      vertex 33 93.5 5
      vertex 33 93.5 1
    endloop
  endfacet
  facet normal 0 1 0
    outer loop
      vertex 65.0429 97 32
      vertex 61.5788 97 21.5
      vertex 61.5788 97 32
    endloop
  endfacet
  facet normal 0 1 -0
    outer loop
      vertex 65.0429 97 19.5
      vertex 61.5788 97 21.5
      vertex 65.0429 97 32
    endloop
  endfacet
  facet normal 0 1 0
    outer loop
      vertex 65.0429 97 19.5
      vertex 33 97 5
      vertex 61.5788 97 21.5
    endloop
  endfacet
  facet normal -0 1 0
    outer loop
      vertex 33 97 5
      vertex 65.0429 97 19.5
      vertex 33 97 1
    endloop
  endfacet
  facet normal 0 1 -0
    outer loop
      vertex 4.42116 97 21.5
      vertex 0.95706 97 32
      vertex 4.42116 97 32
    endloop
  endfacet
  facet normal 0 1 0
    outer loop
      vertex 4.42116 97 21.5
      vertex 0.95706 97 19.5
      vertex 0.95706 97 32
    endloop
  endfacet
  facet normal 0 1 0
    outer loop
      vertex 33 97 5
      vertex 0.95706 97 19.5
      vertex 4.42116 97 21.5
    endloop
  endfacet
  facet normal 0 1 0
    outer loop
      vertex 0.95706 97 19.5
      vertex 33 97 5
      vertex 33 97 1
    endloop
  endfacet
  facet normal 0.5 0 0.866025
    outer loop
      vertex 0.95706 108 19.5
      vertex 33 97 1
      vertex 33 108 1
    endloop
  endfacet
  facet normal 0.5 0 0.866025
    outer loop
      vertex 33 97 1
      vertex 0.95706 108 19.5
      vertex 0.95706 97 19.5
    endloop
  endfacet
  facet normal 1 -0 0
    outer loop
      vertex 0.95706 97 32
      vertex 0.95706 108 19.5
      vertex 0.95706 108 32
    endloop
  endfacet
  facet normal 1 0 0
    outer loop
      vertex 0.95706 108 19.5
      vertex 0.95706 97 32
      vertex 0.95706 97 19.5
    endloop
  endfacet
  facet normal -0.5 0 0.866025
    outer loop
      vertex 33 108 1
      vertex 65.0429 97 19.5
      vertex 65.0429 108 19.5
    endloop
  endfacet
  facet normal -0.5 0 0.866025
    outer loop
      vertex 65.0429 97 19.5
      vertex 33 108 1
      vertex 33 97 1
    endloop
  endfacet
  facet normal -1 0 0
    outer loop
      vertex 65.0429 97 19.5
      vertex 65.0429 108 32
      vertex 65.0429 108 19.5
    endloop
  endfacet
  facet normal -1 -0 0
    outer loop
      vertex 65.0429 108 32
      vertex 65.0429 97 19.5
      vertex 65.0429 97 32
    endloop
  endfacet
  facet normal 0 -1 0
    outer loop
      vertex 0.95706 108 32
      vertex 4.42116 108 21.5
      vertex 4.42116 108 32
    endloop
  endfacet
  facet normal 0 -1 0
    outer loop
      vertex 0.95706 108 19.5
      vertex 4.42116 108 21.5
      vertex 0.95706 108 32
    endloop
  endfacet
  facet normal 0 -1 0
    outer loop
      vertex 0.95706 108 19.5
      vertex 33 108 5
      vertex 4.42116 108 21.5
    endloop
  endfacet
  facet normal -0 -1 -0
    outer loop
      vertex 33 108 5
      vertex 0.95706 108 19.5
      vertex 33 108 1
    endloop
  endfacet
  facet normal 0 -1 0
    outer loop
      vertex 61.5788 108 21.5
      vertex 65.0429 108 32
      vertex 61.5788 108 32
    endloop
  endfacet
  facet normal 0 -1 0
    outer loop
      vertex 61.5788 108 21.5
      vertex 65.0429 108 19.5
      vertex 65.0429 108 32
    endloop
  endfacet
  facet normal 0 -1 0
    outer loop
      vertex 33 108 5
      vertex 65.0429 108 19.5
      vertex 61.5788 108 21.5
    endloop
  endfacet
  facet normal 0 -1 0
    outer loop
      vertex 65.0429 108 19.5
      vertex 33 108 5
      vertex 33 108 1
    endloop
  endfacet
  facet normal 0 1 0
    outer loop
      vertex 65.0429 111.5 32
      vertex 61.5788 111.5 21.5
      vertex 61.5788 111.5 32
    endloop
  endfacet
  facet normal 0 1 -0
    outer loop
      vertex 65.0429 111.5 19.5
      vertex 61.5788 111.5 21.5
      vertex 65.0429 111.5 32
    endloop
  endfacet
  facet normal 0 1 0
    outer loop
      vertex 65.0429 111.5 19.5
      vertex 33 111.5 5
      vertex 61.5788 111.5 21.5
    endloop
  endfacet
  facet normal -0 1 0
    outer loop
      vertex 33 111.5 5
      vertex 65.0429 111.5 19.5
      vertex 33 111.5 1
    endloop
  endfacet
  facet normal 0 1 -0
    outer loop
      vertex 4.42116 111.5 21.5
      vertex 0.95706 111.5 32
      vertex 4.42116 111.5 32
    endloop
  endfacet
  facet normal 0 1 0
    outer loop
      vertex 4.42116 111.5 21.5
      vertex 0.95706 111.5 19.5
      vertex 0.95706 111.5 32
    endloop
  endfacet
  facet normal 0 1 0
    outer loop
      vertex 33 111.5 5
      vertex 0.95706 111.5 19.5
      vertex 4.42116 111.5 21.5
    endloop
  endfacet
  facet normal 0 1 0
    outer loop
      vertex 0.95706 111.5 19.5
      vertex 33 111.5 5
      vertex 33 111.5 1
    endloop
  endfacet
  facet normal 0.5 0 0.866025
    outer loop
      vertex 0.95706 122.5 19.5
      vertex 33 111.5 1
      vertex 33 122.5 1
    endloop
  endfacet
  facet normal 0.5 0 0.866025
    outer loop
      vertex 33 111.5 1
      vertex 0.95706 122.5 19.5
      vertex 0.95706 111.5 19.5
    endloop
  endfacet
  facet normal 1 -0 0
    outer loop
      vertex 0.95706 111.5 32
      vertex 0.95706 122.5 19.5
      vertex 0.95706 122.5 32
    endloop
  endfacet
  facet normal 1 0 0
    outer loop
      vertex 0.95706 122.5 19.5
      vertex 0.95706 111.5 32
      vertex 0.95706 111.5 19.5
    endloop
  endfacet
  facet normal -0.5 0 0.866025
    outer loop
      vertex 33 122.5 1
      vertex 65.0429 111.5 19.5
      vertex 65.0429 122.5 19.5
    endloop
  endfacet
  facet normal -0.5 0 0.866025
    outer loop
      vertex 65.0429 111.5 19.5
      vertex 33 122.5 1
      vertex 33 111.5 1
    endloop
  endfacet
  facet normal -1 0 0
    outer loop
      vertex 65.0429 111.5 19.5
      vertex 65.0429 122.5 32
      vertex 65.0429 122.5 19.5
    endloop
  endfacet
  facet normal -1 -0 0
    outer loop
      vertex 65.0429 122.5 32
      vertex 65.0429 111.5 19.5
      vertex 65.0429 111.5 32
    endloop
  endfacet
  facet normal 0 -1 0
    outer loop
      vertex 0.95706 122.5 32
      vertex 4.42116 122.5 21.5
      vertex 4.42116 122.5 32
    endloop
  endfacet
  facet normal 0 -1 0
    outer loop
      vertex 0.95706 122.5 19.5
      vertex 4.42116 122.5 21.5
      vertex 0.95706 122.5 32
    endloop
  endfacet
  facet normal 0 -1 0
    outer loop
      vertex 0.95706 122.5 19.5
      vertex 33 122.5 5
      vertex 4.42116 122.5 21.5
    endloop
  endfacet
  facet normal -0 -1 -0
    outer loop
      vertex 33 122.5 5
      vertex 0.95706 122.5 19.5
      vertex 33 122.5 1
    endloop
  endfacet
  facet normal 0 -1 0
    outer loop
      vertex 61.5788 122.5 21.5
      vertex 65.0429 122.5 32
      vertex 61.5788 122.5 32
    endloop
  endfacet
  facet normal 0 -1 0
    outer loop
      vertex 61.5788 122.5 21.5
      vertex 65.0429 122.5 19.5
      vertex 65.0429 122.5 32
    endloop
  endfacet
  facet normal 0 -1 0
    outer loop
      vertex 33 122.5 5
      vertex 65.0429 122.5 19.5
      vertex 61.5788 122.5 21.5
    endloop
  endfacet
  facet normal 0 -1 0
    outer loop
      vertex 65.0429 122.5 19.5
      vertex 33 122.5 5
      vertex 33 122.5 1
    endloop
  endfacet
  facet normal 0 1 0
    outer loop
      vertex 65.0429 126 32
      vertex 61.5788 126 21.5
      vertex 61.5788 126 32
    endloop
  endfacet
  facet normal 0 1 -0
    outer loop
      vertex 65.0429 126 19.5
      vertex 61.5788 126 21.5
      vertex 65.0429 126 32
    endloop
  endfacet
  facet normal 0 1 0
    outer loop
      vertex 65.0429 126 19.5
      vertex 33 126 5
      vertex 61.5788 126 21.5
    endloop
  endfacet
  facet normal -0 1 0
    outer loop
      vertex 33 126 5
      vertex 65.0429 126 19.5
      vertex 33 126 1
    endloop
  endfacet
  facet normal 0 1 -0
    outer loop
      vertex 4.42116 126 21.5
      vertex 0.95706 126 32
      vertex 4.42116 126 32
    endloop
  endfacet
  facet normal 0 1 0
    outer loop
      vertex 4.42116 126 21.5
      vertex 0.95706 126 19.5
      vertex 0.95706 126 32
    endloop
  endfacet
  facet normal 0 1 0
    outer loop
      vertex 33 126 5
      vertex 0.95706 126 19.5
      vertex 4.42116 126 21.5
    endloop
  endfacet
  facet normal 0 1 0
    outer loop
      vertex 0.95706 126 19.5
      vertex 33 126 5
      vertex 33 126 1
    endloop
  endfacet
  facet normal 0.5 0 0.866025
    outer loop
      vertex 0.95706 137 19.5
      vertex 33 126 1
      vertex 33 137 1
    endloop
  endfacet
  facet normal 0.5 0 0.866025
    outer loop
      vertex 33 126 1
      vertex 0.95706 137 19.5
      vertex 0.95706 126 19.5
    endloop
  endfacet
  facet normal 1 -0 0
    outer loop
      vertex 0.95706 126 32
      vertex 0.95706 137 19.5
      vertex 0.95706 137 32
    endloop
  endfacet
  facet normal 1 0 0
    outer loop
      vertex 0.95706 137 19.5
      vertex 0.95706 126 32
      vertex 0.95706 126 19.5
    endloop
  endfacet
  facet normal -0.5 0 0.866025
    outer loop
      vertex 33 137 1
      vertex 65.0429 126 19.5
      vertex 65.0429 137 19.5
    endloop
  endfacet
  facet normal -0.5 0 0.866025
    outer loop
      vertex 65.0429 126 19.5
      vertex 33 137 1
      vertex 33 126 1
    endloop
  endfacet
  facet normal -1 0 0
    outer loop
      vertex 65.0429 126 19.5
      vertex 65.0429 137 32
      vertex 65.0429 137 19.5
    endloop
  endfacet
  facet normal -1 -0 0
    outer loop
      vertex 65.0429 137 32
      vertex 65.0429 126 19.5
      vertex 65.0429 126 32
    endloop
  endfacet
  facet normal 0 -1 0
    outer loop
      vertex 0.95706 137 32
      vertex 4.42116 137 21.5
      vertex 4.42116 137 32
    endloop
  endfacet
  facet normal 0 -1 0
    outer loop
      vertex 0.95706 137 19.5
      vertex 4.42116 137 21.5
      vertex 0.95706 137 32
    endloop
  endfacet
  facet normal 0 -1 0
    outer loop
      vertex 0.95706 137 19.5
      vertex 33 137 5
      vertex 4.42116 137 21.5
    endloop
  endfacet
  facet normal -0 -1 -0
    outer loop
      vertex 33 137 5
      vertex 0.95706 137 19.5
      vertex 33 137 1
    endloop
  endfacet
  facet normal 0 -1 0
    outer loop
      vertex 61.5788 137 21.5
      vertex 65.0429 137 32
      vertex 61.5788 137 32
    endloop
  endfacet
  facet normal 0 -1 0
    outer loop
      vertex 61.5788 137 21.5
      vertex 65.0429 137 19.5
      vertex 65.0429 137 32
    endloop
  endfacet
  facet normal 0 -1 0
    outer loop
      vertex 33 137 5
      vertex 65.0429 137 19.5
      vertex 61.5788 137 21.5
    endloop
  endfacet
  facet normal 0 -1 0
    outer loop
      vertex 65.0429 137 19.5
      vertex 33 137 5
      vertex 33 137 1
    endloop
  endfacet
  facet normal 0 1 0
    outer loop
      vertex 65.0429 140.5 32
      vertex 61.5788 140.5 21.5
      vertex 61.5788 140.5 32
    endloop
  endfacet
  facet normal 0 1 -0
    outer loop
      vertex 65.0429 140.5 19.5
      vertex 61.5788 140.5 21.5
      vertex 65.0429 140.5 32
    endloop
  endfacet
  facet normal 0 1 0
    outer loop
      vertex 65.0429 140.5 19.5
      vertex 33 140.5 5
      vertex 61.5788 140.5 21.5
    endloop
  endfacet
  facet normal -0 1 0
    outer loop
      vertex 33 140.5 5
      vertex 65.0429 140.5 19.5
      vertex 33 140.5 1
    endloop
  endfacet
  facet normal 0 1 -0
    outer loop
      vertex 4.42116 140.5 21.5
      vertex 0.95706 140.5 32
      vertex 4.42116 140.5 32
    endloop
  endfacet
  facet normal 0 1 0
    outer loop
      vertex 4.42116 140.5 21.5
      vertex 0.95706 140.5 19.5
      vertex 0.95706 140.5 32
    endloop
  endfacet
  facet normal 0 1 0
    outer loop
      vertex 33 140.5 5
      vertex 0.95706 140.5 19.5
      vertex 4.42116 140.5 21.5
    endloop
  endfacet
  facet normal 0 1 0
    outer loop
      vertex 0.95706 140.5 19.5
      vertex 33 140.5 5
      vertex 33 140.5 1
    endloop
  endfacet
  facet normal 0.5 0 0.866025
    outer loop
      vertex 0.95706 151.5 19.5
      vertex 33 140.5 1
      vertex 33 151.5 1
    endloop
  endfacet
  facet normal 0.5 0 0.866025
    outer loop
      vertex 33 140.5 1
      vertex 0.95706 151.5 19.5
      vertex 0.95706 140.5 19.5
    endloop
  endfacet
  facet normal 1 -0 0
    outer loop
      vertex 0.95706 140.5 32
      vertex 0.95706 151.5 19.5
      vertex 0.95706 151.5 32
    endloop
  endfacet
  facet normal 1 0 0
    outer loop
      vertex 0.95706 151.5 19.5
      vertex 0.95706 140.5 32
      vertex 0.95706 140.5 19.5
    endloop
  endfacet
  facet normal -0.5 0 0.866025
    outer loop
      vertex 33 151.5 1
      vertex 65.0429 140.5 19.5
      vertex 65.0429 151.5 19.5
    endloop
  endfacet
  facet normal -0.5 0 0.866025
    outer loop
      vertex 65.0429 140.5 19.5
      vertex 33 151.5 1
      vertex 33 140.5 1
    endloop
  endfacet
  facet normal -1 0 0
    outer loop
      vertex 65.0429 140.5 19.5
      vertex 65.0429 151.5 32
      vertex 65.0429 151.5 19.5
    endloop
  endfacet
  facet normal -1 -0 0
    outer loop
      vertex 65.0429 151.5 32
      vertex 65.0429 140.5 19.5
      vertex 65.0429 140.5 32
    endloop
  endfacet
  facet normal 0 -1 0
    outer loop
      vertex 0.95706 151.5 32
      vertex 4.42116 151.5 21.5
      vertex 4.42116 151.5 32
    endloop
  endfacet
  facet normal 0 -1 0
    outer loop
      vertex 0.95706 151.5 19.5
      vertex 4.42116 151.5 21.5
      vertex 0.95706 151.5 32
    endloop
  endfacet
  facet normal 0 -1 0
    outer loop
      vertex 0.95706 151.5 19.5
      vertex 33 151.5 5
      vertex 4.42116 151.5 21.5
    endloop
  endfacet
  facet normal -0 -1 -0
    outer loop
      vertex 33 151.5 5
      vertex 0.95706 151.5 19.5
      vertex 33 151.5 1
    endloop
  endfacet
  facet normal 0 -1 0
    outer loop
      vertex 61.5788 151.5 21.5
      vertex 65.0429 151.5 32
      vertex 61.5788 151.5 32
    endloop
  endfacet
  facet normal 0 -1 0
    outer loop
      vertex 61.5788 151.5 21.5
      vertex 65.0429 151.5 19.5
      vertex 65.0429 151.5 32
    endloop
  endfacet
  facet normal 0 -1 0
    outer loop
      vertex 33 151.5 5
      vertex 65.0429 151.5 19.5
      vertex 61.5788 151.5 21.5
    endloop
  endfacet
  facet normal 0 -1 0
    outer loop
      vertex 65.0429 151.5 19.5
      vertex 33 151.5 5
      vertex 33 151.5 1
    endloop
  endfacet
  facet normal 0 1 0
    outer loop
      vertex 65.0429 155 32
      vertex 61.5788 155 21.5
      vertex 61.5788 155 32
    endloop
  endfacet
  facet normal 0 1 -0
    outer loop
      vertex 65.0429 155 19.5
      vertex 61.5788 155 21.5
      vertex 65.0429 155 32
    endloop
  endfacet
  facet normal 0 1 0
    outer loop
      vertex 65.0429 155 19.5
      vertex 33 155 5
      vertex 61.5788 155 21.5
    endloop
  endfacet
  facet normal -0 1 0
    outer loop
      vertex 33 155 5
      vertex 65.0429 155 19.5
      vertex 33 155 1
    endloop
  endfacet
  facet normal 0 1 -0
    outer loop
      vertex 4.42116 155 21.5
      vertex 0.95706 155 32
      vertex 4.42116 155 32
    endloop
  endfacet
  facet normal 0 1 0
    outer loop
      vertex 4.42116 155 21.5
      vertex 0.95706 155 19.5
      vertex 0.95706 155 32
    endloop
  endfacet
  facet normal 0 1 0
    outer loop
      vertex 33 155 5
      vertex 0.95706 155 19.5
      vertex 4.42116 155 21.5
    endloop
  endfacet
  facet normal 0 1 0
    outer loop
      vertex 0.95706 155 19.5
      vertex 33 155 5
      vertex 33 155 1
    endloop
  endfacet
  facet normal 0.5 0 0.866025
    outer loop
      vertex 0.95706 166 19.5
      vertex 33 155 1
      vertex 33 166 1
    endloop
  endfacet
  facet normal 0.5 0 0.866025
    outer loop
      vertex 33 155 1
      vertex 0.95706 166 19.5
      vertex 0.95706 155 19.5
    endloop
  endfacet
  facet normal 1 -0 0
    outer loop
      vertex 0.95706 155 32
      vertex 0.95706 166 19.5
      vertex 0.95706 166 32
    endloop
  endfacet
  facet normal 1 0 0
    outer loop
      vertex 0.95706 166 19.5
      vertex 0.95706 155 32
      vertex 0.95706 155 19.5
    endloop
  endfacet
  facet normal -0.5 0 0.866025
    outer loop
      vertex 33 166 1
      vertex 65.0429 155 19.5
      vertex 65.0429 166 19.5
    endloop
  endfacet
  facet normal -0.5 0 0.866025
    outer loop
      vertex 65.0429 155 19.5
      vertex 33 166 1
      vertex 33 155 1
    endloop
  endfacet
  facet normal -1 0 0
    outer loop
      vertex 65.0429 155 19.5
      vertex 65.0429 166 32
      vertex 65.0429 166 19.5
    endloop
  endfacet
  facet normal -1 -0 0
    outer loop
      vertex 65.0429 166 32
      vertex 65.0429 155 19.5
      vertex 65.0429 155 32
    endloop
  endfacet
  facet normal 0 -1 0
    outer loop
      vertex 0.95706 166 32
      vertex 4.42116 166 21.5
      vertex 4.42116 166 32
    endloop
  endfacet
  facet normal 0 -1 0
    outer loop
      vertex 0.95706 166 19.5
      vertex 4.42116 166 21.5
      vertex 0.95706 166 32
    endloop
  endfacet
  facet normal 0 -1 0
    outer loop
      vertex 0.95706 166 19.5
      vertex 33 166 5
      vertex 4.42116 166 21.5
    endloop
  endfacet
  facet normal -0 -1 -0
    outer loop
      vertex 33 166 5
      vertex 0.95706 166 19.5
      vertex 33 166 1
    endloop
  endfacet
  facet normal 0 -1 0
    outer loop
      vertex 61.5788 166 21.5
      vertex 65.0429 166 32
      vertex 61.5788 166 32
    endloop
  endfacet
  facet normal 0 -1 0
    outer loop
      vertex 61.5788 166 21.5
      vertex 65.0429 166 19.5
      vertex 65.0429 166 32
    endloop
  endfacet
  facet normal 0 -1 0
    outer loop
      vertex 33 166 5
      vertex 65.0429 166 19.5
      vertex 61.5788 166 21.5
    endloop
  endfacet
  facet normal 0 -1 0
    outer loop
      vertex 65.0429 166 19.5
      vertex 33 166 5
      vertex 33 166 1
    endloop
  endfacet
  facet normal 0 1 0
    outer loop
      vertex 65.0429 169.5 32
      vertex 61.5788 169.5 21.5
      vertex 61.5788 169.5 32
    endloop
  endfacet
  facet normal 0 1 -0
    outer loop
      vertex 65.0429 169.5 19.5
      vertex 61.5788 169.5 21.5
      vertex 65.0429 169.5 32
    endloop
  endfacet
  facet normal 0 1 0
    outer loop
      vertex 65.0429 169.5 19.5
      vertex 33 169.5 5
      vertex 61.5788 169.5 21.5
    endloop
  endfacet
  facet normal -0 1 0
    outer loop
      vertex 33 169.5 5
      vertex 65.0429 169.5 19.5
      vertex 33 169.5 1
    endloop
  endfacet
  facet normal 0 1 -0
    outer loop
      vertex 4.42116 169.5 21.5
      vertex 0.95706 169.5 32
      vertex 4.42116 169.5 32
    endloop
  endfacet
  facet normal 0 1 0
    outer loop
      vertex 4.42116 169.5 21.5
      vertex 0.95706 169.5 19.5
      vertex 0.95706 169.5 32
    endloop
  endfacet
  facet normal 0 1 0
    outer loop
      vertex 33 169.5 5
      vertex 0.95706 169.5 19.5
      vertex 4.42116 169.5 21.5
    endloop
  endfacet
  facet normal 0 1 0
    outer loop
      vertex 0.95706 169.5 19.5
      vertex 33 169.5 5
      vertex 33 169.5 1
    endloop
  endfacet
  facet normal 0.5 0 0.866025
    outer loop
      vertex 0.95706 180.5 19.5
      vertex 33 169.5 1
      vertex 33 180.5 1
    endloop
  endfacet
  facet normal 0.5 0 0.866025
    outer loop
      vertex 33 169.5 1
      vertex 0.95706 180.5 19.5
      vertex 0.95706 169.5 19.5
    endloop
  endfacet
  facet normal 1 -0 0
    outer loop
      vertex 0.95706 169.5 32
      vertex 0.95706 180.5 19.5
      vertex 0.95706 180.5 32
    endloop
  endfacet
  facet normal 1 0 0
    outer loop
      vertex 0.95706 180.5 19.5
      vertex 0.95706 169.5 32
      vertex 0.95706 169.5 19.5
    endloop
  endfacet
  facet normal -0.5 0 0.866025
    outer loop
      vertex 33 180.5 1
      vertex 65.0429 169.5 19.5
      vertex 65.0429 180.5 19.5
    endloop
  endfacet
  facet normal -0.5 0 0.866025
    outer loop
      vertex 65.0429 169.5 19.5
      vertex 33 180.5 1
      vertex 33 169.5 1
    endloop
  endfacet
  facet normal -1 0 0
    outer loop
      vertex 65.0429 169.5 19.5
      vertex 65.0429 180.5 32
      vertex 65.0429 180.5 19.5
    endloop
  endfacet
  facet normal -1 -0 0
    outer loop
      vertex 65.0429 180.5 32
      vertex 65.0429 169.5 19.5
      vertex 65.0429 169.5 32
    endloop
  endfacet
  facet normal 0 -1 0
    outer loop
      vertex 0.95706 180.5 32
      vertex 4.42116 180.5 21.5
      vertex 4.42116 180.5 32
    endloop
  endfacet
  facet normal 0 -1 0
    outer loop
      vertex 0.95706 180.5 19.5
      vertex 4.42116 180.5 21.5
      vertex 0.95706 180.5 32
    endloop
  endfacet
  facet normal 0 -1 0
    outer loop
      vertex 0.95706 180.5 19.5
      vertex 33 180.5 5
      vertex 4.42116 180.5 21.5
    endloop
  endfacet
  facet normal -0 -1 -0
    outer loop
      vertex 33 180.5 5
      vertex 0.95706 180.5 19.5
      vertex 33 180.5 1
    endloop
  endfacet
  facet normal 0 -1 0
    outer loop
      vertex 61.5788 180.5 21.5
      vertex 65.0429 180.5 32
      vertex 61.5788 180.5 32
    endloop
  endfacet
  facet normal 0 -1 0
    outer loop
      vertex 61.5788 180.5 21.5
      vertex 65.0429 180.5 19.5
      vertex 65.0429 180.5 32
    endloop
  endfacet
  facet normal 0 -1 0
    outer loop
      vertex 33 180.5 5
      vertex 65.0429 180.5 19.5
      vertex 61.5788 180.5 21.5
    endloop
  endfacet
  facet normal 0 -1 0
    outer loop
      vertex 65.0429 180.5 19.5
      vertex 33 180.5 5
      vertex 33 180.5 1
    endloop
  endfacet
  facet normal 0 1 0
    outer loop
      vertex 65.0429 184 32
      vertex 61.5788 184 21.5
      vertex 61.5788 184 32
    endloop
  endfacet
  facet normal 0 1 -0
    outer loop
      vertex 65.0429 184 19.5
      vertex 61.5788 184 21.5
      vertex 65.0429 184 32
    endloop
  endfacet
  facet normal 0 1 0
    outer loop
      vertex 65.0429 184 19.5
      vertex 33 184 5
      vertex 61.5788 184 21.5
    endloop
  endfacet
  facet normal -0 1 0
    outer loop
      vertex 33 184 5
      vertex 65.0429 184 19.5
      vertex 33 184 1
    endloop
  endfacet
  facet normal 0 1 -0
    outer loop
      vertex 4.42116 184 21.5
      vertex 0.95706 184 32
      vertex 4.42116 184 32
    endloop
  endfacet
  facet normal 0 1 0
    outer loop
      vertex 4.42116 184 21.5
      vertex 0.95706 184 19.5
      vertex 0.95706 184 32
    endloop
  endfacet
  facet normal 0 1 0
    outer loop
      vertex 33 184 5
      vertex 0.95706 184 19.5
      vertex 4.42116 184 21.5
    endloop
  endfacet
  facet normal 0 1 0
    outer loop
      vertex 0.95706 184 19.5
      vertex 33 184 5
      vertex 33 184 1
    endloop
  endfacet
  facet normal 0.5 0 0.866025
    outer loop
      vertex 0.95706 189.5 19.5
      vertex 33 184 1
      vertex 33 189.5 1
    endloop
  endfacet
  facet normal 0.5 0 0.866025
    outer loop
      vertex 33 184 1
      vertex 0.95706 189.5 19.5
      vertex 0.95706 184 19.5
    endloop
  endfacet
  facet normal 1 -0 0
    outer loop
      vertex 0.95706 184 32
      vertex 0.95706 189.5 19.5
      vertex 0.95706 189.5 32
    endloop
  endfacet
  facet normal 1 0 0
    outer loop
      vertex 0.95706 189.5 19.5
      vertex 0.95706 184 32
      vertex 0.95706 184 19.5
    endloop
  endfacet
  facet normal 0 -1 0
    outer loop
      vertex 0.95706 189.5 32
      vertex 4.42116 189.5 21.5
      vertex 4.42116 189.5 32
    endloop
  endfacet
  facet normal 0 -1 0
    outer loop
      vertex 0.95706 189.5 19.5
      vertex 4.42116 189.5 21.5
      vertex 0.95706 189.5 32
    endloop
  endfacet
  facet normal 0 -1 0
    outer loop
      vertex 0.95706 189.5 19.5
      vertex 33 189.5 5
      vertex 4.42116 189.5 21.5
    endloop
  endfacet
  facet normal -0 -1 -0
    outer loop
      vertex 33 189.5 5
      vertex 0.95706 189.5 19.5
      vertex 33 189.5 1
    endloop
  endfacet
  facet normal 0 -1 0
    outer loop
      vertex 61.5788 189.5 21.5
      vertex 65.0429 189.5 32
      vertex 61.5788 189.5 32
    endloop
  endfacet
  facet normal 0 -1 0
    outer loop
      vertex 61.5788 189.5 21.5
      vertex 65.0429 189.5 19.5
      vertex 65.0429 189.5 32
    endloop
  endfacet
  facet normal 0 -1 0
    outer loop
      vertex 33 189.5 5
      vertex 65.0429 189.5 19.5
      vertex 61.5788 189.5 21.5
    endloop
  endfacet
  facet normal 0 -1 0
    outer loop
      vertex 65.0429 189.5 19.5
      vertex 33 189.5 5
      vertex 33 189.5 1
    endloop
  endfacet
  facet normal -0.5 0 0.866025
    outer loop
      vertex 33 189.5 1
      vertex 65.0429 184 19.5
      vertex 65.0429 189.5 19.5
    endloop
  endfacet
  facet normal -0.5 0 0.866025
    outer loop
      vertex 65.0429 184 19.5
      vertex 33 189.5 1
      vertex 33 184 1
    endloop
  endfacet
  facet normal -1 0 0
    outer loop
      vertex 65.0429 184 19.5
      vertex 65.0429 189.5 32
      vertex 65.0429 189.5 19.5
    endloop
  endfacet
  facet normal -1 -0 0
    outer loop
      vertex 65.0429 189.5 32
      vertex 65.0429 184 19.5
      vertex 65.0429 184 32
    endloop
  endfacet
  facet normal -1 0 0
    outer loop
      vertex 0 0 0
      vertex 0 190.5 32
      vertex 0 190.5 0
    endloop
  endfacet
  facet normal -1 -0 0
    outer loop
      vertex 0 190.5 32
      vertex 0 0 0
      vertex 0 0 32
    endloop
  endfacet
  facet normal -0 0 1
    outer loop
      vertex 61.5788 10 32
      vertex 65.0429 6.5 32
      vertex 65.0429 10 32
    endloop
  endfacet
  facet normal 0 0 1
    outer loop
      vertex 65.0429 6.5 32
      vertex 61.5788 10 32
      vertex 61.5788 6.5 32
    endloop
  endfacet
  facet normal -0 0 1
    outer loop
      vertex 61.5788 24.5 32
      vertex 65.0429 21 32
      vertex 65.0429 24.5 32
    endloop
  endfacet
  facet normal 0 0 1
    outer loop
      vertex 65.0429 21 32
      vertex 61.5788 24.5 32
      vertex 61.5788 21 32
    endloop
  endfacet
  facet normal -0 0 1
    outer loop
      vertex 61.5788 39 32
      vertex 65.0429 35.5 32
      vertex 65.0429 39 32
    endloop
  endfacet
  facet normal 0 0 1
    outer loop
      vertex 65.0429 35.5 32
      vertex 61.5788 39 32
      vertex 61.5788 35.5 32
    endloop
  endfacet
  facet normal -0 0 1
    outer loop
      vertex 61.5788 53.5 32
      vertex 65.0429 50 32
      vertex 65.0429 53.5 32
    endloop
  endfacet
  facet normal 0 0 1
    outer loop
      vertex 65.0429 50 32
      vertex 61.5788 53.5 32
      vertex 61.5788 50 32
    endloop
  endfacet
  facet normal -0 0 1
    outer loop
      vertex 61.5788 68 32
      vertex 65.0429 64.5 32
      vertex 65.0429 68 32
    endloop
  endfacet
  facet normal 0 0 1
    outer loop
      vertex 65.0429 64.5 32
      vertex 61.5788 68 32
      vertex 61.5788 64.5 32
    endloop
  endfacet
  facet normal -0 0 1
    outer loop
      vertex 61.5788 82.5 32
      vertex 65.0429 79 32
      vertex 65.0429 82.5 32
    endloop
  endfacet
  facet normal 0 0 1
    outer loop
      vertex 65.0429 79 32
      vertex 61.5788 82.5 32
      vertex 61.5788 79 32
    endloop
  endfacet
  facet normal -0 0 1
    outer loop
      vertex 61.5788 97 32
      vertex 65.0429 93.5 32
      vertex 65.0429 97 32
    endloop
  endfacet
  facet normal 0 0 1
    outer loop
      vertex 65.0429 93.5 32
      vertex 61.5788 97 32
      vertex 61.5788 93.5 32
    endloop
  endfacet
  facet normal -0 0 1
    outer loop
      vertex 61.5788 111.5 32
      vertex 65.0429 108 32
      vertex 65.0429 111.5 32
    endloop
  endfacet
  facet normal 0 0 1
    outer loop
      vertex 65.0429 108 32
      vertex 61.5788 111.5 32
      vertex 61.5788 108 32
    endloop
  endfacet
  facet normal -0 0 1
    outer loop
      vertex 61.5788 126 32
      vertex 65.0429 122.5 32
      vertex 65.0429 126 32
    endloop
  endfacet
  facet normal 0 0 1
    outer loop
      vertex 65.0429 122.5 32
      vertex 61.5788 126 32
      vertex 61.5788 122.5 32
    endloop
  endfacet
  facet normal -0 0 1
    outer loop
      vertex 61.5788 140.5 32
      vertex 65.0429 137 32
      vertex 65.0429 140.5 32
    endloop
  endfacet
  facet normal 0 0 1
    outer loop
      vertex 65.0429 137 32
      vertex 61.5788 140.5 32
      vertex 61.5788 137 32
    endloop
  endfacet
  facet normal -0 0 1
    outer loop
      vertex 61.5788 155 32
      vertex 65.0429 151.5 32
      vertex 65.0429 155 32
    endloop
  endfacet
  facet normal 0 0 1
    outer loop
      vertex 65.0429 151.5 32
      vertex 61.5788 155 32
      vertex 61.5788 151.5 32
    endloop
  endfacet
  facet normal -0 0 1
    outer loop
      vertex 61.5788 169.5 32
      vertex 65.0429 166 32
      vertex 65.0429 169.5 32
    endloop
  endfacet
  facet normal 0 0 1
    outer loop
      vertex 65.0429 166 32
      vertex 61.5788 169.5 32
      vertex 61.5788 166 32
    endloop
  endfacet
  facet normal -0 0 1
    outer loop
      vertex 61.5788 184 32
      vertex 65.0429 180.5 32
      vertex 65.0429 184 32
    endloop
  endfacet
  facet normal 0 0 1
    outer loop
      vertex 65.0429 180.5 32
      vertex 61.5788 184 32
      vertex 61.5788 180.5 32
    endloop
  endfacet
  facet normal 0 0 1
    outer loop
      vertex 65.0429 184 32
      vertex 66 190.5 32
      vertex 65.0429 189.5 32
    endloop
  endfacet
  facet normal -0 0 1
    outer loop
      vertex 61.5788 190.5 32
      vertex 65.0429 189.5 32
      vertex 66 190.5 32
    endloop
  endfacet
  facet normal 0 0 1
    outer loop
      vertex 65.0429 189.5 32
      vertex 61.5788 190.5 32
      vertex 61.5788 189.5 32
    endloop
  endfacet
  facet normal 0 0 1
    outer loop
      vertex 65.0429 180.5 32
      vertex 66 190.5 32
      vertex 65.0429 184 32
    endloop
  endfacet
  facet normal 0 0 1
    outer loop
      vertex 65.0429 169.5 32
      vertex 66 190.5 32
      vertex 65.0429 180.5 32
    endloop
  endfacet
  facet normal 0 0 1
    outer loop
      vertex 65.0429 166 32
      vertex 66 190.5 32
      vertex 65.0429 169.5 32
    endloop
  endfacet
  facet normal 0 0 1
    outer loop
      vertex 65.0429 155 32
      vertex 66 190.5 32
      vertex 65.0429 166 32
    endloop
  endfacet
  facet normal 0 0 1
    outer loop
      vertex 65.0429 151.5 32
      vertex 66 190.5 32
      vertex 65.0429 155 32
    endloop
  endfacet
  facet normal 0 0 1
    outer loop
      vertex 65.0429 140.5 32
      vertex 66 190.5 32
      vertex 65.0429 151.5 32
    endloop
  endfacet
  facet normal 0 0 1
    outer loop
      vertex 65.0429 137 32
      vertex 66 190.5 32
      vertex 65.0429 140.5 32
    endloop
  endfacet
  facet normal 0 0 1
    outer loop
      vertex 65.0429 126 32
      vertex 66 190.5 32
      vertex 65.0429 137 32
    endloop
  endfacet
  facet normal 0 0 1
    outer loop
      vertex 66 190.5 32
      vertex 65.0429 126 32
      vertex 66 0 32
    endloop
  endfacet
  facet normal -0 0 1
    outer loop
      vertex 65.0429 122.5 32
      vertex 66 0 32
      vertex 65.0429 126 32
    endloop
  endfacet
  facet normal -0 0 1
    outer loop
      vertex 65.0429 111.5 32
      vertex 66 0 32
      vertex 65.0429 122.5 32
    endloop
  endfacet
  facet normal -0 0 1
    outer loop
      vertex 65.0429 108 32
      vertex 66 0 32
      vertex 65.0429 111.5 32
    endloop
  endfacet
  facet normal -0 0 1
    outer loop
      vertex 65.0429 97 32
      vertex 66 0 32
      vertex 65.0429 108 32
    endloop
  endfacet
  facet normal -0 0 1
    outer loop
      vertex 65.0429 93.5 32
      vertex 66 0 32
      vertex 65.0429 97 32
    endloop
  endfacet
  facet normal -0 0 1
    outer loop
      vertex 65.0429 82.5 32
      vertex 66 0 32
      vertex 65.0429 93.5 32
    endloop
  endfacet
  facet normal -0 0 1
    outer loop
      vertex 65.0429 79 32
      vertex 66 0 32
      vertex 65.0429 82.5 32
    endloop
  endfacet
  facet normal -0 0 1
    outer loop
      vertex 65.0429 68 32
      vertex 66 0 32
      vertex 65.0429 79 32
    endloop
  endfacet
  facet normal -0 0 1
    outer loop
      vertex 65.0429 64.5 32
      vertex 66 0 32
      vertex 65.0429 68 32
    endloop
  endfacet
  facet normal -0 0 1
    outer loop
      vertex 65.0429 53.5 32
      vertex 66 0 32
      vertex 65.0429 64.5 32
    endloop
  endfacet
  facet normal -0 0 1
    outer loop
      vertex 65.0429 50 32
      vertex 66 0 32
      vertex 65.0429 53.5 32
    endloop
  endfacet
  facet normal -0 0 1
    outer loop
      vertex 65.0429 39 32
      vertex 66 0 32
      vertex 65.0429 50 32
    endloop
  endfacet
  facet normal -0 0 1
    outer loop
      vertex 65.0429 35.5 32
      vertex 66 0 32
      vertex 65.0429 39 32
    endloop
  endfacet
  facet normal -0 0 1
    outer loop
      vertex 65.0429 24.5 32
      vertex 66 0 32
      vertex 65.0429 35.5 32
    endloop
  endfacet
  facet normal -0 0 1
    outer loop
      vertex 65.0429 21 32
      vertex 66 0 32
      vertex 65.0429 24.5 32
    endloop
  endfacet
  facet normal -0 0 1
    outer loop
      vertex 65.0429 10 32
      vertex 66 0 32
      vertex 65.0429 21 32
    endloop
  endfacet
  facet normal -0 0 1
    outer loop
      vertex 65.0429 6.5 32
      vertex 66 0 32
      vertex 65.0429 10 32
    endloop
  endfacet
  facet normal -0 0 1
    outer loop
      vertex 65.0429 1 32
      vertex 66 0 32
      vertex 65.0429 6.5 32
    endloop
  endfacet
  facet normal 0 0 1
    outer loop
      vertex 61.5788 0 32
      vertex 65.0429 1 32
      vertex 61.5788 1 32
    endloop
  endfacet
  facet normal 0 0 1
    outer loop
      vertex 65.0429 1 32
      vertex 61.5788 0 32
      vertex 66 0 32
    endloop
  endfacet
  facet normal 0 0 1
    outer loop
      vertex 4.42116 190.5 32
      vertex 0.95706 189.5 32
      vertex 4.42116 189.5 32
    endloop
  endfacet
  facet normal 0 0 1
    outer loop
      vertex 0 190.5 32
      vertex 0.95706 184 32
      vertex 0.95706 189.5 32
    endloop
  endfacet
  facet normal 0 0 1
    outer loop
      vertex 0.95706 184 32
      vertex 0 190.5 32
      vertex 0.95706 180.5 32
    endloop
  endfacet
  facet normal 0 0 1
    outer loop
      vertex 0.95706 180.5 32
      vertex 0 190.5 32
      vertex 0.95706 169.5 32
    endloop
  endfacet
  facet normal 0 0 1
    outer loop
      vertex 0.95706 169.5 32
      vertex 0 190.5 32
      vertex 0.95706 166 32
    endloop
  endfacet
  facet normal 0 0 1
    outer loop
      vertex 0.95706 166 32
      vertex 0 190.5 32
      vertex 0.95706 155 32
    endloop
  endfacet
  facet normal 0 0 1
    outer loop
      vertex 0.95706 155 32
      vertex 0 190.5 32
      vertex 0.95706 151.5 32
    endloop
  endfacet
  facet normal 0 0 1
    outer loop
      vertex 0.95706 151.5 32
      vertex 0 190.5 32
      vertex 0.95706 140.5 32
    endloop
  endfacet
  facet normal 0 0 1
    outer loop
      vertex 0.95706 140.5 32
      vertex 0 190.5 32
      vertex 0.95706 137 32
    endloop
  endfacet
  facet normal 0 0 1
    outer loop
      vertex 0.95706 137 32
      vertex 0 190.5 32
      vertex 0.95706 126 32
    endloop
  endfacet
  facet normal 0 0 1
    outer loop
      vertex 0.95706 126 32
      vertex 0 190.5 32
      vertex 0.95706 122.5 32
    endloop
  endfacet
  facet normal 0 0 1
    outer loop
      vertex 0.95706 122.5 32
      vertex 0 190.5 32
      vertex 0.95706 111.5 32
    endloop
  endfacet
  facet normal 0 0 1
    outer loop
      vertex 0.95706 111.5 32
      vertex 0 190.5 32
      vertex 0.95706 108 32
    endloop
  endfacet
  facet normal 0 0 1
    outer loop
      vertex 0.95706 108 32
      vertex 0 190.5 32
      vertex 0.95706 97 32
    endloop
  endfacet
  facet normal 0 0 1
    outer loop
      vertex 0.95706 97 32
      vertex 0 190.5 32
      vertex 0.95706 93.5 32
    endloop
  endfacet
  facet normal 0 0 1
    outer loop
      vertex 0.95706 93.5 32
      vertex 0 190.5 32
      vertex 0.95706 82.5 32
    endloop
  endfacet
  facet normal 0 0 1
    outer loop
      vertex 0.95706 82.5 32
      vertex 0 190.5 32
      vertex 0.95706 79 32
    endloop
  endfacet
  facet normal 0 0 1
    outer loop
      vertex 0.95706 79 32
      vertex 0 190.5 32
      vertex 0.95706 68 32
    endloop
  endfacet
  facet normal 0 0 1
    outer loop
      vertex 0.95706 68 32
      vertex 0 190.5 32
      vertex 0.95706 64.5 32
    endloop
  endfacet
  facet normal 0 0 1
    outer loop
      vertex 0 0 32
      vertex 0.95706 64.5 32
      vertex 0 190.5 32
    endloop
  endfacet
  facet normal 0 0 1
    outer loop
      vertex 0.95706 64.5 32
      vertex 0 0 32
      vertex 0.95706 53.5 32
    endloop
  endfacet
  facet normal 0 0 1
    outer loop
      vertex 0.95706 53.5 32
      vertex 0 0 32
      vertex 0.95706 50 32
    endloop
  endfacet
  facet normal 0 0 1
    outer loop
      vertex 0.95706 50 32
      vertex 0 0 32
      vertex 0.95706 39 32
    endloop
  endfacet
  facet normal 0 0 1
    outer loop
      vertex 0.95706 39 32
      vertex 0 0 32
      vertex 0.95706 35.5 32
    endloop
  endfacet
  facet normal 0 0 1
    outer loop
      vertex 0.95706 35.5 32
      vertex 0 0 32
      vertex 0.95706 24.5 32
    endloop
  endfacet
  facet normal 0 0 1
    outer loop
      vertex 0.95706 24.5 32
      vertex 0 0 32
      vertex 0.95706 21 32
    endloop
  endfacet
  facet normal 0 0 1
    outer loop
      vertex 0.95706 21 32
      vertex 0 0 32
      vertex 0.95706 10 32
    endloop
  endfacet
  facet normal 0 0 1
    outer loop
      vertex 0.95706 10 32
      vertex 0 0 32
      vertex 0.95706 6.5 32
    endloop
  endfacet
  facet normal -0 0 1
    outer loop
      vertex 0 190.5 32
      vertex 0.95706 189.5 32
      vertex 4.42116 190.5 32
    endloop
  endfacet
  facet normal -0 0 1
    outer loop
      vertex 0.95706 184 32
      vertex 4.42116 180.5 32
      vertex 4.42116 184 32
    endloop
  endfacet
  facet normal 0 0 1
    outer loop
      vertex 4.42116 180.5 32
      vertex 0.95706 184 32
      vertex 0.95706 180.5 32
    endloop
  endfacet
  facet normal -0 0 1
    outer loop
      vertex 0.95706 169.5 32
      vertex 4.42116 166 32
      vertex 4.42116 169.5 32
    endloop
  endfacet
  facet normal 0 0 1
    outer loop
      vertex 4.42116 166 32
      vertex 0.95706 169.5 32
      vertex 0.95706 166 32
    endloop
  endfacet
  facet normal -0 0 1
    outer loop
      vertex 0.95706 155 32
      vertex 4.42116 151.5 32
      vertex 4.42116 155 32
    endloop
  endfacet
  facet normal 0 0 1
    outer loop
      vertex 4.42116 151.5 32
      vertex 0.95706 155 32
      vertex 0.95706 151.5 32
    endloop
  endfacet
  facet normal -0 0 1
    outer loop
      vertex 0.95706 140.5 32
      vertex 4.42116 137 32
      vertex 4.42116 140.5 32
    endloop
  endfacet
  facet normal 0 0 1
    outer loop
      vertex 4.42116 137 32
      vertex 0.95706 140.5 32
      vertex 0.95706 137 32
    endloop
  endfacet
  facet normal -0 0 1
    outer loop
      vertex 0.95706 126 32
      vertex 4.42116 122.5 32
      vertex 4.42116 126 32
    endloop
  endfacet
  facet normal 0 0 1
    outer loop
      vertex 4.42116 122.5 32
      vertex 0.95706 126 32
      vertex 0.95706 122.5 32
    endloop
  endfacet
  facet normal -0 0 1
    outer loop
      vertex 0.95706 111.5 32
      vertex 4.42116 108 32
      vertex 4.42116 111.5 32
    endloop
  endfacet
  facet normal 0 0 1
    outer loop
      vertex 4.42116 108 32
      vertex 0.95706 111.5 32
      vertex 0.95706 108 32
    endloop
  endfacet
  facet normal -0 0 1
    outer loop
      vertex 0.95706 97 32
      vertex 4.42116 93.5 32
      vertex 4.42116 97 32
    endloop
  endfacet
  facet normal 0 0 1
    outer loop
      vertex 4.42116 93.5 32
      vertex 0.95706 97 32
      vertex 0.95706 93.5 32
    endloop
  endfacet
  facet normal -0 0 1
    outer loop
      vertex 0.95706 82.5 32
      vertex 4.42116 79 32
      vertex 4.42116 82.5 32
    endloop
  endfacet
  facet normal 0 0 1
    outer loop
      vertex 4.42116 79 32
      vertex 0.95706 82.5 32
      vertex 0.95706 79 32
    endloop
  endfacet
  facet normal -0 0 1
    outer loop
      vertex 0.95706 68 32
      vertex 4.42116 64.5 32
      vertex 4.42116 68 32
    endloop
  endfacet
  facet normal 0 0 1
    outer loop
      vertex 4.42116 64.5 32
      vertex 0.95706 68 32
      vertex 0.95706 64.5 32
    endloop
  endfacet
  facet normal -0 0 1
    outer loop
      vertex 0.95706 53.5 32
      vertex 4.42116 50 32
      vertex 4.42116 53.5 32
    endloop
  endfacet
  facet normal 0 0 1
    outer loop
      vertex 4.42116 50 32
      vertex 0.95706 53.5 32
      vertex 0.95706 50 32
    endloop
  endfacet
  facet normal -0 0 1
    outer loop
      vertex 0.95706 39 32
      vertex 4.42116 35.5 32
      vertex 4.42116 39 32
    endloop
  endfacet
  facet normal 0 0 1
    outer loop
      vertex 4.42116 35.5 32
      vertex 0.95706 39 32
      vertex 0.95706 35.5 32
    endloop
  endfacet
  facet normal -0 0 1
    outer loop
      vertex 0.95706 24.5 32
      vertex 4.42116 21 32
      vertex 4.42116 24.5 32
    endloop
  endfacet
  facet normal 0 0 1
    outer loop
      vertex 4.42116 21 32
      vertex 0.95706 24.5 32
      vertex 0.95706 21 32
    endloop
  endfacet
  facet normal -0 0 1
    outer loop
      vertex 0.95706 10 32
      vertex 4.42116 6.5 32
      vertex 4.42116 10 32
    endloop
  endfacet
  facet normal 0 0 1
    outer loop
      vertex 4.42116 6.5 32
      vertex 0.95706 10 32
      vertex 0.95706 6.5 32
    endloop
  endfacet
  facet normal -0 0 1
    outer loop
      vertex 0.95706 1 32
      vertex 4.42116 0 32
      vertex 4.42116 1 32
    endloop
  endfacet
  facet normal 0 0 1
    outer loop
      vertex 0.95706 1 32
      vertex 0 0 32
      vertex 4.42116 0 32
    endloop
  endfacet
  facet normal 0 0 1
    outer loop
      vertex 0.95706 6.5 32
      vertex 0 0 32
      vertex 0.95706 1 32
    endloop
  endfacet
  facet normal 1 -0 0
    outer loop
      vertex 66 0 32
      vertex 66 190.5 0
      vertex 66 190.5 32
    endloop
  endfacet
  facet normal 1 0 0
    outer loop
      vertex 66 190.5 0
      vertex 66 0 32
      vertex 66 0 0
    endloop
  endfacet
  facet normal 0 1 0
    outer loop
      vertex 66 190.5 32
      vertex 61.5788 190.5 21.5
      vertex 61.5788 190.5 32
    endloop
  endfacet
  facet normal 0 1 0
    outer loop
      vertex 61.5788 190.5 21.5
      vertex 66 190.5 0
      vertex 33 190.5 5
    endloop
  endfacet
  facet normal 0 1 -0
    outer loop
      vertex 66 190.5 0
      vertex 61.5788 190.5 21.5
      vertex 66 190.5 32
    endloop
  endfacet
  facet normal 0 1 -0
    outer loop
      vertex 4.42116 190.5 21.5
      vertex 0 190.5 32
      vertex 4.42116 190.5 32
    endloop
  endfacet
  facet normal 0 1 0
    outer loop
      vertex 4.42116 190.5 21.5
      vertex 0 190.5 0
      vertex 0 190.5 32
    endloop
  endfacet
  facet normal 0 1 0
    outer loop
      vertex 33 190.5 5
      vertex 0 190.5 0
      vertex 4.42116 190.5 21.5
    endloop
  endfacet
  facet normal 0 1 0
    outer loop
      vertex 0 190.5 0
      vertex 33 190.5 5
      vertex 66 190.5 0
    endloop
  endfacet
  facet normal 0 0 -1
    outer loop
      vertex 0 0 0
      vertex 66 190.5 0
      vertex 66 0 0
    endloop
  endfacet
  facet normal -0 0 -1
    outer loop
      vertex 66 190.5 0
      vertex 0 0 0
      vertex 0 190.5 0
    endloop
  endfacet
  facet normal 0 -1 0
    outer loop
      vertex 0 0 32
      vertex 4.42116 0 21.5
      vertex 4.42116 0 32
    endloop
  endfacet
  facet normal 0 -1 -0
    outer loop
      vertex 4.42116 0 21.5
      vertex 0 0 0
      vertex 33 0 5
    endloop
  endfacet
  facet normal 0 -1 0
    outer loop
      vertex 0 0 0
      vertex 4.42116 0 21.5
      vertex 0 0 32
    endloop
  endfacet
  facet normal 0 -1 0
    outer loop
      vertex 61.5788 0 21.5
      vertex 66 0 32
      vertex 61.5788 0 32
    endloop
  endfacet
  facet normal 0 -1 0
    outer loop
      vertex 61.5788 0 21.5
      vertex 66 0 0
      vertex 66 0 32
    endloop
  endfacet
  facet normal 0 -1 0
    outer loop
      vertex 33 0 5
      vertex 66 0 0
      vertex 61.5788 0 21.5
    endloop
  endfacet
  facet normal 0 -1 0
    outer loop
      vertex 66 0 0
      vertex 33 0 5
      vertex 0 0 0
    endloop
  endfacet
  facet normal 0.5 0 0.866025
    outer loop
      vertex 4.42116 1 21.5
      vertex 33 0 5
      vertex 33 1 5
    endloop
  endfacet
  facet normal 0.5 0 0.866025
    outer loop
      vertex 33 0 5
      vertex 4.42116 1 21.5
      vertex 4.42116 0 21.5
    endloop
  endfacet
  facet normal 0.5 0 0.866025
    outer loop
      vertex 4.42116 190.5 21.5
      vertex 33 189.5 5
      vertex 33 190.5 5
    endloop
  endfacet
  facet normal 0.5 0 0.866025
    outer loop
      vertex 33 189.5 5
      vertex 4.42116 190.5 21.5
      vertex 4.42116 189.5 21.5
    endloop
  endfacet
  facet normal 0.5 0 0.866025
    outer loop
      vertex 4.42116 10 21.5
      vertex 33 6.5 5
      vertex 33 10 5
    endloop
  endfacet
  facet normal 0.5 0 0.866025
    outer loop
      vertex 33 6.5 5
      vertex 4.42116 10 21.5
      vertex 4.42116 6.5 21.5
    endloop
  endfacet
  facet normal 0.5 0 0.866025
    outer loop
      vertex 4.42116 24.5 21.5
      vertex 33 21 5
      vertex 33 24.5 5
    endloop
  endfacet
  facet normal 0.5 0 0.866025
    outer loop
      vertex 33 21 5
      vertex 4.42116 24.5 21.5
      vertex 4.42116 21 21.5
    endloop
  endfacet
  facet normal 0.5 0 0.866025
    outer loop
      vertex 4.42116 39 21.5
      vertex 33 35.5 5
      vertex 33 39 5
    endloop
  endfacet
  facet normal 0.5 0 0.866025
    outer loop
      vertex 33 35.5 5
      vertex 4.42116 39 21.5
      vertex 4.42116 35.5 21.5
    endloop
  endfacet
  facet normal 0.5 0 0.866025
    outer loop
      vertex 4.42116 53.5 21.5
      vertex 33 50 5
      vertex 33 53.5 5
    endloop
  endfacet
  facet normal 0.5 0 0.866025
    outer loop
      vertex 33 50 5
      vertex 4.42116 53.5 21.5
      vertex 4.42116 50 21.5
    endloop
  endfacet
  facet normal 0.5 0 0.866025
    outer loop
      vertex 4.42116 68 21.5
      vertex 33 64.5 5
      vertex 33 68 5
    endloop
  endfacet
  facet normal 0.5 0 0.866025
    outer loop
      vertex 33 64.5 5
      vertex 4.42116 68 21.5
      vertex 4.42116 64.5 21.5
    endloop
  endfacet
  facet normal 0.5 0 0.866025
    outer loop
      vertex 4.42116 82.5 21.5
      vertex 33 79 5
      vertex 33 82.5 5
    endloop
  endfacet
  facet normal 0.5 0 0.866025
    outer loop
      vertex 33 79 5
      vertex 4.42116 82.5 21.5
      vertex 4.42116 79 21.5
    endloop
  endfacet
  facet normal 0.5 0 0.866025
    outer loop
      vertex 4.42116 97 21.5
      vertex 33 93.5 5
      vertex 33 97 5
    endloop
  endfacet
  facet normal 0.5 0 0.866025
    outer loop
      vertex 33 93.5 5
      vertex 4.42116 97 21.5
      vertex 4.42116 93.5 21.5
    endloop
  endfacet
  facet normal 0.5 0 0.866025
    outer loop
      vertex 4.42116 111.5 21.5
      vertex 33 108 5
      vertex 33 111.5 5
    endloop
  endfacet
  facet normal 0.5 0 0.866025
    outer loop
      vertex 33 108 5
      vertex 4.42116 111.5 21.5
      vertex 4.42116 108 21.5
    endloop
  endfacet
  facet normal 0.5 0 0.866025
    outer loop
      vertex 4.42116 126 21.5
      vertex 33 122.5 5
      vertex 33 126 5
    endloop
  endfacet
  facet normal 0.5 0 0.866025
    outer loop
      vertex 33 122.5 5
      vertex 4.42116 126 21.5
      vertex 4.42116 122.5 21.5
    endloop
  endfacet
  facet normal 0.5 0 0.866025
    outer loop
      vertex 4.42116 140.5 21.5
      vertex 33 137 5
      vertex 33 140.5 5
    endloop
  endfacet
  facet normal 0.5 0 0.866025
    outer loop
      vertex 33 137 5
      vertex 4.42116 140.5 21.5
      vertex 4.42116 137 21.5
    endloop
  endfacet
  facet normal 0.5 0 0.866025
    outer loop
      vertex 4.42116 155 21.5
      vertex 33 151.5 5
      vertex 33 155 5
    endloop
  endfacet
  facet normal 0.5 0 0.866025
    outer loop
      vertex 33 151.5 5
      vertex 4.42116 155 21.5
      vertex 4.42116 151.5 21.5
    endloop
  endfacet
  facet normal 0.5 0 0.866025
    outer loop
      vertex 4.42116 169.5 21.5
      vertex 33 166 5
      vertex 33 169.5 5
    endloop
  endfacet
  facet normal 0.5 0 0.866025
    outer loop
      vertex 33 166 5
      vertex 4.42116 169.5 21.5
      vertex 4.42116 166 21.5
    endloop
  endfacet
  facet normal 0.5 0 0.866025
    outer loop
      vertex 4.42116 184 21.5
      vertex 33 180.5 5
      vertex 33 184 5
    endloop
  endfacet
  facet normal 0.5 0 0.866025
    outer loop
      vertex 33 180.5 5
      vertex 4.42116 184 21.5
      vertex 4.42116 180.5 21.5
    endloop
  endfacet
  facet normal 1 -0 0
    outer loop
      vertex 4.42116 0 32
      vertex 4.42116 1 21.5
      vertex 4.42116 1 32
    endloop
  endfacet
  facet normal 1 0 0
    outer loop
      vertex 4.42116 1 21.5
      vertex 4.42116 0 32
      vertex 4.42116 0 21.5
    endloop
  endfacet
  facet normal 1 -0 0
    outer loop
      vertex 4.42116 189.5 32
      vertex 4.42116 190.5 21.5
      vertex 4.42116 190.5 32
    endloop
  endfacet
  facet normal 1 0 0
    outer loop
      vertex 4.42116 190.5 21.5
      vertex 4.42116 189.5 32
      vertex 4.42116 189.5 21.5
    endloop
  endfacet
  facet normal 1 -0 0
    outer loop
      vertex 4.42116 6.5 32
      vertex 4.42116 10 21.5
      vertex 4.42116 10 32
    endloop
  endfacet
  facet normal 1 0 0
    outer loop
      vertex 4.42116 10 21.5
      vertex 4.42116 6.5 32
      vertex 4.42116 6.5 21.5
    endloop
  endfacet
  facet normal 1 -0 0
    outer loop
      vertex 4.42116 21 32
      vertex 4.42116 24.5 21.5
      vertex 4.42116 24.5 32
    endloop
  endfacet
  facet normal 1 0 0
    outer loop
      vertex 4.42116 24.5 21.5
      vertex 4.42116 21 32
      vertex 4.42116 21 21.5
    endloop
  endfacet
  facet normal 1 -0 0
    outer loop
      vertex 4.42116 35.5 32
      vertex 4.42116 39 21.5
      vertex 4.42116 39 32
    endloop
  endfacet
  facet normal 1 0 0
    outer loop
      vertex 4.42116 39 21.5
      vertex 4.42116 35.5 32
      vertex 4.42116 35.5 21.5
    endloop
  endfacet
  facet normal 1 -0 0
    outer loop
      vertex 4.42116 50 32
      vertex 4.42116 53.5 21.5
      vertex 4.42116 53.5 32
    endloop
  endfacet
  facet normal 1 0 0
    outer loop
      vertex 4.42116 53.5 21.5
      vertex 4.42116 50 32
      vertex 4.42116 50 21.5
    endloop
  endfacet
  facet normal 1 -0 0
    outer loop
      vertex 4.42116 64.5 32
      vertex 4.42116 68 21.5
      vertex 4.42116 68 32
    endloop
  endfacet
  facet normal 1 0 0
    outer loop
      vertex 4.42116 68 21.5
      vertex 4.42116 64.5 32
      vertex 4.42116 64.5 21.5
    endloop
  endfacet
  facet normal 1 -0 0
    outer loop
      vertex 4.42116 79 32
      vertex 4.42116 82.5 21.5
      vertex 4.42116 82.5 32
    endloop
  endfacet
  facet normal 1 0 0
    outer loop
      vertex 4.42116 82.5 21.5
      vertex 4.42116 79 32
      vertex 4.42116 79 21.5
    endloop
  endfacet
  facet normal 1 -0 0
    outer loop
      vertex 4.42116 93.5 32
      vertex 4.42116 97 21.5
      vertex 4.42116 97 32
    endloop
  endfacet
  facet normal 1 0 0
    outer loop
      vertex 4.42116 97 21.5
      vertex 4.42116 93.5 32
      vertex 4.42116 93.5 21.5
    endloop
  endfacet
  facet normal 1 -0 0
    outer loop
      vertex 4.42116 108 32
      vertex 4.42116 111.5 21.5
      vertex 4.42116 111.5 32
    endloop
  endfacet
  facet normal 1 0 0
    outer loop
      vertex 4.42116 111.5 21.5
      vertex 4.42116 108 32
      vertex 4.42116 108 21.5
    endloop
  endfacet
  facet normal 1 -0 0
    outer loop
      vertex 4.42116 122.5 32
      vertex 4.42116 126 21.5
      vertex 4.42116 126 32
    endloop
  endfacet
  facet normal 1 0 0
    outer loop
      vertex 4.42116 126 21.5
      vertex 4.42116 122.5 32
      vertex 4.42116 122.5 21.5
    endloop
  endfacet
  facet normal 1 -0 0
    outer loop
      vertex 4.42116 137 32
      vertex 4.42116 140.5 21.5
      vertex 4.42116 140.5 32
    endloop
  endfacet
  facet normal 1 0 0
    outer loop
      vertex 4.42116 140.5 21.5
      vertex 4.42116 137 32
      vertex 4.42116 137 21.5
    endloop
  endfacet
  facet normal 1 -0 0
    outer loop
      vertex 4.42116 151.5 32
      vertex 4.42116 155 21.5
      vertex 4.42116 155 32
    endloop
  endfacet
  facet normal 1 0 0
    outer loop
      vertex 4.42116 155 21.5
      vertex 4.42116 151.5 32
      vertex 4.42116 151.5 21.5
    endloop
  endfacet
  facet normal 1 -0 0
    outer loop
      vertex 4.42116 166 32
      vertex 4.42116 169.5 21.5
      vertex 4.42116 169.5 32
    endloop
  endfacet
  facet normal 1 0 0
    outer loop
      vertex 4.42116 169.5 21.5
      vertex 4.42116 166 32
      vertex 4.42116 166 21.5
    endloop
  endfacet
  facet normal 1 -0 0
    outer loop
      vertex 4.42116 180.5 32
      vertex 4.42116 184 21.5
      vertex 4.42116 184 32
    endloop
  endfacet
  facet normal 1 0 0
    outer loop
      vertex 4.42116 184 21.5
      vertex 4.42116 180.5 32
      vertex 4.42116 180.5 21.5
    endloop
  endfacet
  facet normal -0.500001 0 0.866025
    outer loop
      vertex 33 1 5
      vertex 61.5788 0 21.5
      vertex 61.5788 1 21.5
    endloop
  endfacet
  facet normal -0.500001 0 0.866025
    outer loop
      vertex 61.5788 0 21.5
      vertex 33 1 5
      vertex 33 0 5
    endloop
  endfacet
  facet normal -0.500001 0 0.866025
    outer loop
      vertex 33 190.5 5
      vertex 61.5788 189.5 21.5
      vertex 61.5788 190.5 21.5
    endloop
  endfacet
  facet normal -0.500001 0 0.866025
    outer loop
      vertex 61.5788 189.5 21.5
      vertex 33 190.5 5
      vertex 33 189.5 5
    endloop
  endfacet
  facet normal -0.500001 0 0.866025
    outer loop
      vertex 33 10 5
      vertex 61.5788 6.5 21.5
      vertex 61.5788 10 21.5
    endloop
  endfacet
  facet normal -0.500001 0 0.866025
    outer loop
      vertex 61.5788 6.5 21.5
      vertex 33 10 5
      vertex 33 6.5 5
    endloop
  endfacet
  facet normal -0.500001 0 0.866025
    outer loop
      vertex 33 24.5 5
      vertex 61.5788 21 21.5
      vertex 61.5788 24.5 21.5
    endloop
  endfacet
  facet normal -0.500001 0 0.866025
    outer loop
      vertex 61.5788 21 21.5
      vertex 33 24.5 5
      vertex 33 21 5
    endloop
  endfacet
  facet normal -0.500001 0 0.866025
    outer loop
      vertex 33 39 5
      vertex 61.5788 35.5 21.5
      vertex 61.5788 39 21.5
    endloop
  endfacet
  facet normal -0.500001 0 0.866025
    outer loop
      vertex 61.5788 35.5 21.5
      vertex 33 39 5
      vertex 33 35.5 5
    endloop
  endfacet
  facet normal -0.500001 0 0.866025
    outer loop
      vertex 33 53.5 5
      vertex 61.5788 50 21.5
      vertex 61.5788 53.5 21.5
    endloop
  endfacet
  facet normal -0.500001 0 0.866025
    outer loop
      vertex 61.5788 50 21.5
      vertex 33 53.5 5
      vertex 33 50 5
    endloop
  endfacet
  facet normal -0.500001 0 0.866025
    outer loop
      vertex 33 68 5
      vertex 61.5788 64.5 21.5
      vertex 61.5788 68 21.5
    endloop
  endfacet
  facet normal -0.500001 0 0.866025
    outer loop
      vertex 61.5788 64.5 21.5
      vertex 33 68 5
      vertex 33 64.5 5
    endloop
  endfacet
  facet normal -0.500001 0 0.866025
    outer loop
      vertex 33 82.5 5
      vertex 61.5788 79 21.5
      vertex 61.5788 82.5 21.5
    endloop
  endfacet
  facet normal -0.500001 0 0.866025
    outer loop
      vertex 61.5788 79 21.5
      vertex 33 82.5 5
      vertex 33 79 5
    endloop
  endfacet
  facet normal -0.500001 0 0.866025
    outer loop
      vertex 33 97 5
      vertex 61.5788 93.5 21.5
      vertex 61.5788 97 21.5
    endloop
  endfacet
  facet normal -0.500001 0 0.866025
    outer loop
      vertex 61.5788 93.5 21.5
      vertex 33 97 5
      vertex 33 93.5 5
    endloop
  endfacet
  facet normal -0.500001 0 0.866025
    outer loop
      vertex 33 111.5 5
      vertex 61.5788 108 21.5
      vertex 61.5788 111.5 21.5
    endloop
  endfacet
  facet normal -0.500001 0 0.866025
    outer loop
      vertex 61.5788 108 21.5
      vertex 33 111.5 5
      vertex 33 108 5
    endloop
  endfacet
  facet normal -0.500001 0 0.866025
    outer loop
      vertex 33 126 5
      vertex 61.5788 122.5 21.5
      vertex 61.5788 126 21.5
    endloop
  endfacet
  facet normal -0.500001 0 0.866025
    outer loop
      vertex 61.5788 122.5 21.5
      vertex 33 126 5
      vertex 33 122.5 5
    endloop
  endfacet
  facet normal -0.500001 0 0.866025
    outer loop
      vertex 33 140.5 5
      vertex 61.5788 137 21.5
      vertex 61.5788 140.5 21.5
    endloop
  endfacet
  facet normal -0.500001 0 0.866025
    outer loop
      vertex 61.5788 137 21.5
      vertex 33 140.5 5
      vertex 33 137 5
    endloop
  endfacet
  facet normal -0.500001 0 0.866025
    outer loop
      vertex 33 155 5
      vertex 61.5788 151.5 21.5
      vertex 61.5788 155 21.5
    endloop
  endfacet
  facet normal -0.500001 0 0.866025
    outer loop
      vertex 61.5788 151.5 21.5
      vertex 33 155 5
      vertex 33 151.5 5
    endloop
  endfacet
  facet normal -0.500001 0 0.866025
    outer loop
      vertex 33 169.5 5
      vertex 61.5788 166 21.5
      vertex 61.5788 169.5 21.5
    endloop
  endfacet
  facet normal -0.500001 0 0.866025
    outer loop
      vertex 61.5788 166 21.5
      vertex 33 169.5 5
      vertex 33 166 5
    endloop
  endfacet
  facet normal -0.500001 0 0.866025
    outer loop
      vertex 33 184 5
      vertex 61.5788 180.5 21.5
      vertex 61.5788 184 21.5
    endloop
  endfacet
  facet normal -0.500001 0 0.866025
    outer loop
      vertex 61.5788 180.5 21.5
      vertex 33 184 5
      vertex 33 180.5 5
    endloop
  endfacet
  facet normal -1 0 0
    outer loop
      vertex 61.5788 0 21.5
      vertex 61.5788 1 32
      vertex 61.5788 1 21.5
    endloop
  endfacet
  facet normal -1 -0 0
    outer loop
      vertex 61.5788 1 32
      vertex 61.5788 0 21.5
      vertex 61.5788 0 32
    endloop
  endfacet
  facet normal -1 0 0
    outer loop
      vertex 61.5788 189.5 21.5
      vertex 61.5788 190.5 32
      vertex 61.5788 190.5 21.5
    endloop
  endfacet
  facet normal -1 -0 0
    outer loop
      vertex 61.5788 190.5 32
      vertex 61.5788 189.5 21.5
      vertex 61.5788 189.5 32
    endloop
  endfacet
  facet normal -1 0 0
    outer loop
      vertex 61.5788 6.5 21.5
      vertex 61.5788 10 32
      vertex 61.5788 10 21.5
    endloop
  endfacet
  facet normal -1 -0 0
    outer loop
      vertex 61.5788 10 32
      vertex 61.5788 6.5 21.5
      vertex 61.5788 6.5 32
    endloop
  endfacet
  facet normal -1 0 0
    outer loop
      vertex 61.5788 21 21.5
      vertex 61.5788 24.5 32
      vertex 61.5788 24.5 21.5
    endloop
  endfacet
  facet normal -1 -0 0
    outer loop
      vertex 61.5788 24.5 32
      vertex 61.5788 21 21.5
      vertex 61.5788 21 32
    endloop
  endfacet
  facet normal -1 0 0
    outer loop
      vertex 61.5788 35.5 21.5
      vertex 61.5788 39 32
      vertex 61.5788 39 21.5
    endloop
  endfacet
  facet normal -1 -0 0
    outer loop
      vertex 61.5788 39 32
      vertex 61.5788 35.5 21.5
      vertex 61.5788 35.5 32
    endloop
  endfacet
  facet normal -1 0 0
    outer loop
      vertex 61.5788 50 21.5
      vertex 61.5788 53.5 32
      vertex 61.5788 53.5 21.5
    endloop
  endfacet
  facet normal -1 -0 0
    outer loop
      vertex 61.5788 53.5 32
      vertex 61.5788 50 21.5
      vertex 61.5788 50 32
    endloop
  endfacet
  facet normal -1 0 0
    outer loop
      vertex 61.5788 64.5 21.5
      vertex 61.5788 68 32
      vertex 61.5788 68 21.5
    endloop
  endfacet
  facet normal -1 -0 0
    outer loop
      vertex 61.5788 68 32
      vertex 61.5788 64.5 21.5
      vertex 61.5788 64.5 32
    endloop
  endfacet
  facet normal -1 0 0
    outer loop
      vertex 61.5788 79 21.5
      vertex 61.5788 82.5 32
      vertex 61.5788 82.5 21.5
    endloop
  endfacet
  facet normal -1 -0 0
    outer loop
      vertex 61.5788 82.5 32
      vertex 61.5788 79 21.5
      vertex 61.5788 79 32
    endloop
  endfacet
  facet normal -1 0 0
    outer loop
      vertex 61.5788 93.5 21.5
      vertex 61.5788 97 32
      vertex 61.5788 97 21.5
    endloop
  endfacet
  facet normal -1 -0 0
    outer loop
      vertex 61.5788 97 32
      vertex 61.5788 93.5 21.5
      vertex 61.5788 93.5 32
    endloop
  endfacet
  facet normal -1 0 0
    outer loop
      vertex 61.5788 108 21.5
      vertex 61.5788 111.5 32
      vertex 61.5788 111.5 21.5
    endloop
  endfacet
  facet normal -1 -0 0
    outer loop
      vertex 61.5788 111.5 32
      vertex 61.5788 108 21.5
      vertex 61.5788 108 32
    endloop
  endfacet
  facet normal -1 0 0
    outer loop
      vertex 61.5788 122.5 21.5
      vertex 61.5788 126 32
      vertex 61.5788 126 21.5
    endloop
  endfacet
  facet normal -1 -0 0
    outer loop
      vertex 61.5788 126 32
      vertex 61.5788 122.5 21.5
      vertex 61.5788 122.5 32
    endloop
  endfacet
  facet normal -1 0 0
    outer loop
      vertex 61.5788 137 21.5
      vertex 61.5788 140.5 32
      vertex 61.5788 140.5 21.5
    endloop
  endfacet
  facet normal -1 -0 0
    outer loop
      vertex 61.5788 140.5 32
      vertex 61.5788 137 21.5
      vertex 61.5788 137 32
    endloop
  endfacet
  facet normal -1 0 0
    outer loop
      vertex 61.5788 151.5 21.5
      vertex 61.5788 155 32
      vertex 61.5788 155 21.5
    endloop
  endfacet
  facet normal -1 -0 0
    outer loop
      vertex 61.5788 155 32
      vertex 61.5788 151.5 21.5
      vertex 61.5788 151.5 32
    endloop
  endfacet
  facet normal -1 0 0
    outer loop
      vertex 61.5788 166 21.5
      vertex 61.5788 169.5 32
      vertex 61.5788 169.5 21.5
    endloop
  endfacet
  facet normal -1 -0 0
    outer loop
      vertex 61.5788 169.5 32
      vertex 61.5788 166 21.5
      vertex 61.5788 166 32
    endloop
  endfacet
  facet normal -1 0 0
    outer loop
      vertex 61.5788 180.5 21.5
      vertex 61.5788 184 32
      vertex 61.5788 184 21.5
    endloop
  endfacet
  facet normal -1 -0 0
    outer loop
      vertex 61.5788 184 32
      vertex 61.5788 180.5 21.5
      vertex 61.5788 180.5 32
    endloop
  endfacet
endsolid OpenSCAD_Model
