solid OpenSCAD_Model
  facet normal -1 0 0
    outer loop
      vertex 0 0 0
      vertex 0 99.5 32
      vertex 0 99.5 0
    endloop
  endfacet
  facet normal -1 -0 0
    outer loop
      vertex 0 99.5 32
      vertex 0 0 0
      vertex 0 0 32
    endloop
  endfacet
  facet normal -0 0 1
    outer loop
      vertex 61.5788 15 32
      vertex 65.0429 6.5 32
      vertex 65.0429 15 32
    endloop
  endfacet
  facet normal 0 0 1
    outer loop
      vertex 65.0429 6.5 32
      vertex 61.5788 15 32
      vertex 61.5788 6.5 32
    endloop
  endfacet
  facet normal -0 0 1
    outer loop
      vertex 61.5788 34.5 32
      vertex 65.0429 26 32
      vertex 65.0429 34.5 32
    endloop
  endfacet
  facet normal 0 0 1
    outer loop
      vertex 65.0429 26 32
      vertex 61.5788 34.5 32
      vertex 61.5788 26 32
    endloop
  endfacet
  facet normal -0 0 1
    outer loop
      vertex 61.5788 54 32
      vertex 65.0429 45.5 32
      vertex 65.0429 54 32
    endloop
  endfacet
  facet normal 0 0 1
    outer loop
      vertex 65.0429 45.5 32
      vertex 61.5788 54 32
      vertex 61.5788 45.5 32
    endloop
  endfacet
  facet normal -0 0 1
    outer loop
      vertex 61.5788 73.5 32
      vertex 65.0429 65 32
      vertex 65.0429 73.5 32
    endloop
  endfacet
  facet normal 0 0 1
    outer loop
      vertex 65.0429 65 32
      vertex 61.5788 73.5 32
      vertex 61.5788 65 32
    endloop
  endfacet
  facet normal -0 0 1
    outer loop
      vertex 61.5788 93 32
      vertex 65.0429 84.5 32
      vertex 65.0429 93 32
    endloop
  endfacet
  facet normal 0 0 1
    outer loop
      vertex 65.0429 84.5 32
      vertex 61.5788 93 32
      vertex 61.5788 84.5 32
    endloop
  endfacet
  facet normal 0 0 1
    outer loop
      vertex 65.0429 93 32
      vertex 66 99.5 32
      vertex 65.0429 98.5 32
    endloop
  endfacet
  facet normal -0 0 1
    outer loop
      vertex 61.5788 99.5 32
      vertex 65.0429 98.5 32
      vertex 66 99.5 32
    endloop
  endfacet
  facet normal 0 0 1
    outer loop
      vertex 65.0429 98.5 32
      vertex 61.5788 99.5 32
      vertex 61.5788 98.5 32
    endloop
  endfacet
  facet normal 0 0 1
    outer loop
      vertex 65.0429 84.5 32
      vertex 66 99.5 32
      vertex 65.0429 93 32
    endloop
  endfacet
  facet normal 0 0 1
    outer loop
      vertex 65.0429 73.5 32
      vertex 66 99.5 32
      vertex 65.0429 84.5 32
    endloop
  endfacet
  facet normal 0 0 1
    outer loop
      vertex 65.0429 65 32
      vertex 66 99.5 32
      vertex 65.0429 73.5 32
    endloop
  endfacet
  facet normal 0 0 1
    outer loop
      vertex 65.0429 54 32
      vertex 66 99.5 32
      vertex 65.0429 65 32
    endloop
  endfacet
  facet normal 0 0 1
    outer loop
      vertex 66 99.5 32
      vertex 65.0429 54 32
      vertex 66 0 32
    endloop
  endfacet
  facet normal -0 0 1
    outer loop
      vertex 65.0429 45.5 32
      vertex 66 0 32
      vertex 65.0429 54 32
    endloop
  endfacet
  facet normal -0 0 1
    outer loop
      vertex 65.0429 34.5 32
      vertex 66 0 32
      vertex 65.0429 45.5 32
    endloop
  endfacet
  facet normal -0 0 1
    outer loop
      vertex 65.0429 26 32
      vertex 66 0 32
      vertex 65.0429 34.5 32
    endloop
  endfacet
  facet normal -0 0 1
    outer loop
      vertex 65.0429 15 32
      vertex 66 0 32
      vertex 65.0429 26 32
    endloop
  endfacet
  facet normal -0 0 1
    outer loop
      vertex 65.0429 6.5 32
      vertex 66 0 32
      vertex 65.0429 15 32
    endloop
  endfacet
  facet normal -0 0 1
    outer loop
      vertex 65.0429 1 32
      vertex 66 0 32
      vertex 65.0429 6.5 32
    endloop
  endfacet
  facet normal 0 0 1
    outer loop
      vertex 61.5788 0 32
      vertex 65.0429 1 32
      vertex 61.5788 1 32
    endloop
  endfacet
  facet normal 0 0 1
    outer loop
      vertex 65.0429 1 32
      vertex 61.5788 0 32
      vertex 66 0 32
    endloop
  endfacet
  facet normal 0 0 1
    outer loop
      vertex 4.42116 99.5 32
      vertex 0.95706 98.5 32
      vertex 4.42116 98.5 32
    endloop
  endfacet
  facet normal 0 0 1
    outer loop
      vertex 0 99.5 32
      vertex 0.95706 93 32
      vertex 0.95706 98.5 32
    endloop
  endfacet
  facet normal 0 0 1
    outer loop
      vertex 0.95706 93 32
      vertex 0 99.5 32
      vertex 0.95706 84.5 32
    endloop
  endfacet
  facet normal 0 0 1
    outer loop
      vertex 0.95706 84.5 32
      vertex 0 99.5 32
      vertex 0.95706 73.5 32
    endloop
  endfacet
  facet normal 0 0 1
    outer loop
      vertex 0.95706 73.5 32
      vertex 0 99.5 32
      vertex 0.95706 65 32
    endloop
  endfacet
  facet normal 0 0 1
    outer loop
      vertex 0.95706 65 32
      vertex 0 99.5 32
      vertex 0.95706 54 32
    endloop
  endfacet
  facet normal 0 0 1
    outer loop
      vertex 0.95706 54 32
      vertex 0 99.5 32
      vertex 0.95706 45.5 32
    endloop
  endfacet
  facet normal 0 0 1
    outer loop
      vertex 0 0 32
      vertex 0.95706 45.5 32
      vertex 0 99.5 32
    endloop
  endfacet
  facet normal 0 0 1
    outer loop
      vertex 0.95706 45.5 32
      vertex 0 0 32
      vertex 0.95706 34.5 32
    endloop
  endfacet
  facet normal 0 0 1
    outer loop
      vertex 0.95706 34.5 32
      vertex 0 0 32
      vertex 0.95706 26 32
    endloop
  endfacet
  facet normal 0 0 1
    outer loop
      vertex 0.95706 26 32
      vertex 0 0 32
      vertex 0.95706 15 32
    endloop
  endfacet
  facet normal 0 0 1
    outer loop
      vertex 0.95706 15 32
      vertex 0 0 32
      vertex 0.95706 6.5 32
    endloop
  endfacet
  facet normal -0 0 1
    outer loop
      vertex 0 99.5 32
      vertex 0.95706 98.5 32
      vertex 4.42116 99.5 32
    endloop
  endfacet
  facet normal -0 0 1
    outer loop
      vertex 0.95706 93 32
      vertex 4.42116 84.5 32
      vertex 4.42116 93 32
    endloop
  endfacet
  facet normal 0 0 1
    outer loop
      vertex 4.42116 84.5 32
      vertex 0.95706 93 32
      vertex 0.95706 84.5 32
    endloop
  endfacet
  facet normal -0 0 1
    outer loop
      vertex 0.95706 73.5 32
      vertex 4.42116 65 32
      vertex 4.42116 73.5 32
    endloop
  endfacet
  facet normal 0 0 1
    outer loop
      vertex 4.42116 65 32
      vertex 0.95706 73.5 32
      vertex 0.95706 65 32
    endloop
  endfacet
  facet normal -0 0 1
    outer loop
      vertex 0.95706 54 32
      vertex 4.42116 45.5 32
      vertex 4.42116 54 32
    endloop
  endfacet
  facet normal 0 0 1
    outer loop
      vertex 4.42116 45.5 32
      vertex 0.95706 54 32
      vertex 0.95706 45.5 32
    endloop
  endfacet
  facet normal -0 0 1
    outer loop
      vertex 0.95706 34.5 32
      vertex 4.42116 26 32
      vertex 4.42116 34.5 32
    endloop
  endfacet
  facet normal 0 0 1
    outer loop
      vertex 4.42116 26 32
      vertex 0.95706 34.5 32
      vertex 0.95706 26 32
    endloop
  endfacet
  facet normal -0 0 1
    outer loop
      vertex 0.95706 15 32
      vertex 4.42116 6.5 32
      vertex 4.42116 15 32
    endloop
  endfacet
  facet normal 0 0 1
    outer loop
      vertex 4.42116 6.5 32
      vertex 0.95706 15 32
      vertex 0.95706 6.5 32
    endloop
  endfacet
  facet normal -0 0 1
    outer loop
      vertex 0.95706 1 32
      vertex 4.42116 0 32
      vertex 4.42116 1 32
    endloop
  endfacet
  facet normal 0 0 1
    outer loop
      vertex 0.95706 1 32
      vertex 0 0 32
      vertex 4.42116 0 32
    endloop
  endfacet
  facet normal 0 0 1
    outer loop
      vertex 0.95706 6.5 32
      vertex 0 0 32
      vertex 0.95706 1 32
    endloop
  endfacet
  facet normal 1 -0 0
    outer loop
      vertex 66 0 32
      vertex 66 99.5 0
      vertex 66 99.5 32
    endloop
  endfacet
  facet normal 1 0 0
    outer loop
      vertex 66 99.5 0
      vertex 66 0 32
      vertex 66 0 0
    endloop
  endfacet
  facet normal 0 1 0
    outer loop
      vertex 66 99.5 32
      vertex 61.5788 99.5 21.5
      vertex 61.5788 99.5 32
    endloop
  endfacet
  facet normal 0 1 0
    outer loop
      vertex 61.5788 99.5 21.5
      vertex 66 99.5 0
      vertex 33 99.5 5
    endloop
  endfacet
  facet normal 0 1 -0
    outer loop
      vertex 66 99.5 0
      vertex 61.5788 99.5 21.5
      vertex 66 99.5 32
    endloop
  endfacet
  facet normal 0 1 -0
    outer loop
      vertex 4.42116 99.5 21.5
      vertex 0 99.5 32
      vertex 4.42116 99.5 32
    endloop
  endfacet
  facet normal 0 1 0
    outer loop
      vertex 4.42116 99.5 21.5
      vertex 0 99.5 0
      vertex 0 99.5 32
    endloop
  endfacet
  facet normal 0 1 0
    outer loop
      vertex 33 99.5 5
      vertex 0 99.5 0
      vertex 4.42116 99.5 21.5
    endloop
  endfacet
  facet normal 0 1 0
    outer loop
      vertex 0 99.5 0
      vertex 33 99.5 5
      vertex 66 99.5 0
    endloop
  endfacet
  facet normal 0 0 -1
    outer loop
      vertex 0 0 0
      vertex 66 99.5 0
      vertex 66 0 0
    endloop
  endfacet
  facet normal -0 0 -1
    outer loop
      vertex 66 99.5 0
      vertex 0 0 0
      vertex 0 99.5 0
    endloop
  endfacet
  facet normal 0 -1 0
    outer loop
      vertex 0 0 32
      vertex 4.42116 0 21.5
      vertex 4.42116 0 32
    endloop
  endfacet
  facet normal 0 -1 -0
    outer loop
      vertex 4.42116 0 21.5
      vertex 0 0 0
      vertex 33 0 5
    endloop
  endfacet
  facet normal 0 -1 0
    outer loop
      vertex 0 0 0
      vertex 4.42116 0 21.5
      vertex 0 0 32
    endloop
  endfacet
  facet normal 0 -1 0
    outer loop
      vertex 61.5788 0 21.5
      vertex 66 0 32
      vertex 61.5788 0 32
    endloop
  endfacet
  facet normal 0 -1 0
    outer loop
      vertex 61.5788 0 21.5
      vertex 66 0 0
      vertex 66 0 32
    endloop
  endfacet
  facet normal 0 -1 0
    outer loop
      vertex 33 0 5
      vertex 66 0 0
      vertex 61.5788 0 21.5
    endloop
  endfacet
  facet normal 0 -1 0
    outer loop
      vertex 66 0 0
      vertex 33 0 5
      vertex 0 0 0
    endloop
  endfacet
  facet normal 0.5 0 0.866025
    outer loop
      vertex 4.42116 1 21.5
      vertex 33 0 5
      vertex 33 1 5
    endloop
  endfacet
  facet normal 0.5 0 0.866025
    outer loop
      vertex 33 0 5
      vertex 4.42116 1 21.5
      vertex 4.42116 0 21.5
    endloop
  endfacet
  facet normal 0.5 0 0.866025
    outer loop
      vertex 4.42116 99.5 21.5
      vertex 33 98.5 5
      vertex 33 99.5 5
    endloop
  endfacet
  facet normal 0.5 0 0.866025
    outer loop
      vertex 33 98.5 5
      vertex 4.42116 99.5 21.5
      vertex 4.42116 98.5 21.5
    endloop
  endfacet
  facet normal 0.5 0 0.866025
    outer loop
      vertex 4.42116 15 21.5
      vertex 33 6.5 5
      vertex 33 15 5
    endloop
  endfacet
  facet normal 0.5 0 0.866025
    outer loop
      vertex 33 6.5 5
      vertex 4.42116 15 21.5
      vertex 4.42116 6.5 21.5
    endloop
  endfacet
  facet normal 0.5 0 0.866025
    outer loop
      vertex 4.42116 34.5 21.5
      vertex 33 26 5
      vertex 33 34.5 5
    endloop
  endfacet
  facet normal 0.5 0 0.866025
    outer loop
      vertex 33 26 5
      vertex 4.42116 34.5 21.5
      vertex 4.42116 26 21.5
    endloop
  endfacet
  facet normal 0.5 0 0.866025
    outer loop
      vertex 4.42116 54 21.5
      vertex 33 45.5 5
      vertex 33 54 5
    endloop
  endfacet
  facet normal 0.5 0 0.866025
    outer loop
      vertex 33 45.5 5
      vertex 4.42116 54 21.5
      vertex 4.42116 45.5 21.5
    endloop
  endfacet
  facet normal 0.5 0 0.866025
    outer loop
      vertex 4.42116 73.5 21.5
      vertex 33 65 5
      vertex 33 73.5 5
    endloop
  endfacet
  facet normal 0.5 0 0.866025
    outer loop
      vertex 33 65 5
      vertex 4.42116 73.5 21.5
      vertex 4.42116 65 21.5
    endloop
  endfacet
  facet normal 0.5 0 0.866025
    outer loop
      vertex 4.42116 93 21.5
      vertex 33 84.5 5
      vertex 33 93 5
    endloop
  endfacet
  facet normal 0.5 0 0.866025
    outer loop
      vertex 33 84.5 5
      vertex 4.42116 93 21.5
      vertex 4.42116 84.5 21.5
    endloop
  endfacet
  facet normal 1 -0 0
    outer loop
      vertex 4.42116 0 32
      vertex 4.42116 1 21.5
      vertex 4.42116 1 32
    endloop
  endfacet
  facet normal 1 0 0
    outer loop
      vertex 4.42116 1 21.5
      vertex 4.42116 0 32
      vertex 4.42116 0 21.5
    endloop
  endfacet
  facet normal 1 -0 0
    outer loop
      vertex 4.42116 98.5 32
      vertex 4.42116 99.5 21.5
      vertex 4.42116 99.5 32
    endloop
  endfacet
  facet normal 1 0 0
    outer loop
      vertex 4.42116 99.5 21.5
      vertex 4.42116 98.5 32
      vertex 4.42116 98.5 21.5
    endloop
  endfacet
  facet normal 1 -0 0
    outer loop
      vertex 4.42116 6.5 32
      vertex 4.42116 15 21.5
      vertex 4.42116 15 32
    endloop
  endfacet
  facet normal 1 0 0
    outer loop
      vertex 4.42116 15 21.5
      vertex 4.42116 6.5 32
      vertex 4.42116 6.5 21.5
    endloop
  endfacet
  facet normal 1 -0 0
    outer loop
      vertex 4.42116 26 32
      vertex 4.42116 34.5 21.5
      vertex 4.42116 34.5 32
    endloop
  endfacet
  facet normal 1 0 0
    outer loop
      vertex 4.42116 34.5 21.5
      vertex 4.42116 26 32
      vertex 4.42116 26 21.5
    endloop
  endfacet
  facet normal 1 -0 0
    outer loop
      vertex 4.42116 45.5 32
      vertex 4.42116 54 21.5
      vertex 4.42116 54 32
    endloop
  endfacet
  facet normal 1 0 0
    outer loop
      vertex 4.42116 54 21.5
      vertex 4.42116 45.5 32
      vertex 4.42116 45.5 21.5
    endloop
  endfacet
  facet normal 1 -0 0
    outer loop
      vertex 4.42116 65 32
      vertex 4.42116 73.5 21.5
      vertex 4.42116 73.5 32
    endloop
  endfacet
  facet normal 1 0 0
    outer loop
      vertex 4.42116 73.5 21.5
      vertex 4.42116 65 32
      vertex 4.42116 65 21.5
    endloop
  endfacet
  facet normal 1 -0 0
    outer loop
      vertex 4.42116 84.5 32
      vertex 4.42116 93 21.5
      vertex 4.42116 93 32
    endloop
  endfacet
  facet normal 1 0 0
    outer loop
      vertex 4.42116 93 21.5
      vertex 4.42116 84.5 32
      vertex 4.42116 84.5 21.5
    endloop
  endfacet
  facet normal -0.500001 0 0.866025
    outer loop
      vertex 33 1 5
      vertex 61.5788 0 21.5
      vertex 61.5788 1 21.5
    endloop
  endfacet
  facet normal -0.500001 0 0.866025
    outer loop
      vertex 61.5788 0 21.5
      vertex 33 1 5
      vertex 33 0 5
    endloop
  endfacet
  facet normal -0.500001 0 0.866025
    outer loop
      vertex 33 99.5 5
      vertex 61.5788 98.5 21.5
      vertex 61.5788 99.5 21.5
    endloop
  endfacet
  facet normal -0.500001 0 0.866025
    outer loop
      vertex 61.5788 98.5 21.5
      vertex 33 99.5 5
      vertex 33 98.5 5
    endloop
  endfacet
  facet normal -0.500001 0 0.866025
    outer loop
      vertex 33 15 5
      vertex 61.5788 6.5 21.5
      vertex 61.5788 15 21.5
    endloop
  endfacet
  facet normal -0.500001 0 0.866025
    outer loop
      vertex 61.5788 6.5 21.5
      vertex 33 15 5
      vertex 33 6.5 5
    endloop
  endfacet
  facet normal -0.500001 0 0.866025
    outer loop
      vertex 33 34.5 5
      vertex 61.5788 26 21.5
      vertex 61.5788 34.5 21.5
    endloop
  endfacet
  facet normal -0.500001 0 0.866025
    outer loop
      vertex 61.5788 26 21.5
      vertex 33 34.5 5
      vertex 33 26 5
    endloop
  endfacet
  facet normal -0.500001 0 0.866025
    outer loop
      vertex 33 54 5
      vertex 61.5788 45.5 21.5
      vertex 61.5788 54 21.5
    endloop
  endfacet
  facet normal -0.500001 0 0.866025
    outer loop
      vertex 61.5788 45.5 21.5
      vertex 33 54 5
      vertex 33 45.5 5
    endloop
  endfacet
  facet normal -0.500001 0 0.866025
    outer loop
      vertex 33 73.5 5
      vertex 61.5788 65 21.5
      vertex 61.5788 73.5 21.5
    endloop
  endfacet
  facet normal -0.500001 0 0.866025
    outer loop
      vertex 61.5788 65 21.5
      vertex 33 73.5 5
      vertex 33 65 5
    endloop
  endfacet
  facet normal -0.500001 0 0.866025
    outer loop
      vertex 33 93 5
      vertex 61.5788 84.5 21.5
      vertex 61.5788 93 21.5
    endloop
  endfacet
  facet normal -0.500001 0 0.866025
    outer loop
      vertex 61.5788 84.5 21.5
      vertex 33 93 5
      vertex 33 84.5 5
    endloop
  endfacet
  facet normal -1 0 0
    outer loop
      vertex 61.5788 0 21.5
      vertex 61.5788 1 32
      vertex 61.5788 1 21.5
    endloop
  endfacet
  facet normal -1 -0 0
    outer loop
      vertex 61.5788 1 32
      vertex 61.5788 0 21.5
      vertex 61.5788 0 32
    endloop
  endfacet
  facet normal -1 0 0
    outer loop
      vertex 61.5788 98.5 21.5
      vertex 61.5788 99.5 32
      vertex 61.5788 99.5 21.5
    endloop
  endfacet
  facet normal -1 -0 0
    outer loop
      vertex 61.5788 99.5 32
      vertex 61.5788 98.5 21.5
      vertex 61.5788 98.5 32
    endloop
  endfacet
  facet normal -1 0 0
    outer loop
      vertex 61.5788 6.5 21.5
      vertex 61.5788 15 32
      vertex 61.5788 15 21.5
    endloop
  endfacet
  facet normal -1 -0 0
    outer loop
      vertex 61.5788 15 32
      vertex 61.5788 6.5 21.5
      vertex 61.5788 6.5 32
    endloop
  endfacet
  facet normal -1 0 0
    outer loop
      vertex 61.5788 26 21.5
      vertex 61.5788 34.5 32
      vertex 61.5788 34.5 21.5
    endloop
  endfacet
  facet normal -1 -0 0
    outer loop
      vertex 61.5788 34.5 32
      vertex 61.5788 26 21.5
      vertex 61.5788 26 32
    endloop
  endfacet
  facet normal -1 0 0
    outer loop
      vertex 61.5788 45.5 21.5
      vertex 61.5788 54 32
      vertex 61.5788 54 21.5
    endloop
  endfacet
  facet normal -1 -0 0
    outer loop
      vertex 61.5788 54 32
      vertex 61.5788 45.5 21.5
      vertex 61.5788 45.5 32
    endloop
  endfacet
  facet normal -1 0 0
    outer loop
      vertex 61.5788 65 21.5
      vertex 61.5788 73.5 32
      vertex 61.5788 73.5 21.5
    endloop
  endfacet
  facet normal -1 -0 0
    outer loop
      vertex 61.5788 73.5 32
      vertex 61.5788 65 21.5
      vertex 61.5788 65 32
    endloop
  endfacet
  facet normal -1 0 0
    outer loop
      vertex 61.5788 84.5 21.5
      vertex 61.5788 93 32
      vertex 61.5788 93 21.5
    endloop
  endfacet
  facet normal -1 -0 0
    outer loop
      vertex 61.5788 93 32
      vertex 61.5788 84.5 21.5
      vertex 61.5788 84.5 32
    endloop
  endfacet
  facet normal 0 1 0
    outer loop
      vertex 65.0429 1 32
      vertex 61.5788 1 21.5
      vertex 61.5788 1 32
    endloop
  endfacet
  facet normal 0 1 -0
    outer loop
      vertex 65.0429 1 19.5
      vertex 61.5788 1 21.5
      vertex 65.0429 1 32
    endloop
  endfacet
  facet normal 0 1 0
    outer loop
      vertex 65.0429 1 19.5
      vertex 33 1 5
      vertex 61.5788 1 21.5
    endloop
  endfacet
  facet normal -0 1 0
    outer loop
      vertex 33 1 5
      vertex 65.0429 1 19.5
      vertex 33 1 1
    endloop
  endfacet
  facet normal 0 1 -0
    outer loop
      vertex 4.42116 1 21.5
      vertex 0.95706 1 32
      vertex 4.42116 1 32
    endloop
  endfacet
  facet normal 0 1 0
    outer loop
      vertex 4.42116 1 21.5
      vertex 0.95706 1 19.5
      vertex 0.95706 1 32
    endloop
  endfacet
  facet normal 0 1 0
    outer loop
      vertex 33 1 5
      vertex 0.95706 1 19.5
      vertex 4.42116 1 21.5
    endloop
  endfacet
  facet normal 0 1 0
    outer loop
      vertex 0.95706 1 19.5
      vertex 33 1 5
      vertex 33 1 1
    endloop
  endfacet
  facet normal 0.5 0 0.866025
    outer loop
      vertex 0.95706 6.5 19.5
      vertex 33 1 1
      vertex 33 6.5 1
    endloop
  endfacet
  facet normal 0.5 0 0.866025
    outer loop
      vertex 33 1 1
      vertex 0.95706 6.5 19.5
      vertex 0.95706 1 19.5
    endloop
  endfacet
  facet normal 1 -0 0
    outer loop
      vertex 0.95706 1 32
      vertex 0.95706 6.5 19.5
      vertex 0.95706 6.5 32
    endloop
  endfacet
  facet normal 1 0 0
    outer loop
      vertex 0.95706 6.5 19.5
      vertex 0.95706 1 32
      vertex 0.95706 1 19.5
    endloop
  endfacet
  facet normal 0 -1 0
    outer loop
      vertex 0.95706 6.5 32
      vertex 4.42116 6.5 21.5
      vertex 4.42116 6.5 32
    endloop
  endfacet
  facet normal 0 -1 0
    outer loop
      vertex 0.95706 6.5 19.5
      vertex 4.42116 6.5 21.5
      vertex 0.95706 6.5 32
    endloop
  endfacet
  facet normal 0 -1 0
    outer loop
      vertex 0.95706 6.5 19.5
      vertex 33 6.5 5
      vertex 4.42116 6.5 21.5
    endloop
  endfacet
  facet normal -0 -1 -0
    outer loop
      vertex 33 6.5 5
      vertex 0.95706 6.5 19.5
      vertex 33 6.5 1
    endloop
  endfacet
  facet normal 0 -1 0
    outer loop
      vertex 61.5788 6.5 21.5
      vertex 65.0429 6.5 32
      vertex 61.5788 6.5 32
    endloop
  endfacet
  facet normal 0 -1 0
    outer loop
      vertex 61.5788 6.5 21.5
      vertex 65.0429 6.5 19.5
      vertex 65.0429 6.5 32
    endloop
  endfacet
  facet normal 0 -1 0
    outer loop
      vertex 33 6.5 5
      vertex 65.0429 6.5 19.5
      vertex 61.5788 6.5 21.5
    endloop
  endfacet
  facet normal 0 -1 0
    outer loop
      vertex 65.0429 6.5 19.5
      vertex 33 6.5 5
      vertex 33 6.5 1
    endloop
  endfacet
  facet normal -0.5 0 0.866025
    outer loop
      vertex 33 6.5 1
      vertex 65.0429 1 19.5
      vertex 65.0429 6.5 19.5
    endloop
  endfacet
  facet normal -0.5 0 0.866025
    outer loop
      vertex 65.0429 1 19.5
      vertex 33 6.5 1
      vertex 33 1 1
    endloop
  endfacet
  facet normal -1 0 0
    outer loop
      vertex 65.0429 1 19.5
      vertex 65.0429 6.5 32
      vertex 65.0429 6.5 19.5
    endloop
  endfacet
  facet normal -1 -0 0
    outer loop
      vertex 65.0429 6.5 32
      vertex 65.0429 1 19.5
      vertex 65.0429 1 32
    endloop
  endfacet
  facet normal 0 1 0
    outer loop
      vertex 65.0429 15 32
      vertex 61.5788 15 21.5
      vertex 61.5788 15 32
    endloop
  endfacet
  facet normal 0 1 -0
    outer loop
      vertex 65.0429 15 19.5
      vertex 61.5788 15 21.5
      vertex 65.0429 15 32
    endloop
  endfacet
  facet normal 0 1 0
    outer loop
      vertex 65.0429 15 19.5
      vertex 33 15 5
      vertex 61.5788 15 21.5
    endloop
  endfacet
  facet normal -0 1 0
    outer loop
      vertex 33 15 5
      vertex 65.0429 15 19.5
      vertex 33 15 1
    endloop
  endfacet
  facet normal 0 1 -0
    outer loop
      vertex 4.42116 15 21.5
      vertex 0.95706 15 32
      vertex 4.42116 15 32
    endloop
  endfacet
  facet normal 0 1 0
    outer loop
      vertex 4.42116 15 21.5
      vertex 0.95706 15 19.5
      vertex 0.95706 15 32
    endloop
  endfacet
  facet normal 0 1 0
    outer loop
      vertex 33 15 5
      vertex 0.95706 15 19.5
      vertex 4.42116 15 21.5
    endloop
  endfacet
  facet normal 0 1 0
    outer loop
      vertex 0.95706 15 19.5
      vertex 33 15 5
      vertex 33 15 1
    endloop
  endfacet
  facet normal 0.5 0 0.866025
    outer loop
      vertex 0.95706 26 19.5
      vertex 33 15 1
      vertex 33 26 1
    endloop
  endfacet
  facet normal 0.5 0 0.866025
    outer loop
      vertex 33 15 1
      vertex 0.95706 26 19.5
      vertex 0.95706 15 19.5
    endloop
  endfacet
  facet normal 1 -0 0
    outer loop
      vertex 0.95706 15 32
      vertex 0.95706 26 19.5
      vertex 0.95706 26 32
    endloop
  endfacet
  facet normal 1 0 0
    outer loop
      vertex 0.95706 26 19.5
      vertex 0.95706 15 32
      vertex 0.95706 15 19.5
    endloop
  endfacet
  facet normal -0.5 0 0.866025
    outer loop
      vertex 33 26 1
      vertex 65.0429 15 19.5
      vertex 65.0429 26 19.5
    endloop
  endfacet
  facet normal -0.5 0 0.866025
    outer loop
      vertex 65.0429 15 19.5
      vertex 33 26 1
      vertex 33 15 1
    endloop
  endfacet
  facet normal -1 0 0
    outer loop
      vertex 65.0429 15 19.5
      vertex 65.0429 26 32
      vertex 65.0429 26 19.5
    endloop
  endfacet
  facet normal -1 -0 0
    outer loop
      vertex 65.0429 26 32
      vertex 65.0429 15 19.5
      vertex 65.0429 15 32
    endloop
  endfacet
  facet normal 0 -1 0
    outer loop
      vertex 0.95706 26 32
      vertex 4.42116 26 21.5
      vertex 4.42116 26 32
    endloop
  endfacet
  facet normal 0 -1 0
    outer loop
      vertex 0.95706 26 19.5
      vertex 4.42116 26 21.5
      vertex 0.95706 26 32
    endloop
  endfacet
  facet normal 0 -1 0
    outer loop
      vertex 0.95706 26 19.5
      vertex 33 26 5
      vertex 4.42116 26 21.5
    endloop
  endfacet
  facet normal -0 -1 -0
    outer loop
      vertex 33 26 5
      vertex 0.95706 26 19.5
      vertex 33 26 1
    endloop
  endfacet
  facet normal 0 -1 0
    outer loop
      vertex 61.5788 26 21.5
      vertex 65.0429 26 32
      vertex 61.5788 26 32
    endloop
  endfacet
  facet normal 0 -1 0
    outer loop
      vertex 61.5788 26 21.5
      vertex 65.0429 26 19.5
      vertex 65.0429 26 32
    endloop
  endfacet
  facet normal 0 -1 0
    outer loop
      vertex 33 26 5
      vertex 65.0429 26 19.5
      vertex 61.5788 26 21.5
    endloop
  endfacet
  facet normal 0 -1 0
    outer loop
      vertex 65.0429 26 19.5
      vertex 33 26 5
      vertex 33 26 1
    endloop
  endfacet
  facet normal 0 1 0
    outer loop
      vertex 65.0429 34.5 32
      vertex 61.5788 34.5 21.5
      vertex 61.5788 34.5 32
    endloop
  endfacet
  facet normal 0 1 -0
    outer loop
      vertex 65.0429 34.5 19.5
      vertex 61.5788 34.5 21.5
      vertex 65.0429 34.5 32
    endloop
  endfacet
  facet normal 0 1 0
    outer loop
      vertex 65.0429 34.5 19.5
      vertex 33 34.5 5
      vertex 61.5788 34.5 21.5
    endloop
  endfacet
  facet normal -0 1 0
    outer loop
      vertex 33 34.5 5
      vertex 65.0429 34.5 19.5
      vertex 33 34.5 1
    endloop
  endfacet
  facet normal 0 1 -0
    outer loop
      vertex 4.42116 34.5 21.5
      vertex 0.95706 34.5 32
      vertex 4.42116 34.5 32
    endloop
  endfacet
  facet normal 0 1 0
    outer loop
      vertex 4.42116 34.5 21.5
      vertex 0.95706 34.5 19.5
      vertex 0.95706 34.5 32
    endloop
  endfacet
  facet normal 0 1 0
    outer loop
      vertex 33 34.5 5
      vertex 0.95706 34.5 19.5
      vertex 4.42116 34.5 21.5
    endloop
  endfacet
  facet normal 0 1 0
    outer loop
      vertex 0.95706 34.5 19.5
      vertex 33 34.5 5
      vertex 33 34.5 1
    endloop
  endfacet
  facet normal 0.5 0 0.866025
    outer loop
      vertex 0.95706 45.5 19.5
      vertex 33 34.5 1
      vertex 33 45.5 1
    endloop
  endfacet
  facet normal 0.5 0 0.866025
    outer loop
      vertex 33 34.5 1
      vertex 0.95706 45.5 19.5
      vertex 0.95706 34.5 19.5
    endloop
  endfacet
  facet normal 1 -0 0
    outer loop
      vertex 0.95706 34.5 32
      vertex 0.95706 45.5 19.5
      vertex 0.95706 45.5 32
    endloop
  endfacet
  facet normal 1 0 0
    outer loop
      vertex 0.95706 45.5 19.5
      vertex 0.95706 34.5 32
      vertex 0.95706 34.5 19.5
    endloop
  endfacet
  facet normal -0.5 0 0.866025
    outer loop
      vertex 33 45.5 1
      vertex 65.0429 34.5 19.5
      vertex 65.0429 45.5 19.5
    endloop
  endfacet
  facet normal -0.5 0 0.866025
    outer loop
      vertex 65.0429 34.5 19.5
      vertex 33 45.5 1
      vertex 33 34.5 1
    endloop
  endfacet
  facet normal -1 0 0
    outer loop
      vertex 65.0429 34.5 19.5
      vertex 65.0429 45.5 32
      vertex 65.0429 45.5 19.5
    endloop
  endfacet
  facet normal -1 -0 0
    outer loop
      vertex 65.0429 45.5 32
      vertex 65.0429 34.5 19.5
      vertex 65.0429 34.5 32
    endloop
  endfacet
  facet normal 0 -1 0
    outer loop
      vertex 0.95706 45.5 32
      vertex 4.42116 45.5 21.5
      vertex 4.42116 45.5 32
    endloop
  endfacet
  facet normal 0 -1 0
    outer loop
      vertex 0.95706 45.5 19.5
      vertex 4.42116 45.5 21.5
      vertex 0.95706 45.5 32
    endloop
  endfacet
  facet normal 0 -1 0
    outer loop
      vertex 0.95706 45.5 19.5
      vertex 33 45.5 5
      vertex 4.42116 45.5 21.5
    endloop
  endfacet
  facet normal -0 -1 -0
    outer loop
      vertex 33 45.5 5
      vertex 0.95706 45.5 19.5
      vertex 33 45.5 1
    endloop
  endfacet
  facet normal 0 -1 0
    outer loop
      vertex 61.5788 45.5 21.5
      vertex 65.0429 45.5 32
      vertex 61.5788 45.5 32
    endloop
  endfacet
  facet normal 0 -1 0
    outer loop
      vertex 61.5788 45.5 21.5
      vertex 65.0429 45.5 19.5
      vertex 65.0429 45.5 32
    endloop
  endfacet
  facet normal 0 -1 0
    outer loop
      vertex 33 45.5 5
      vertex 65.0429 45.5 19.5
      vertex 61.5788 45.5 21.5
    endloop
  endfacet
  facet normal 0 -1 0
    outer loop
      vertex 65.0429 45.5 19.5
      vertex 33 45.5 5
      vertex 33 45.5 1
    endloop
  endfacet
  facet normal 0 1 0
    outer loop
      vertex 65.0429 54 32
      vertex 61.5788 54 21.5
      vertex 61.5788 54 32
    endloop
  endfacet
  facet normal 0 1 -0
    outer loop
      vertex 65.0429 54 19.5
      vertex 61.5788 54 21.5
      vertex 65.0429 54 32
    endloop
  endfacet
  facet normal 0 1 0
    outer loop
      vertex 65.0429 54 19.5
      vertex 33 54 5
      vertex 61.5788 54 21.5
    endloop
  endfacet
  facet normal -0 1 0
    outer loop
      vertex 33 54 5
      vertex 65.0429 54 19.5
      vertex 33 54 1
    endloop
  endfacet
  facet normal 0 1 -0
    outer loop
      vertex 4.42116 54 21.5
      vertex 0.95706 54 32
      vertex 4.42116 54 32
    endloop
  endfacet
  facet normal 0 1 0
    outer loop
      vertex 4.42116 54 21.5
      vertex 0.95706 54 19.5
      vertex 0.95706 54 32
    endloop
  endfacet
  facet normal 0 1 0
    outer loop
      vertex 33 54 5
      vertex 0.95706 54 19.5
      vertex 4.42116 54 21.5
    endloop
  endfacet
  facet normal 0 1 0
    outer loop
      vertex 0.95706 54 19.5
      vertex 33 54 5
      vertex 33 54 1
    endloop
  endfacet
  facet normal 0.5 0 0.866025
    outer loop
      vertex 0.95706 65 19.5
      vertex 33 54 1
      vertex 33 65 1
    endloop
  endfacet
  facet normal 0.5 0 0.866025
    outer loop
      vertex 33 54 1
      vertex 0.95706 65 19.5
      vertex 0.95706 54 19.5
    endloop
  endfacet
  facet normal 1 -0 0
    outer loop
      vertex 0.95706 54 32
      vertex 0.95706 65 19.5
      vertex 0.95706 65 32
    endloop
  endfacet
  facet normal 1 0 0
    outer loop
      vertex 0.95706 65 19.5
      vertex 0.95706 54 32
      vertex 0.95706 54 19.5
    endloop
  endfacet
  facet normal -0.5 0 0.866025
    outer loop
      vertex 33 65 1
      vertex 65.0429 54 19.5
      vertex 65.0429 65 19.5
    endloop
  endfacet
  facet normal -0.5 0 0.866025
    outer loop
      vertex 65.0429 54 19.5
      vertex 33 65 1
      vertex 33 54 1
    endloop
  endfacet
  facet normal -1 0 0
    outer loop
      vertex 65.0429 54 19.5
      vertex 65.0429 65 32
      vertex 65.0429 65 19.5
    endloop
  endfacet
  facet normal -1 -0 0
    outer loop
      vertex 65.0429 65 32
      vertex 65.0429 54 19.5
      vertex 65.0429 54 32
    endloop
  endfacet
  facet normal 0 -1 0
    outer loop
      vertex 0.95706 65 32
      vertex 4.42116 65 21.5
      vertex 4.42116 65 32
    endloop
  endfacet
  facet normal 0 -1 0
    outer loop
      vertex 0.95706 65 19.5
      vertex 4.42116 65 21.5
      vertex 0.95706 65 32
    endloop
  endfacet
  facet normal 0 -1 0
    outer loop
      vertex 0.95706 65 19.5
      vertex 33 65 5
      vertex 4.42116 65 21.5
    endloop
  endfacet
  facet normal -0 -1 -0
    outer loop
      vertex 33 65 5
      vertex 0.95706 65 19.5
      vertex 33 65 1
    endloop
  endfacet
  facet normal 0 -1 0
    outer loop
      vertex 61.5788 65 21.5
      vertex 65.0429 65 32
      vertex 61.5788 65 32
    endloop
  endfacet
  facet normal 0 -1 0
    outer loop
      vertex 61.5788 65 21.5
      vertex 65.0429 65 19.5
      vertex 65.0429 65 32
    endloop
  endfacet
  facet normal 0 -1 0
    outer loop
      vertex 33 65 5
      vertex 65.0429 65 19.5
      vertex 61.5788 65 21.5
    endloop
  endfacet
  facet normal 0 -1 0
    outer loop
      vertex 65.0429 65 19.5
      vertex 33 65 5
      vertex 33 65 1
    endloop
  endfacet
  facet normal 0 1 0
    outer loop
      vertex 65.0429 73.5 32
      vertex 61.5788 73.5 21.5
      vertex 61.5788 73.5 32
    endloop
  endfacet
  facet normal 0 1 -0
    outer loop
      vertex 65.0429 73.5 19.5
      vertex 61.5788 73.5 21.5
      vertex 65.0429 73.5 32
    endloop
  endfacet
  facet normal 0 1 0
    outer loop
      vertex 65.0429 73.5 19.5
      vertex 33 73.5 5
      vertex 61.5788 73.5 21.5
    endloop
  endfacet
  facet normal -0 1 0
    outer loop
      vertex 33 73.5 5
      vertex 65.0429 73.5 19.5
      vertex 33 73.5 1
    endloop
  endfacet
  facet normal 0 1 -0
    outer loop
      vertex 4.42116 73.5 21.5
      vertex 0.95706 73.5 32
      vertex 4.42116 73.5 32
    endloop
  endfacet
  facet normal 0 1 0
    outer loop
      vertex 4.42116 73.5 21.5
      vertex 0.95706 73.5 19.5
      vertex 0.95706 73.5 32
    endloop
  endfacet
  facet normal 0 1 0
    outer loop
      vertex 33 73.5 5
      vertex 0.95706 73.5 19.5
      vertex 4.42116 73.5 21.5
    endloop
  endfacet
  facet normal 0 1 0
    outer loop
      vertex 0.95706 73.5 19.5
      vertex 33 73.5 5
      vertex 33 73.5 1
    endloop
  endfacet
  facet normal 0.5 0 0.866025
    outer loop
      vertex 0.95706 84.5 19.5
      vertex 33 73.5 1
      vertex 33 84.5 1
    endloop
  endfacet
  facet normal 0.5 0 0.866025
    outer loop
      vertex 33 73.5 1
      vertex 0.95706 84.5 19.5
      vertex 0.95706 73.5 19.5
    endloop
  endfacet
  facet normal 1 -0 0
    outer loop
      vertex 0.95706 73.5 32
      vertex 0.95706 84.5 19.5
      vertex 0.95706 84.5 32
    endloop
  endfacet
  facet normal 1 0 0
    outer loop
      vertex 0.95706 84.5 19.5
      vertex 0.95706 73.5 32
      vertex 0.95706 73.5 19.5
    endloop
  endfacet
  facet normal -0.5 0 0.866025
    outer loop
      vertex 33 84.5 1
      vertex 65.0429 73.5 19.5
      vertex 65.0429 84.5 19.5
    endloop
  endfacet
  facet normal -0.5 0 0.866025
    outer loop
      vertex 65.0429 73.5 19.5
      vertex 33 84.5 1
      vertex 33 73.5 1
    endloop
  endfacet
  facet normal -1 0 0
    outer loop
      vertex 65.0429 73.5 19.5
      vertex 65.0429 84.5 32
      vertex 65.0429 84.5 19.5
    endloop
  endfacet
  facet normal -1 -0 0
    outer loop
      vertex 65.0429 84.5 32
      vertex 65.0429 73.5 19.5
      vertex 65.0429 73.5 32
    endloop
  endfacet
  facet normal 0 -1 0
    outer loop
      vertex 0.95706 84.5 32
      vertex 4.42116 84.5 21.5
      vertex 4.42116 84.5 32
    endloop
  endfacet
  facet normal 0 -1 0
    outer loop
      vertex 0.95706 84.5 19.5
      vertex 4.42116 84.5 21.5
      vertex 0.95706 84.5 32
    endloop
  endfacet
  facet normal 0 -1 0
    outer loop
      vertex 0.95706 84.5 19.5
      vertex 33 84.5 5
      vertex 4.42116 84.5 21.5
    endloop
  endfacet
  facet normal -0 -1 -0
    outer loop
      vertex 33 84.5 5
      vertex 0.95706 84.5 19.5
      vertex 33 84.5 1
    endloop
  endfacet
  facet normal 0 -1 0
    outer loop
      vertex 61.5788 84.5 21.5
      vertex 65.0429 84.5 32
      vertex 61.5788 84.5 32
    endloop
  endfacet
  facet normal 0 -1 0
    outer loop
      vertex 61.5788 84.5 21.5
      vertex 65.0429 84.5 19.5
      vertex 65.0429 84.5 32
    endloop
  endfacet
  facet normal 0 -1 0
    outer loop
      vertex 33 84.5 5
      vertex 65.0429 84.5 19.5
      vertex 61.5788 84.5 21.5
    endloop
  endfacet
  facet normal 0 -1 0
    outer loop
      vertex 65.0429 84.5 19.5
      vertex 33 84.5 5
      vertex 33 84.5 1
    endloop
  endfacet
  facet normal 0 1 0
    outer loop
      vertex 65.0429 93 32
      vertex 61.5788 93 21.5
      vertex 61.5788 93 32
    endloop
  endfacet
  facet normal 0 1 -0
    outer loop
      vertex 65.0429 93 19.5
      vertex 61.5788 93 21.5
      vertex 65.0429 93 32
    endloop
  endfacet
  facet normal 0 1 0
    outer loop
      vertex 65.0429 93 19.5
      vertex 33 93 5
      vertex 61.5788 93 21.5
    endloop
  endfacet
  facet normal -0 1 0
    outer loop
      vertex 33 93 5
      vertex 65.0429 93 19.5
      vertex 33 93 1
    endloop
  endfacet
  facet normal 0 1 -0
    outer loop
      vertex 4.42116 93 21.5
      vertex 0.95706 93 32
      vertex 4.42116 93 32
    endloop
  endfacet
  facet normal 0 1 0
    outer loop
      vertex 4.42116 93 21.5
      vertex 0.95706 93 19.5
      vertex 0.95706 93 32
    endloop
  endfacet
  facet normal 0 1 0
    outer loop
      vertex 33 93 5
      vertex 0.95706 93 19.5
      vertex 4.42116 93 21.5
    endloop
  endfacet
  facet normal 0 1 0
    outer loop
      vertex 0.95706 93 19.5
      vertex 33 93 5
      vertex 33 93 1
    endloop
  endfacet
  facet normal 0.5 0 0.866025
    outer loop
      vertex 0.95706 98.5 19.5
      vertex 33 93 1
      vertex 33 98.5 1
    endloop
  endfacet
  facet normal 0.5 0 0.866025
    outer loop
      vertex 33 93 1
      vertex 0.95706 98.5 19.5
      vertex 0.95706 93 19.5
    endloop
  endfacet
  facet normal 1 -0 0
    outer loop
      vertex 0.95706 93 32
      vertex 0.95706 98.5 19.5
      vertex 0.95706 98.5 32
    endloop
  endfacet
  facet normal 1 0 0
    outer loop
      vertex 0.95706 98.5 19.5
      vertex 0.95706 93 32
      vertex 0.95706 93 19.5
    endloop
  endfacet
  facet normal 0 -1 0
    outer loop
      vertex 0.95706 98.5 32
      vertex 4.42116 98.5 21.5
      vertex 4.42116 98.5 32
    endloop
  endfacet
  facet normal 0 -1 0
    outer loop
      vertex 0.95706 98.5 19.5
      vertex 4.42116 98.5 21.5
      vertex 0.95706 98.5 32
    endloop
  endfacet
  facet normal 0 -1 0
    outer loop
      vertex 0.95706 98.5 19.5
      vertex 33 98.5 5
      vertex 4.42116 98.5 21.5
    endloop
  endfacet
  facet normal -0 -1 -0
    outer loop
      vertex 33 98.5 5
      vertex 0.95706 98.5 19.5
      vertex 33 98.5 1
    endloop
  endfacet
  facet normal 0 -1 0
    outer loop
      vertex 61.5788 98.5 21.5
      vertex 65.0429 98.5 32
      vertex 61.5788 98.5 32
    endloop
  endfacet
  facet normal 0 -1 0
    outer loop
      vertex 61.5788 98.5 21.5
      vertex 65.0429 98.5 19.5
      vertex 65.0429 98.5 32
    endloop
  endfacet
  facet normal 0 -1 0
    outer loop
      vertex 33 98.5 5
      vertex 65.0429 98.5 19.5
      vertex 61.5788 98.5 21.5
    endloop
  endfacet
  facet normal 0 -1 0
    outer loop
      vertex 65.0429 98.5 19.5
      vertex 33 98.5 5
      vertex 33 98.5 1
    endloop
  endfacet
  facet normal -0.5 0 0.866025
    outer loop
      vertex 33 98.5 1
      vertex 65.0429 93 19.5
      vertex 65.0429 98.5 19.5
    endloop
  endfacet
  facet normal -0.5 0 0.866025
    outer loop
      vertex 65.0429 93 19.5
      vertex 33 98.5 1
      vertex 33 93 1
    endloop
  endfacet
  facet normal -1 0 0
    outer loop
      vertex 65.0429 93 19.5
      vertex 65.0429 98.5 32
      vertex 65.0429 98.5 19.5
    endloop
  endfacet
  facet normal -1 -0 0
    outer loop
      vertex 65.0429 98.5 32
      vertex 65.0429 93 19.5
      vertex 65.0429 93 32
    endloop
  endfacet
endsolid OpenSCAD_Model
