solid OpenSCAD_Model
  facet normal -1 0 0
    outer loop
      vertex 0 0 0
      vertex 0 93.5 32
      vertex 0 93.5 0
    endloop
  endfacet
  facet normal -1 -0 0
    outer loop
      vertex 0 93.5 32
      vertex 0 0 0
      vertex 0 0 32
    endloop
  endfacet
  facet normal -0 0 1
    outer loop
      vertex 61.5788 26 32
      vertex 65.0429 6.5 32
      vertex 65.0429 26 32
    endloop
  endfacet
  facet normal 0 0 1
    outer loop
      vertex 65.0429 6.5 32
      vertex 61.5788 26 32
      vertex 61.5788 6.5 32
    endloop
  endfacet
  facet normal -0 0 1
    outer loop
      vertex 61.5788 56.5 32
      vertex 65.0429 37 32
      vertex 65.0429 56.5 32
    endloop
  endfacet
  facet normal 0 0 1
    outer loop
      vertex 65.0429 37 32
      vertex 61.5788 56.5 32
      vertex 61.5788 37 32
    endloop
  endfacet
  facet normal -0 0 1
    outer loop
      vertex 61.5788 87 32
      vertex 65.0429 67.5 32
      vertex 65.0429 87 32
    endloop
  endfacet
  facet normal 0 0 1
    outer loop
      vertex 65.0429 67.5 32
      vertex 61.5788 87 32
      vertex 61.5788 67.5 32
    endloop
  endfacet
  facet normal 0 0 1
    outer loop
      vertex 65.0429 87 32
      vertex 66 93.5 32
      vertex 65.0429 92.5 32
    endloop
  endfacet
  facet normal -0 0 1
    outer loop
      vertex 61.5788 93.5 32
      vertex 65.0429 92.5 32
      vertex 66 93.5 32
    endloop
  endfacet
  facet normal 0 0 1
    outer loop
      vertex 65.0429 92.5 32
      vertex 61.5788 93.5 32
      vertex 61.5788 92.5 32
    endloop
  endfacet
  facet normal 0 0 1
    outer loop
      vertex 65.0429 67.5 32
      vertex 66 93.5 32
      vertex 65.0429 87 32
    endloop
  endfacet
  facet normal 0 0 1
    outer loop
      vertex 65.0429 56.5 32
      vertex 66 93.5 32
      vertex 65.0429 67.5 32
    endloop
  endfacet
  facet normal 0 0 1
    outer loop
      vertex 66 93.5 32
      vertex 65.0429 56.5 32
      vertex 66 0 32
    endloop
  endfacet
  facet normal -0 0 1
    outer loop
      vertex 65.0429 37 32
      vertex 66 0 32
      vertex 65.0429 56.5 32
    endloop
  endfacet
  facet normal -0 0 1
    outer loop
      vertex 65.0429 26 32
      vertex 66 0 32
      vertex 65.0429 37 32
    endloop
  endfacet
  facet normal -0 0 1
    outer loop
      vertex 65.0429 6.5 32
      vertex 66 0 32
      vertex 65.0429 26 32
    endloop
  endfacet
  facet normal -0 0 1
    outer loop
      vertex 65.0429 1 32
      vertex 66 0 32
      vertex 65.0429 6.5 32
    endloop
  endfacet
  facet normal 0 0 1
    outer loop
      vertex 61.5788 0 32
      vertex 65.0429 1 32
      vertex 61.5788 1 32
    endloop
  endfacet
  facet normal 0 0 1
    outer loop
      vertex 65.0429 1 32
      vertex 61.5788 0 32
      vertex 66 0 32
    endloop
  endfacet
  facet normal 0 0 1
    outer loop
      vertex 4.42116 93.5 32
      vertex 0.95706 92.5 32
      vertex 4.42116 92.5 32
    endloop
  endfacet
  facet normal 0 0 1
    outer loop
      vertex 0 93.5 32
      vertex 0.95706 87 32
      vertex 0.95706 92.5 32
    endloop
  endfacet
  facet normal 0 0 1
    outer loop
      vertex 0.95706 87 32
      vertex 0 93.5 32
      vertex 0.95706 67.5 32
    endloop
  endfacet
  facet normal 0 0 1
    outer loop
      vertex 0.95706 67.5 32
      vertex 0 93.5 32
      vertex 0.95706 56.5 32
    endloop
  endfacet
  facet normal 0 0 1
    outer loop
      vertex 0.95706 56.5 32
      vertex 0 93.5 32
      vertex 0.95706 37 32
    endloop
  endfacet
  facet normal 0 0 1
    outer loop
      vertex 0 0 32
      vertex 0.95706 37 32
      vertex 0 93.5 32
    endloop
  endfacet
  facet normal 0 0 1
    outer loop
      vertex 0.95706 37 32
      vertex 0 0 32
      vertex 0.95706 26 32
    endloop
  endfacet
  facet normal 0 0 1
    outer loop
      vertex 0.95706 26 32
      vertex 0 0 32
      vertex 0.95706 6.5 32
    endloop
  endfacet
  facet normal -0 0 1
    outer loop
      vertex 0 93.5 32
      vertex 0.95706 92.5 32
      vertex 4.42116 93.5 32
    endloop
  endfacet
  facet normal -0 0 1
    outer loop
      vertex 0.95706 87 32
      vertex 4.42116 67.5 32
      vertex 4.42116 87 32
    endloop
  endfacet
  facet normal 0 0 1
    outer loop
      vertex 4.42116 67.5 32
      vertex 0.95706 87 32
      vertex 0.95706 67.5 32
    endloop
  endfacet
  facet normal -0 0 1
    outer loop
      vertex 0.95706 56.5 32
      vertex 4.42116 37 32
      vertex 4.42116 56.5 32
    endloop
  endfacet
  facet normal 0 0 1
    outer loop
      vertex 4.42116 37 32
      vertex 0.95706 56.5 32
      vertex 0.95706 37 32
    endloop
  endfacet
  facet normal -0 0 1
    outer loop
      vertex 0.95706 26 32
      vertex 4.42116 6.5 32
      vertex 4.42116 26 32
    endloop
  endfacet
  facet normal 0 0 1
    outer loop
      vertex 4.42116 6.5 32
      vertex 0.95706 26 32
      vertex 0.95706 6.5 32
    endloop
  endfacet
  facet normal -0 0 1
    outer loop
      vertex 0.95706 1 32
      vertex 4.42116 0 32
      vertex 4.42116 1 32
    endloop
  endfacet
  facet normal 0 0 1
    outer loop
      vertex 0.95706 1 32
      vertex 0 0 32
      vertex 4.42116 0 32
    endloop
  endfacet
  facet normal 0 0 1
    outer loop
      vertex 0.95706 6.5 32
      vertex 0 0 32
      vertex 0.95706 1 32
    endloop
  endfacet
  facet normal 1 -0 0
    outer loop
      vertex 66 0 32
      vertex 66 93.5 0
      vertex 66 93.5 32
    endloop
  endfacet
  facet normal 1 0 0
    outer loop
      vertex 66 93.5 0
      vertex 66 0 32
      vertex 66 0 0
    endloop
  endfacet
  facet normal 0 1 0
    outer loop
      vertex 66 93.5 32
      vertex 61.5788 93.5 21.5
      vertex 61.5788 93.5 32
    endloop
  endfacet
  facet normal 0 1 0
    outer loop
      vertex 61.5788 93.5 21.5
      vertex 66 93.5 0
      vertex 33 93.5 5
    endloop
  endfacet
  facet normal 0 1 -0
    outer loop
      vertex 66 93.5 0
      vertex 61.5788 93.5 21.5
      vertex 66 93.5 32
    endloop
  endfacet
  facet normal 0 1 -0
    outer loop
      vertex 4.42116 93.5 21.5
      vertex 0 93.5 32
      vertex 4.42116 93.5 32
    endloop
  endfacet
  facet normal 0 1 0
    outer loop
      vertex 4.42116 93.5 21.5
      vertex 0 93.5 0
      vertex 0 93.5 32
    endloop
  endfacet
  facet normal 0 1 0
    outer loop
      vertex 33 93.5 5
      vertex 0 93.5 0
      vertex 4.42116 93.5 21.5
    endloop
  endfacet
  facet normal 0 1 0
    outer loop
      vertex 0 93.5 0
      vertex 33 93.5 5
      vertex 66 93.5 0
    endloop
  endfacet
  facet normal 0 0 -1
    outer loop
      vertex 0 0 0
      vertex 66 93.5 0
      vertex 66 0 0
    endloop
  endfacet
  facet normal -0 0 -1
    outer loop
      vertex 66 93.5 0
      vertex 0 0 0
      vertex 0 93.5 0
    endloop
  endfacet
  facet normal 0 -1 0
    outer loop
      vertex 0 0 32
      vertex 4.42116 0 21.5
      vertex 4.42116 0 32
    endloop
  endfacet
  facet normal 0 -1 -0
    outer loop
      vertex 4.42116 0 21.5
      vertex 0 0 0
      vertex 33 0 5
    endloop
  endfacet
  facet normal 0 -1 0
    outer loop
      vertex 0 0 0
      vertex 4.42116 0 21.5
      vertex 0 0 32
    endloop
  endfacet
  facet normal 0 -1 0
    outer loop
      vertex 61.5788 0 21.5
      vertex 66 0 32
      vertex 61.5788 0 32
    endloop
  endfacet
  facet normal 0 -1 0
    outer loop
      vertex 61.5788 0 21.5
      vertex 66 0 0
      vertex 66 0 32
    endloop
  endfacet
  facet normal 0 -1 0
    outer loop
      vertex 33 0 5
      vertex 66 0 0
      vertex 61.5788 0 21.5
    endloop
  endfacet
  facet normal 0 -1 0
    outer loop
      vertex 66 0 0
      vertex 33 0 5
      vertex 0 0 0
    endloop
  endfacet
  facet normal 0.5 0 0.866025
    outer loop
      vertex 4.42116 1 21.5
      vertex 33 0 5
      vertex 33 1 5
    endloop
  endfacet
  facet normal 0.5 0 0.866025
    outer loop
      vertex 33 0 5
      vertex 4.42116 1 21.5
      vertex 4.42116 0 21.5
    endloop
  endfacet
  facet normal 0.5 0 0.866025
    outer loop
      vertex 4.42116 93.5 21.5
      vertex 33 92.5 5
      vertex 33 93.5 5
    endloop
  endfacet
  facet normal 0.5 0 0.866025
    outer loop
      vertex 33 92.5 5
      vertex 4.42116 93.5 21.5
      vertex 4.42116 92.5 21.5
    endloop
  endfacet
  facet normal 0.5 0 0.866025
    outer loop
      vertex 4.42116 26 21.5
      vertex 33 6.5 5
      vertex 33 26 5
    endloop
  endfacet
  facet normal 0.5 0 0.866025
    outer loop
      vertex 33 6.5 5
      vertex 4.42116 26 21.5
      vertex 4.42116 6.5 21.5
    endloop
  endfacet
  facet normal 0.5 0 0.866025
    outer loop
      vertex 4.42116 56.5 21.5
      vertex 33 37 5
      vertex 33 56.5 5
    endloop
  endfacet
  facet normal 0.5 0 0.866025
    outer loop
      vertex 33 37 5
      vertex 4.42116 56.5 21.5
      vertex 4.42116 37 21.5
    endloop
  endfacet
  facet normal 0.5 0 0.866025
    outer loop
      vertex 4.42116 87 21.5
      vertex 33 67.5 5
      vertex 33 87 5
    endloop
  endfacet
  facet normal 0.5 0 0.866025
    outer loop
      vertex 33 67.5 5
      vertex 4.42116 87 21.5
      vertex 4.42116 67.5 21.5
    endloop
  endfacet
  facet normal 1 -0 0
    outer loop
      vertex 4.42116 0 32
      vertex 4.42116 1 21.5
      vertex 4.42116 1 32
    endloop
  endfacet
  facet normal 1 0 0
    outer loop
      vertex 4.42116 1 21.5
      vertex 4.42116 0 32
      vertex 4.42116 0 21.5
    endloop
  endfacet
  facet normal 1 -0 0
    outer loop
      vertex 4.42116 92.5 32
      vertex 4.42116 93.5 21.5
      vertex 4.42116 93.5 32
    endloop
  endfacet
  facet normal 1 0 0
    outer loop
      vertex 4.42116 93.5 21.5
      vertex 4.42116 92.5 32
      vertex 4.42116 92.5 21.5
    endloop
  endfacet
  facet normal 1 -0 0
    outer loop
      vertex 4.42116 6.5 32
      vertex 4.42116 26 21.5
      vertex 4.42116 26 32
    endloop
  endfacet
  facet normal 1 0 0
    outer loop
      vertex 4.42116 26 21.5
      vertex 4.42116 6.5 32
      vertex 4.42116 6.5 21.5
    endloop
  endfacet
  facet normal 1 -0 0
    outer loop
      vertex 4.42116 37 32
      vertex 4.42116 56.5 21.5
      vertex 4.42116 56.5 32
    endloop
  endfacet
  facet normal 1 0 0
    outer loop
      vertex 4.42116 56.5 21.5
      vertex 4.42116 37 32
      vertex 4.42116 37 21.5
    endloop
  endfacet
  facet normal 1 -0 0
    outer loop
      vertex 4.42116 67.5 32
      vertex 4.42116 87 21.5
      vertex 4.42116 87 32
    endloop
  endfacet
  facet normal 1 0 0
    outer loop
      vertex 4.42116 87 21.5
      vertex 4.42116 67.5 32
      vertex 4.42116 67.5 21.5
    endloop
  endfacet
  facet normal -0.500001 0 0.866025
    outer loop
      vertex 33 1 5
      vertex 61.5788 0 21.5
      vertex 61.5788 1 21.5
    endloop
  endfacet
  facet normal -0.500001 0 0.866025
    outer loop
      vertex 61.5788 0 21.5
      vertex 33 1 5
      vertex 33 0 5
    endloop
  endfacet
  facet normal -0.500001 0 0.866025
    outer loop
      vertex 33 93.5 5
      vertex 61.5788 92.5 21.5
      vertex 61.5788 93.5 21.5
    endloop
  endfacet
  facet normal -0.500001 0 0.866025
    outer loop
      vertex 61.5788 92.5 21.5
      vertex 33 93.5 5
      vertex 33 92.5 5
    endloop
  endfacet
  facet normal -0.500001 0 0.866025
    outer loop
      vertex 33 26 5
      vertex 61.5788 6.5 21.5
      vertex 61.5788 26 21.5
    endloop
  endfacet
  facet normal -0.500001 0 0.866025
    outer loop
      vertex 61.5788 6.5 21.5
      vertex 33 26 5
      vertex 33 6.5 5
    endloop
  endfacet
  facet normal -0.500001 0 0.866025
    outer loop
      vertex 33 56.5 5
      vertex 61.5788 37 21.5
      vertex 61.5788 56.5 21.5
    endloop
  endfacet
  facet normal -0.500001 0 0.866025
    outer loop
      vertex 61.5788 37 21.5
      vertex 33 56.5 5
      vertex 33 37 5
    endloop
  endfacet
  facet normal -0.500001 0 0.866025
    outer loop
      vertex 33 87 5
      vertex 61.5788 67.5 21.5
      vertex 61.5788 87 21.5
    endloop
  endfacet
  facet normal -0.500001 0 0.866025
    outer loop
      vertex 61.5788 67.5 21.5
      vertex 33 87 5
      vertex 33 67.5 5
    endloop
  endfacet
  facet normal -1 0 0
    outer loop
      vertex 61.5788 0 21.5
      vertex 61.5788 1 32
      vertex 61.5788 1 21.5
    endloop
  endfacet
  facet normal -1 -0 0
    outer loop
      vertex 61.5788 1 32
      vertex 61.5788 0 21.5
      vertex 61.5788 0 32
    endloop
  endfacet
  facet normal -1 0 0
    outer loop
      vertex 61.5788 92.5 21.5
      vertex 61.5788 93.5 32
      vertex 61.5788 93.5 21.5
    endloop
  endfacet
  facet normal -1 -0 0
    outer loop
      vertex 61.5788 93.5 32
      vertex 61.5788 92.5 21.5
      vertex 61.5788 92.5 32
    endloop
  endfacet
  facet normal -1 0 0
    outer loop
      vertex 61.5788 6.5 21.5
      vertex 61.5788 26 32
      vertex 61.5788 26 21.5
    endloop
  endfacet
  facet normal -1 -0 0
    outer loop
      vertex 61.5788 26 32
      vertex 61.5788 6.5 21.5
      vertex 61.5788 6.5 32
    endloop
  endfacet
  facet normal -1 0 0
    outer loop
      vertex 61.5788 37 21.5
      vertex 61.5788 56.5 32
      vertex 61.5788 56.5 21.5
    endloop
  endfacet
  facet normal -1 -0 0
    outer loop
      vertex 61.5788 56.5 32
      vertex 61.5788 37 21.5
      vertex 61.5788 37 32
    endloop
  endfacet
  facet normal -1 0 0
    outer loop
      vertex 61.5788 67.5 21.5
      vertex 61.5788 87 32
      vertex 61.5788 87 21.5
    endloop
  endfacet
  facet normal -1 -0 0
    outer loop
      vertex 61.5788 87 32
      vertex 61.5788 67.5 21.5
      vertex 61.5788 67.5 32
    endloop
  endfacet
  facet normal 0 1 0
    outer loop
      vertex 65.0429 1 32
      vertex 61.5788 1 21.5
      vertex 61.5788 1 32
    endloop
  endfacet
  facet normal 0 1 -0
    outer loop
      vertex 65.0429 1 19.5
      vertex 61.5788 1 21.5
      vertex 65.0429 1 32
    endloop
  endfacet
  facet normal 0 1 0
    outer loop
      vertex 65.0429 1 19.5
      vertex 33 1 5
      vertex 61.5788 1 21.5
    endloop
  endfacet
  facet normal -0 1 0
    outer loop
      vertex 33 1 5
      vertex 65.0429 1 19.5
      vertex 33 1 1
    endloop
  endfacet
  facet normal 0 1 -0
    outer loop
      vertex 4.42116 1 21.5
      vertex 0.95706 1 32
      vertex 4.42116 1 32
    endloop
  endfacet
  facet normal 0 1 0
    outer loop
      vertex 4.42116 1 21.5
      vertex 0.95706 1 19.5
      vertex 0.95706 1 32
    endloop
  endfacet
  facet normal 0 1 0
    outer loop
      vertex 33 1 5
      vertex 0.95706 1 19.5
      vertex 4.42116 1 21.5
    endloop
  endfacet
  facet normal 0 1 0
    outer loop
      vertex 0.95706 1 19.5
      vertex 33 1 5
      vertex 33 1 1
    endloop
  endfacet
  facet normal 0.5 0 0.866025
    outer loop
      vertex 0.95706 6.5 19.5
      vertex 33 1 1
      vertex 33 6.5 1
    endloop
  endfacet
  facet normal 0.5 0 0.866025
    outer loop
      vertex 33 1 1
      vertex 0.95706 6.5 19.5
      vertex 0.95706 1 19.5
    endloop
  endfacet
  facet normal 1 -0 0
    outer loop
      vertex 0.95706 1 32
      vertex 0.95706 6.5 19.5
      vertex 0.95706 6.5 32
    endloop
  endfacet
  facet normal 1 0 0
    outer loop
      vertex 0.95706 6.5 19.5
      vertex 0.95706 1 32
      vertex 0.95706 1 19.5
    endloop
  endfacet
  facet normal 0 -1 0
    outer loop
      vertex 0.95706 6.5 32
      vertex 4.42116 6.5 21.5
      vertex 4.42116 6.5 32
    endloop
  endfacet
  facet normal 0 -1 0
    outer loop
      vertex 0.95706 6.5 19.5
      vertex 4.42116 6.5 21.5
      vertex 0.95706 6.5 32
    endloop
  endfacet
  facet normal 0 -1 0
    outer loop
      vertex 0.95706 6.5 19.5
      vertex 33 6.5 5
      vertex 4.42116 6.5 21.5
    endloop
  endfacet
  facet normal -0 -1 -0
    outer loop
      vertex 33 6.5 5
      vertex 0.95706 6.5 19.5
      vertex 33 6.5 1
    endloop
  endfacet
  facet normal 0 -1 0
    outer loop
      vertex 61.5788 6.5 21.5
      vertex 65.0429 6.5 32
      vertex 61.5788 6.5 32
    endloop
  endfacet
  facet normal 0 -1 0
    outer loop
      vertex 61.5788 6.5 21.5
      vertex 65.0429 6.5 19.5
      vertex 65.0429 6.5 32
    endloop
  endfacet
  facet normal 0 -1 0
    outer loop
      vertex 33 6.5 5
      vertex 65.0429 6.5 19.5
      vertex 61.5788 6.5 21.5
    endloop
  endfacet
  facet normal 0 -1 0
    outer loop
      vertex 65.0429 6.5 19.5
      vertex 33 6.5 5
      vertex 33 6.5 1
    endloop
  endfacet
  facet normal -0.5 0 0.866025
    outer loop
      vertex 33 6.5 1
      vertex 65.0429 1 19.5
      vertex 65.0429 6.5 19.5
    endloop
  endfacet
  facet normal -0.5 0 0.866025
    outer loop
      vertex 65.0429 1 19.5
      vertex 33 6.5 1
      vertex 33 1 1
    endloop
  endfacet
  facet normal -1 0 0
    outer loop
      vertex 65.0429 1 19.5
      vertex 65.0429 6.5 32
      vertex 65.0429 6.5 19.5
    endloop
  endfacet
  facet normal -1 -0 0
    outer loop
      vertex 65.0429 6.5 32
      vertex 65.0429 1 19.5
      vertex 65.0429 1 32
    endloop
  endfacet
  facet normal 0 1 0
    outer loop
      vertex 65.0429 26 32
      vertex 61.5788 26 21.5
      vertex 61.5788 26 32
    endloop
  endfacet
  facet normal 0 1 -0
    outer loop
      vertex 65.0429 26 19.5
      vertex 61.5788 26 21.5
      vertex 65.0429 26 32
    endloop
  endfacet
  facet normal 0 1 0
    outer loop
      vertex 65.0429 26 19.5
      vertex 33 26 5
      vertex 61.5788 26 21.5
    endloop
  endfacet
  facet normal -0 1 0
    outer loop
      vertex 33 26 5
      vertex 65.0429 26 19.5
      vertex 33 26 1
    endloop
  endfacet
  facet normal 0 1 -0
    outer loop
      vertex 4.42116 26 21.5
      vertex 0.95706 26 32
      vertex 4.42116 26 32
    endloop
  endfacet
  facet normal 0 1 0
    outer loop
      vertex 4.42116 26 21.5
      vertex 0.95706 26 19.5
      vertex 0.95706 26 32
    endloop
  endfacet
  facet normal 0 1 0
    outer loop
      vertex 33 26 5
      vertex 0.95706 26 19.5
      vertex 4.42116 26 21.5
    endloop
  endfacet
  facet normal 0 1 0
    outer loop
      vertex 0.95706 26 19.5
      vertex 33 26 5
      vertex 33 26 1
    endloop
  endfacet
  facet normal 0.5 0 0.866025
    outer loop
      vertex 0.95706 37 19.5
      vertex 33 26 1
      vertex 33 37 1
    endloop
  endfacet
  facet normal 0.5 0 0.866025
    outer loop
      vertex 33 26 1
      vertex 0.95706 37 19.5
      vertex 0.95706 26 19.5
    endloop
  endfacet
  facet normal 1 -0 0
    outer loop
      vertex 0.95706 26 32
      vertex 0.95706 37 19.5
      vertex 0.95706 37 32
    endloop
  endfacet
  facet normal 1 0 0
    outer loop
      vertex 0.95706 37 19.5
      vertex 0.95706 26 32
      vertex 0.95706 26 19.5
    endloop
  endfacet
  facet normal -0.5 0 0.866025
    outer loop
      vertex 33 37 1
      vertex 65.0429 26 19.5
      vertex 65.0429 37 19.5
    endloop
  endfacet
  facet normal -0.5 0 0.866025
    outer loop
      vertex 65.0429 26 19.5
      vertex 33 37 1
      vertex 33 26 1
    endloop
  endfacet
  facet normal -1 0 0
    outer loop
      vertex 65.0429 26 19.5
      vertex 65.0429 37 32
      vertex 65.0429 37 19.5
    endloop
  endfacet
  facet normal -1 -0 0
    outer loop
      vertex 65.0429 37 32
      vertex 65.0429 26 19.5
      vertex 65.0429 26 32
    endloop
  endfacet
  facet normal 0 -1 0
    outer loop
      vertex 0.95706 37 32
      vertex 4.42116 37 21.5
      vertex 4.42116 37 32
    endloop
  endfacet
  facet normal 0 -1 0
    outer loop
      vertex 0.95706 37 19.5
      vertex 4.42116 37 21.5
      vertex 0.95706 37 32
    endloop
  endfacet
  facet normal 0 -1 0
    outer loop
      vertex 0.95706 37 19.5
      vertex 33 37 5
      vertex 4.42116 37 21.5
    endloop
  endfacet
  facet normal -0 -1 -0
    outer loop
      vertex 33 37 5
      vertex 0.95706 37 19.5
      vertex 33 37 1
    endloop
  endfacet
  facet normal 0 -1 0
    outer loop
      vertex 61.5788 37 21.5
      vertex 65.0429 37 32
      vertex 61.5788 37 32
    endloop
  endfacet
  facet normal 0 -1 0
    outer loop
      vertex 61.5788 37 21.5
      vertex 65.0429 37 19.5
      vertex 65.0429 37 32
    endloop
  endfacet
  facet normal 0 -1 0
    outer loop
      vertex 33 37 5
      vertex 65.0429 37 19.5
      vertex 61.5788 37 21.5
    endloop
  endfacet
  facet normal 0 -1 0
    outer loop
      vertex 65.0429 37 19.5
      vertex 33 37 5
      vertex 33 37 1
    endloop
  endfacet
  facet normal 0 1 0
    outer loop
      vertex 65.0429 56.5 32
      vertex 61.5788 56.5 21.5
      vertex 61.5788 56.5 32
    endloop
  endfacet
  facet normal 0 1 -0
    outer loop
      vertex 65.0429 56.5 19.5
      vertex 61.5788 56.5 21.5
      vertex 65.0429 56.5 32
    endloop
  endfacet
  facet normal 0 1 0
    outer loop
      vertex 65.0429 56.5 19.5
      vertex 33 56.5 5
      vertex 61.5788 56.5 21.5
    endloop
  endfacet
  facet normal -0 1 0
    outer loop
      vertex 33 56.5 5
      vertex 65.0429 56.5 19.5
      vertex 33 56.5 1
    endloop
  endfacet
  facet normal 0 1 -0
    outer loop
      vertex 4.42116 56.5 21.5
      vertex 0.95706 56.5 32
      vertex 4.42116 56.5 32
    endloop
  endfacet
  facet normal 0 1 0
    outer loop
      vertex 4.42116 56.5 21.5
      vertex 0.95706 56.5 19.5
      vertex 0.95706 56.5 32
    endloop
  endfacet
  facet normal 0 1 0
    outer loop
      vertex 33 56.5 5
      vertex 0.95706 56.5 19.5
      vertex 4.42116 56.5 21.5
    endloop
  endfacet
  facet normal 0 1 0
    outer loop
      vertex 0.95706 56.5 19.5
      vertex 33 56.5 5
      vertex 33 56.5 1
    endloop
  endfacet
  facet normal 0.5 0 0.866025
    outer loop
      vertex 0.95706 67.5 19.5
      vertex 33 56.5 1
      vertex 33 67.5 1
    endloop
  endfacet
  facet normal 0.5 0 0.866025
    outer loop
      vertex 33 56.5 1
      vertex 0.95706 67.5 19.5
      vertex 0.95706 56.5 19.5
    endloop
  endfacet
  facet normal 1 -0 0
    outer loop
      vertex 0.95706 56.5 32
      vertex 0.95706 67.5 19.5
      vertex 0.95706 67.5 32
    endloop
  endfacet
  facet normal 1 0 0
    outer loop
      vertex 0.95706 67.5 19.5
      vertex 0.95706 56.5 32
      vertex 0.95706 56.5 19.5
    endloop
  endfacet
  facet normal -0.5 0 0.866025
    outer loop
      vertex 33 67.5 1
      vertex 65.0429 56.5 19.5
      vertex 65.0429 67.5 19.5
    endloop
  endfacet
  facet normal -0.5 0 0.866025
    outer loop
      vertex 65.0429 56.5 19.5
      vertex 33 67.5 1
      vertex 33 56.5 1
    endloop
  endfacet
  facet normal -1 0 0
    outer loop
      vertex 65.0429 56.5 19.5
      vertex 65.0429 67.5 32
      vertex 65.0429 67.5 19.5
    endloop
  endfacet
  facet normal -1 -0 0
    outer loop
      vertex 65.0429 67.5 32
      vertex 65.0429 56.5 19.5
      vertex 65.0429 56.5 32
    endloop
  endfacet
  facet normal 0 -1 0
    outer loop
      vertex 0.95706 67.5 32
      vertex 4.42116 67.5 21.5
      vertex 4.42116 67.5 32
    endloop
  endfacet
  facet normal 0 -1 0
    outer loop
      vertex 0.95706 67.5 19.5
      vertex 4.42116 67.5 21.5
      vertex 0.95706 67.5 32
    endloop
  endfacet
  facet normal 0 -1 0
    outer loop
      vertex 0.95706 67.5 19.5
      vertex 33 67.5 5
      vertex 4.42116 67.5 21.5
    endloop
  endfacet
  facet normal -0 -1 -0
    outer loop
      vertex 33 67.5 5
      vertex 0.95706 67.5 19.5
      vertex 33 67.5 1
    endloop
  endfacet
  facet normal 0 -1 0
    outer loop
      vertex 61.5788 67.5 21.5
      vertex 65.0429 67.5 32
      vertex 61.5788 67.5 32
    endloop
  endfacet
  facet normal 0 -1 0
    outer loop
      vertex 61.5788 67.5 21.5
      vertex 65.0429 67.5 19.5
      vertex 65.0429 67.5 32
    endloop
  endfacet
  facet normal 0 -1 0
    outer loop
      vertex 33 67.5 5
      vertex 65.0429 67.5 19.5
      vertex 61.5788 67.5 21.5
    endloop
  endfacet
  facet normal 0 -1 0
    outer loop
      vertex 65.0429 67.5 19.5
      vertex 33 67.5 5
      vertex 33 67.5 1
    endloop
  endfacet
  facet normal 0 1 0
    outer loop
      vertex 65.0429 87 32
      vertex 61.5788 87 21.5
      vertex 61.5788 87 32
    endloop
  endfacet
  facet normal 0 1 -0
    outer loop
      vertex 65.0429 87 19.5
      vertex 61.5788 87 21.5
      vertex 65.0429 87 32
    endloop
  endfacet
  facet normal 0 1 0
    outer loop
      vertex 65.0429 87 19.5
      vertex 33 87 5
      vertex 61.5788 87 21.5
    endloop
  endfacet
  facet normal -0 1 0
    outer loop
      vertex 33 87 5
      vertex 65.0429 87 19.5
      vertex 33 87 1
    endloop
  endfacet
  facet normal 0 1 -0
    outer loop
      vertex 4.42116 87 21.5
      vertex 0.95706 87 32
      vertex 4.42116 87 32
    endloop
  endfacet
  facet normal 0 1 0
    outer loop
      vertex 4.42116 87 21.5
      vertex 0.95706 87 19.5
      vertex 0.95706 87 32
    endloop
  endfacet
  facet normal 0 1 0
    outer loop
      vertex 33 87 5
      vertex 0.95706 87 19.5
      vertex 4.42116 87 21.5
    endloop
  endfacet
  facet normal 0 1 0
    outer loop
      vertex 0.95706 87 19.5
      vertex 33 87 5
      vertex 33 87 1
    endloop
  endfacet
  facet normal 0.5 0 0.866025
    outer loop
      vertex 0.95706 92.5 19.5
      vertex 33 87 1
      vertex 33 92.5 1
    endloop
  endfacet
  facet normal 0.5 0 0.866025
    outer loop
      vertex 33 87 1
      vertex 0.95706 92.5 19.5
      vertex 0.95706 87 19.5
    endloop
  endfacet
  facet normal 1 -0 0
    outer loop
      vertex 0.95706 87 32
      vertex 0.95706 92.5 19.5
      vertex 0.95706 92.5 32
    endloop
  endfacet
  facet normal 1 0 0
    outer loop
      vertex 0.95706 92.5 19.5
      vertex 0.95706 87 32
      vertex 0.95706 87 19.5
    endloop
  endfacet
  facet normal 0 -1 0
    outer loop
      vertex 0.95706 92.5 32
      vertex 4.42116 92.5 21.5
      vertex 4.42116 92.5 32
    endloop
  endfacet
  facet normal 0 -1 0
    outer loop
      vertex 0.95706 92.5 19.5
      vertex 4.42116 92.5 21.5
      vertex 0.95706 92.5 32
    endloop
  endfacet
  facet normal 0 -1 0
    outer loop
      vertex 0.95706 92.5 19.5
      vertex 33 92.5 5
      vertex 4.42116 92.5 21.5
    endloop
  endfacet
  facet normal -0 -1 -0
    outer loop
      vertex 33 92.5 5
      vertex 0.95706 92.5 19.5
      vertex 33 92.5 1
    endloop
  endfacet
  facet normal 0 -1 0
    outer loop
      vertex 61.5788 92.5 21.5
      vertex 65.0429 92.5 32
      vertex 61.5788 92.5 32
    endloop
  endfacet
  facet normal 0 -1 0
    outer loop
      vertex 61.5788 92.5 21.5
      vertex 65.0429 92.5 19.5
      vertex 65.0429 92.5 32
    endloop
  endfacet
  facet normal 0 -1 0
    outer loop
      vertex 33 92.5 5
      vertex 65.0429 92.5 19.5
      vertex 61.5788 92.5 21.5
    endloop
  endfacet
  facet normal 0 -1 0
    outer loop
      vertex 65.0429 92.5 19.5
      vertex 33 92.5 5
      vertex 33 92.5 1
    endloop
  endfacet
  facet normal -0.5 0 0.866025
    outer loop
      vertex 33 92.5 1
      vertex 65.0429 87 19.5
      vertex 65.0429 92.5 19.5
    endloop
  endfacet
  facet normal -0.5 0 0.866025
    outer loop
      vertex 65.0429 87 19.5
      vertex 33 92.5 1
      vertex 33 87 1
    endloop
  endfacet
  facet normal -1 0 0
    outer loop
      vertex 65.0429 87 19.5
      vertex 65.0429 92.5 32
      vertex 65.0429 92.5 19.5
    endloop
  endfacet
  facet normal -1 -0 0
    outer loop
      vertex 65.0429 92.5 32
      vertex 65.0429 87 19.5
      vertex 65.0429 87 32
    endloop
  endfacet
endsolid OpenSCAD_Model
