solid OpenSCAD_Model
  facet normal -1 0 0
    outer loop
      vertex 0 0 0
      vertex 0 75.5 32
      vertex 0 75.5 0
    endloop
  endfacet
  facet normal -1 -0 0
    outer loop
      vertex 0 75.5 32
      vertex 0 0 0
      vertex 0 0 32
    endloop
  endfacet
  facet normal -0 0 1
    outer loop
      vertex 61.5788 20 32
      vertex 65.0429 6.5 32
      vertex 65.0429 20 32
    endloop
  endfacet
  facet normal 0 0 1
    outer loop
      vertex 65.0429 6.5 32
      vertex 61.5788 20 32
      vertex 61.5788 6.5 32
    endloop
  endfacet
  facet normal -0 0 1
    outer loop
      vertex 61.5788 44.5 32
      vertex 65.0429 31 32
      vertex 65.0429 44.5 32
    endloop
  endfacet
  facet normal 0 0 1
    outer loop
      vertex 65.0429 31 32
      vertex 61.5788 44.5 32
      vertex 61.5788 31 32
    endloop
  endfacet
  facet normal -0 0 1
    outer loop
      vertex 61.5788 69 32
      vertex 65.0429 55.5 32
      vertex 65.0429 69 32
    endloop
  endfacet
  facet normal 0 0 1
    outer loop
      vertex 65.0429 55.5 32
      vertex 61.5788 69 32
      vertex 61.5788 55.5 32
    endloop
  endfacet
  facet normal 0 0 1
    outer loop
      vertex 65.0429 69 32
      vertex 66 75.5 32
      vertex 65.0429 74.5 32
    endloop
  endfacet
  facet normal -0 0 1
    outer loop
      vertex 61.5788 75.5 32
      vertex 65.0429 74.5 32
      vertex 66 75.5 32
    endloop
  endfacet
  facet normal 0 0 1
    outer loop
      vertex 65.0429 74.5 32
      vertex 61.5788 75.5 32
      vertex 61.5788 74.5 32
    endloop
  endfacet
  facet normal 0 0 1
    outer loop
      vertex 65.0429 55.5 32
      vertex 66 75.5 32
      vertex 65.0429 69 32
    endloop
  endfacet
  facet normal 0 0 1
    outer loop
      vertex 65.0429 44.5 32
      vertex 66 75.5 32
      vertex 65.0429 55.5 32
    endloop
  endfacet
  facet normal 0 0 1
    outer loop
      vertex 66 75.5 32
      vertex 65.0429 44.5 32
      vertex 66 0 32
    endloop
  endfacet
  facet normal -0 0 1
    outer loop
      vertex 65.0429 31 32
      vertex 66 0 32
      vertex 65.0429 44.5 32
    endloop
  endfacet
  facet normal -0 0 1
    outer loop
      vertex 65.0429 20 32
      vertex 66 0 32
      vertex 65.0429 31 32
    endloop
  endfacet
  facet normal -0 0 1
    outer loop
      vertex 65.0429 6.5 32
      vertex 66 0 32
      vertex 65.0429 20 32
    endloop
  endfacet
  facet normal -0 0 1
    outer loop
      vertex 65.0429 1 32
      vertex 66 0 32
      vertex 65.0429 6.5 32
    endloop
  endfacet
  facet normal 0 0 1
    outer loop
      vertex 61.5788 0 32
      vertex 65.0429 1 32
      vertex 61.5788 1 32
    endloop
  endfacet
  facet normal 0 0 1
    outer loop
      vertex 65.0429 1 32
      vertex 61.5788 0 32
      vertex 66 0 32
    endloop
  endfacet
  facet normal 0 0 1
    outer loop
      vertex 4.42116 75.5 32
      vertex 0.95706 74.5 32
      vertex 4.42116 74.5 32
    endloop
  endfacet
  facet normal 0 0 1
    outer loop
      vertex 0 75.5 32
      vertex 0.95706 69 32
      vertex 0.95706 74.5 32
    endloop
  endfacet
  facet normal 0 0 1
    outer loop
      vertex 0.95706 69 32
      vertex 0 75.5 32
      vertex 0.95706 55.5 32
    endloop
  endfacet
  facet normal 0 0 1
    outer loop
      vertex 0.95706 55.5 32
      vertex 0 75.5 32
      vertex 0.95706 44.5 32
    endloop
  endfacet
  facet normal 0 0 1
    outer loop
      vertex 0.95706 44.5 32
      vertex 0 75.5 32
      vertex 0.95706 31 32
    endloop
  endfacet
  facet normal 0 0 1
    outer loop
      vertex 0 0 32
      vertex 0.95706 31 32
      vertex 0 75.5 32
    endloop
  endfacet
  facet normal 0 0 1
    outer loop
      vertex 0.95706 31 32
      vertex 0 0 32
      vertex 0.95706 20 32
    endloop
  endfacet
  facet normal 0 0 1
    outer loop
      vertex 0.95706 20 32
      vertex 0 0 32
      vertex 0.95706 6.5 32
    endloop
  endfacet
  facet normal -0 0 1
    outer loop
      vertex 0 75.5 32
      vertex 0.95706 74.5 32
      vertex 4.42116 75.5 32
    endloop
  endfacet
  facet normal -0 0 1
    outer loop
      vertex 0.95706 69 32
      vertex 4.42116 55.5 32
      vertex 4.42116 69 32
    endloop
  endfacet
  facet normal 0 0 1
    outer loop
      vertex 4.42116 55.5 32
      vertex 0.95706 69 32
      vertex 0.95706 55.5 32
    endloop
  endfacet
  facet normal -0 0 1
    outer loop
      vertex 0.95706 44.5 32
      vertex 4.42116 31 32
      vertex 4.42116 44.5 32
    endloop
  endfacet
  facet normal 0 0 1
    outer loop
      vertex 4.42116 31 32
      vertex 0.95706 44.5 32
      vertex 0.95706 31 32
    endloop
  endfacet
  facet normal -0 0 1
    outer loop
      vertex 0.95706 20 32
      vertex 4.42116 6.5 32
      vertex 4.42116 20 32
    endloop
  endfacet
  facet normal 0 0 1
    outer loop
      vertex 4.42116 6.5 32
      vertex 0.95706 20 32
      vertex 0.95706 6.5 32
    endloop
  endfacet
  facet normal -0 0 1
    outer loop
      vertex 0.95706 1 32
      vertex 4.42116 0 32
      vertex 4.42116 1 32
    endloop
  endfacet
  facet normal 0 0 1
    outer loop
      vertex 0.95706 1 32
      vertex 0 0 32
      vertex 4.42116 0 32
    endloop
  endfacet
  facet normal 0 0 1
    outer loop
      vertex 0.95706 6.5 32
      vertex 0 0 32
      vertex 0.95706 1 32
    endloop
  endfacet
  facet normal 1 -0 0
    outer loop
      vertex 66 0 32
      vertex 66 75.5 0
      vertex 66 75.5 32
    endloop
  endfacet
  facet normal 1 0 0
    outer loop
      vertex 66 75.5 0
      vertex 66 0 32
      vertex 66 0 0
    endloop
  endfacet
  facet normal 0 0 -1
    outer loop
      vertex 0 0 0
      vertex 66 75.5 0
      vertex 66 0 0
    endloop
  endfacet
  facet normal -0 0 -1
    outer loop
      vertex 66 75.5 0
      vertex 0 0 0
      vertex 0 75.5 0
    endloop
  endfacet
  facet normal 0 -1 0
    outer loop
      vertex 0 0 32
      vertex 4.42116 0 21.5
      vertex 4.42116 0 32
    endloop
  endfacet
  facet normal 0 -1 -0
    outer loop
      vertex 4.42116 0 21.5
      vertex 0 0 0
      vertex 33 0 5
    endloop
  endfacet
  facet normal 0 -1 0
    outer loop
      vertex 0 0 0
      vertex 4.42116 0 21.5
      vertex 0 0 32
    endloop
  endfacet
  facet normal 0 -1 0
    outer loop
      vertex 61.5788 0 21.5
      vertex 66 0 32
      vertex 61.5788 0 32
    endloop
  endfacet
  facet normal 0 -1 0
    outer loop
      vertex 61.5788 0 21.5
      vertex 66 0 0
      vertex 66 0 32
    endloop
  endfacet
  facet normal 0 -1 0
    outer loop
      vertex 33 0 5
      vertex 66 0 0
      vertex 61.5788 0 21.5
    endloop
  endfacet
  facet normal 0 -1 0
    outer loop
      vertex 66 0 0
      vertex 33 0 5
      vertex 0 0 0
    endloop
  endfacet
  facet normal 0 1 0
    outer loop
      vertex 66 75.5 32
      vertex 61.5788 75.5 21.5
      vertex 61.5788 75.5 32
    endloop
  endfacet
  facet normal 0 1 0
    outer loop
      vertex 61.5788 75.5 21.5
      vertex 66 75.5 0
      vertex 33 75.5 5
    endloop
  endfacet
  facet normal 0 1 -0
    outer loop
      vertex 66 75.5 0
      vertex 61.5788 75.5 21.5
      vertex 66 75.5 32
    endloop
  endfacet
  facet normal 0 1 -0
    outer loop
      vertex 4.42116 75.5 21.5
      vertex 0 75.5 32
      vertex 4.42116 75.5 32
    endloop
  endfacet
  facet normal 0 1 0
    outer loop
      vertex 4.42116 75.5 21.5
      vertex 0 75.5 0
      vertex 0 75.5 32
    endloop
  endfacet
  facet normal 0 1 0
    outer loop
      vertex 33 75.5 5
      vertex 0 75.5 0
      vertex 4.42116 75.5 21.5
    endloop
  endfacet
  facet normal 0 1 0
    outer loop
      vertex 0 75.5 0
      vertex 33 75.5 5
      vertex 66 75.5 0
    endloop
  endfacet
  facet normal 0.5 0 0.866025
    outer loop
      vertex 4.42116 1 21.5
      vertex 33 0 5
      vertex 33 1 5
    endloop
  endfacet
  facet normal 0.5 0 0.866025
    outer loop
      vertex 33 0 5
      vertex 4.42116 1 21.5
      vertex 4.42116 0 21.5
    endloop
  endfacet
  facet normal 0.5 0 0.866025
    outer loop
      vertex 4.42116 75.5 21.5
      vertex 33 74.5 5
      vertex 33 75.5 5
    endloop
  endfacet
  facet normal 0.5 0 0.866025
    outer loop
      vertex 33 74.5 5
      vertex 4.42116 75.5 21.5
      vertex 4.42116 74.5 21.5
    endloop
  endfacet
  facet normal 0.5 0 0.866025
    outer loop
      vertex 4.42116 20 21.5
      vertex 33 6.5 5
      vertex 33 20 5
    endloop
  endfacet
  facet normal 0.5 0 0.866025
    outer loop
      vertex 33 6.5 5
      vertex 4.42116 20 21.5
      vertex 4.42116 6.5 21.5
    endloop
  endfacet
  facet normal 0.5 0 0.866025
    outer loop
      vertex 4.42116 44.5 21.5
      vertex 33 31 5
      vertex 33 44.5 5
    endloop
  endfacet
  facet normal 0.5 0 0.866025
    outer loop
      vertex 33 31 5
      vertex 4.42116 44.5 21.5
      vertex 4.42116 31 21.5
    endloop
  endfacet
  facet normal 0.5 0 0.866025
    outer loop
      vertex 4.42116 69 21.5
      vertex 33 55.5 5
      vertex 33 69 5
    endloop
  endfacet
  facet normal 0.5 0 0.866025
    outer loop
      vertex 33 55.5 5
      vertex 4.42116 69 21.5
      vertex 4.42116 55.5 21.5
    endloop
  endfacet
  facet normal 1 -0 0
    outer loop
      vertex 4.42116 0 32
      vertex 4.42116 1 21.5
      vertex 4.42116 1 32
    endloop
  endfacet
  facet normal 1 0 0
    outer loop
      vertex 4.42116 1 21.5
      vertex 4.42116 0 32
      vertex 4.42116 0 21.5
    endloop
  endfacet
  facet normal 1 -0 0
    outer loop
      vertex 4.42116 74.5 32
      vertex 4.42116 75.5 21.5
      vertex 4.42116 75.5 32
    endloop
  endfacet
  facet normal 1 0 0
    outer loop
      vertex 4.42116 75.5 21.5
      vertex 4.42116 74.5 32
      vertex 4.42116 74.5 21.5
    endloop
  endfacet
  facet normal 1 -0 0
    outer loop
      vertex 4.42116 6.5 32
      vertex 4.42116 20 21.5
      vertex 4.42116 20 32
    endloop
  endfacet
  facet normal 1 0 0
    outer loop
      vertex 4.42116 20 21.5
      vertex 4.42116 6.5 32
      vertex 4.42116 6.5 21.5
    endloop
  endfacet
  facet normal 1 -0 0
    outer loop
      vertex 4.42116 31 32
      vertex 4.42116 44.5 21.5
      vertex 4.42116 44.5 32
    endloop
  endfacet
  facet normal 1 0 0
    outer loop
      vertex 4.42116 44.5 21.5
      vertex 4.42116 31 32
      vertex 4.42116 31 21.5
    endloop
  endfacet
  facet normal 1 -0 0
    outer loop
      vertex 4.42116 55.5 32
      vertex 4.42116 69 21.5
      vertex 4.42116 69 32
    endloop
  endfacet
  facet normal 1 0 0
    outer loop
      vertex 4.42116 69 21.5
      vertex 4.42116 55.5 32
      vertex 4.42116 55.5 21.5
    endloop
  endfacet
  facet normal -0.500001 0 0.866025
    outer loop
      vertex 33 1 5
      vertex 61.5788 0 21.5
      vertex 61.5788 1 21.5
    endloop
  endfacet
  facet normal -0.500001 0 0.866025
    outer loop
      vertex 61.5788 0 21.5
      vertex 33 1 5
      vertex 33 0 5
    endloop
  endfacet
  facet normal -0.500001 0 0.866025
    outer loop
      vertex 33 75.5 5
      vertex 61.5788 74.5 21.5
      vertex 61.5788 75.5 21.5
    endloop
  endfacet
  facet normal -0.500001 0 0.866025
    outer loop
      vertex 61.5788 74.5 21.5
      vertex 33 75.5 5
      vertex 33 74.5 5
    endloop
  endfacet
  facet normal -0.500001 0 0.866025
    outer loop
      vertex 33 20 5
      vertex 61.5788 6.5 21.5
      vertex 61.5788 20 21.5
    endloop
  endfacet
  facet normal -0.500001 0 0.866025
    outer loop
      vertex 61.5788 6.5 21.5
      vertex 33 20 5
      vertex 33 6.5 5
    endloop
  endfacet
  facet normal -0.500001 0 0.866025
    outer loop
      vertex 33 44.5 5
      vertex 61.5788 31 21.5
      vertex 61.5788 44.5 21.5
    endloop
  endfacet
  facet normal -0.500001 0 0.866025
    outer loop
      vertex 61.5788 31 21.5
      vertex 33 44.5 5
      vertex 33 31 5
    endloop
  endfacet
  facet normal -0.500001 0 0.866025
    outer loop
      vertex 33 69 5
      vertex 61.5788 55.5 21.5
      vertex 61.5788 69 21.5
    endloop
  endfacet
  facet normal -0.500001 0 0.866025
    outer loop
      vertex 61.5788 55.5 21.5
      vertex 33 69 5
      vertex 33 55.5 5
    endloop
  endfacet
  facet normal -1 0 0
    outer loop
      vertex 61.5788 0 21.5
      vertex 61.5788 1 32
      vertex 61.5788 1 21.5
    endloop
  endfacet
  facet normal -1 -0 0
    outer loop
      vertex 61.5788 1 32
      vertex 61.5788 0 21.5
      vertex 61.5788 0 32
    endloop
  endfacet
  facet normal -1 0 0
    outer loop
      vertex 61.5788 74.5 21.5
      vertex 61.5788 75.5 32
      vertex 61.5788 75.5 21.5
    endloop
  endfacet
  facet normal -1 -0 0
    outer loop
      vertex 61.5788 75.5 32
      vertex 61.5788 74.5 21.5
      vertex 61.5788 74.5 32
    endloop
  endfacet
  facet normal -1 0 0
    outer loop
      vertex 61.5788 6.5 21.5
      vertex 61.5788 20 32
      vertex 61.5788 20 21.5
    endloop
  endfacet
  facet normal -1 -0 0
    outer loop
      vertex 61.5788 20 32
      vertex 61.5788 6.5 21.5
      vertex 61.5788 6.5 32
    endloop
  endfacet
  facet normal -1 0 0
    outer loop
      vertex 61.5788 31 21.5
      vertex 61.5788 44.5 32
      vertex 61.5788 44.5 21.5
    endloop
  endfacet
  facet normal -1 -0 0
    outer loop
      vertex 61.5788 44.5 32
      vertex 61.5788 31 21.5
      vertex 61.5788 31 32
    endloop
  endfacet
  facet normal -1 0 0
    outer loop
      vertex 61.5788 55.5 21.5
      vertex 61.5788 69 32
      vertex 61.5788 69 21.5
    endloop
  endfacet
  facet normal -1 -0 0
    outer loop
      vertex 61.5788 69 32
      vertex 61.5788 55.5 21.5
      vertex 61.5788 55.5 32
    endloop
  endfacet
  facet normal 0 1 0
    outer loop
      vertex 65.0429 1 32
      vertex 61.5788 1 21.5
      vertex 61.5788 1 32
    endloop
  endfacet
  facet normal 0 1 -0
    outer loop
      vertex 65.0429 1 19.5
      vertex 61.5788 1 21.5
      vertex 65.0429 1 32
    endloop
  endfacet
  facet normal 0 1 0
    outer loop
      vertex 65.0429 1 19.5
      vertex 33 1 5
      vertex 61.5788 1 21.5
    endloop
  endfacet
  facet normal -0 1 0
    outer loop
      vertex 33 1 5
      vertex 65.0429 1 19.5
      vertex 33 1 1
    endloop
  endfacet
  facet normal 0 1 -0
    outer loop
      vertex 4.42116 1 21.5
      vertex 0.95706 1 32
      vertex 4.42116 1 32
    endloop
  endfacet
  facet normal 0 1 0
    outer loop
      vertex 4.42116 1 21.5
      vertex 0.95706 1 19.5
      vertex 0.95706 1 32
    endloop
  endfacet
  facet normal 0 1 0
    outer loop
      vertex 33 1 5
      vertex 0.95706 1 19.5
      vertex 4.42116 1 21.5
    endloop
  endfacet
  facet normal 0 1 0
    outer loop
      vertex 0.95706 1 19.5
      vertex 33 1 5
      vertex 33 1 1
    endloop
  endfacet
  facet normal 0.5 0 0.866025
    outer loop
      vertex 0.95706 6.5 19.5
      vertex 33 1 1
      vertex 33 6.5 1
    endloop
  endfacet
  facet normal 0.5 0 0.866025
    outer loop
      vertex 33 1 1
      vertex 0.95706 6.5 19.5
      vertex 0.95706 1 19.5
    endloop
  endfacet
  facet normal 1 -0 0
    outer loop
      vertex 0.95706 1 32
      vertex 0.95706 6.5 19.5
      vertex 0.95706 6.5 32
    endloop
  endfacet
  facet normal 1 0 0
    outer loop
      vertex 0.95706 6.5 19.5
      vertex 0.95706 1 32
      vertex 0.95706 1 19.5
    endloop
  endfacet
  facet normal 0 -1 0
    outer loop
      vertex 0.95706 6.5 32
      vertex 4.42116 6.5 21.5
      vertex 4.42116 6.5 32
    endloop
  endfacet
  facet normal 0 -1 0
    outer loop
      vertex 0.95706 6.5 19.5
      vertex 4.42116 6.5 21.5
      vertex 0.95706 6.5 32
    endloop
  endfacet
  facet normal 0 -1 0
    outer loop
      vertex 0.95706 6.5 19.5
      vertex 33 6.5 5
      vertex 4.42116 6.5 21.5
    endloop
  endfacet
  facet normal -0 -1 -0
    outer loop
      vertex 33 6.5 5
      vertex 0.95706 6.5 19.5
      vertex 33 6.5 1
    endloop
  endfacet
  facet normal 0 -1 0
    outer loop
      vertex 61.5788 6.5 21.5
      vertex 65.0429 6.5 32
      vertex 61.5788 6.5 32
    endloop
  endfacet
  facet normal 0 -1 0
    outer loop
      vertex 61.5788 6.5 21.5
      vertex 65.0429 6.5 19.5
      vertex 65.0429 6.5 32
    endloop
  endfacet
  facet normal 0 -1 0
    outer loop
      vertex 33 6.5 5
      vertex 65.0429 6.5 19.5
      vertex 61.5788 6.5 21.5
    endloop
  endfacet
  facet normal 0 -1 0
    outer loop
      vertex 65.0429 6.5 19.5
      vertex 33 6.5 5
      vertex 33 6.5 1
    endloop
  endfacet
  facet normal -0.5 0 0.866025
    outer loop
      vertex 33 6.5 1
      vertex 65.0429 1 19.5
      vertex 65.0429 6.5 19.5
    endloop
  endfacet
  facet normal -0.5 0 0.866025
    outer loop
      vertex 65.0429 1 19.5
      vertex 33 6.5 1
      vertex 33 1 1
    endloop
  endfacet
  facet normal -1 0 0
    outer loop
      vertex 65.0429 1 19.5
      vertex 65.0429 6.5 32
      vertex 65.0429 6.5 19.5
    endloop
  endfacet
  facet normal -1 -0 0
    outer loop
      vertex 65.0429 6.5 32
      vertex 65.0429 1 19.5
      vertex 65.0429 1 32
    endloop
  endfacet
  facet normal 0 1 0
    outer loop
      vertex 65.0429 20 32
      vertex 61.5788 20 21.5
      vertex 61.5788 20 32
    endloop
  endfacet
  facet normal 0 1 -0
    outer loop
      vertex 65.0429 20 19.5
      vertex 61.5788 20 21.5
      vertex 65.0429 20 32
    endloop
  endfacet
  facet normal 0 1 0
    outer loop
      vertex 65.0429 20 19.5
      vertex 33 20 5
      vertex 61.5788 20 21.5
    endloop
  endfacet
  facet normal -0 1 0
    outer loop
      vertex 33 20 5
      vertex 65.0429 20 19.5
      vertex 33 20 1
    endloop
  endfacet
  facet normal 0 1 -0
    outer loop
      vertex 4.42116 20 21.5
      vertex 0.95706 20 32
      vertex 4.42116 20 32
    endloop
  endfacet
  facet normal 0 1 0
    outer loop
      vertex 4.42116 20 21.5
      vertex 0.95706 20 19.5
      vertex 0.95706 20 32
    endloop
  endfacet
  facet normal 0 1 0
    outer loop
      vertex 33 20 5
      vertex 0.95706 20 19.5
      vertex 4.42116 20 21.5
    endloop
  endfacet
  facet normal 0 1 0
    outer loop
      vertex 0.95706 20 19.5
      vertex 33 20 5
      vertex 33 20 1
    endloop
  endfacet
  facet normal 0.5 0 0.866025
    outer loop
      vertex 0.95706 31 19.5
      vertex 33 20 1
      vertex 33 31 1
    endloop
  endfacet
  facet normal 0.5 0 0.866025
    outer loop
      vertex 33 20 1
      vertex 0.95706 31 19.5
      vertex 0.95706 20 19.5
    endloop
  endfacet
  facet normal 1 -0 0
    outer loop
      vertex 0.95706 20 32
      vertex 0.95706 31 19.5
      vertex 0.95706 31 32
    endloop
  endfacet
  facet normal 1 0 0
    outer loop
      vertex 0.95706 31 19.5
      vertex 0.95706 20 32
      vertex 0.95706 20 19.5
    endloop
  endfacet
  facet normal -0.5 0 0.866025
    outer loop
      vertex 33 31 1
      vertex 65.0429 20 19.5
      vertex 65.0429 31 19.5
    endloop
  endfacet
  facet normal -0.5 0 0.866025
    outer loop
      vertex 65.0429 20 19.5
      vertex 33 31 1
      vertex 33 20 1
    endloop
  endfacet
  facet normal -1 0 0
    outer loop
      vertex 65.0429 20 19.5
      vertex 65.0429 31 32
      vertex 65.0429 31 19.5
    endloop
  endfacet
  facet normal -1 -0 0
    outer loop
      vertex 65.0429 31 32
      vertex 65.0429 20 19.5
      vertex 65.0429 20 32
    endloop
  endfacet
  facet normal 0 -1 0
    outer loop
      vertex 0.95706 31 32
      vertex 4.42116 31 21.5
      vertex 4.42116 31 32
    endloop
  endfacet
  facet normal 0 -1 0
    outer loop
      vertex 0.95706 31 19.5
      vertex 4.42116 31 21.5
      vertex 0.95706 31 32
    endloop
  endfacet
  facet normal 0 -1 0
    outer loop
      vertex 0.95706 31 19.5
      vertex 33 31 5
      vertex 4.42116 31 21.5
    endloop
  endfacet
  facet normal -0 -1 -0
    outer loop
      vertex 33 31 5
      vertex 0.95706 31 19.5
      vertex 33 31 1
    endloop
  endfacet
  facet normal 0 -1 0
    outer loop
      vertex 61.5788 31 21.5
      vertex 65.0429 31 32
      vertex 61.5788 31 32
    endloop
  endfacet
  facet normal 0 -1 0
    outer loop
      vertex 61.5788 31 21.5
      vertex 65.0429 31 19.5
      vertex 65.0429 31 32
    endloop
  endfacet
  facet normal 0 -1 0
    outer loop
      vertex 33 31 5
      vertex 65.0429 31 19.5
      vertex 61.5788 31 21.5
    endloop
  endfacet
  facet normal 0 -1 0
    outer loop
      vertex 65.0429 31 19.5
      vertex 33 31 5
      vertex 33 31 1
    endloop
  endfacet
  facet normal 0 1 0
    outer loop
      vertex 65.0429 44.5 32
      vertex 61.5788 44.5 21.5
      vertex 61.5788 44.5 32
    endloop
  endfacet
  facet normal 0 1 -0
    outer loop
      vertex 65.0429 44.5 19.5
      vertex 61.5788 44.5 21.5
      vertex 65.0429 44.5 32
    endloop
  endfacet
  facet normal 0 1 0
    outer loop
      vertex 65.0429 44.5 19.5
      vertex 33 44.5 5
      vertex 61.5788 44.5 21.5
    endloop
  endfacet
  facet normal -0 1 0
    outer loop
      vertex 33 44.5 5
      vertex 65.0429 44.5 19.5
      vertex 33 44.5 1
    endloop
  endfacet
  facet normal 0 1 -0
    outer loop
      vertex 4.42116 44.5 21.5
      vertex 0.95706 44.5 32
      vertex 4.42116 44.5 32
    endloop
  endfacet
  facet normal 0 1 0
    outer loop
      vertex 4.42116 44.5 21.5
      vertex 0.95706 44.5 19.5
      vertex 0.95706 44.5 32
    endloop
  endfacet
  facet normal 0 1 0
    outer loop
      vertex 33 44.5 5
      vertex 0.95706 44.5 19.5
      vertex 4.42116 44.5 21.5
    endloop
  endfacet
  facet normal 0 1 0
    outer loop
      vertex 0.95706 44.5 19.5
      vertex 33 44.5 5
      vertex 33 44.5 1
    endloop
  endfacet
  facet normal 0.5 0 0.866025
    outer loop
      vertex 0.95706 55.5 19.5
      vertex 33 44.5 1
      vertex 33 55.5 1
    endloop
  endfacet
  facet normal 0.5 0 0.866025
    outer loop
      vertex 33 44.5 1
      vertex 0.95706 55.5 19.5
      vertex 0.95706 44.5 19.5
    endloop
  endfacet
  facet normal 1 -0 0
    outer loop
      vertex 0.95706 44.5 32
      vertex 0.95706 55.5 19.5
      vertex 0.95706 55.5 32
    endloop
  endfacet
  facet normal 1 0 0
    outer loop
      vertex 0.95706 55.5 19.5
      vertex 0.95706 44.5 32
      vertex 0.95706 44.5 19.5
    endloop
  endfacet
  facet normal -0.5 0 0.866025
    outer loop
      vertex 33 55.5 1
      vertex 65.0429 44.5 19.5
      vertex 65.0429 55.5 19.5
    endloop
  endfacet
  facet normal -0.5 0 0.866025
    outer loop
      vertex 65.0429 44.5 19.5
      vertex 33 55.5 1
      vertex 33 44.5 1
    endloop
  endfacet
  facet normal -1 0 0
    outer loop
      vertex 65.0429 44.5 19.5
      vertex 65.0429 55.5 32
      vertex 65.0429 55.5 19.5
    endloop
  endfacet
  facet normal -1 -0 0
    outer loop
      vertex 65.0429 55.5 32
      vertex 65.0429 44.5 19.5
      vertex 65.0429 44.5 32
    endloop
  endfacet
  facet normal 0 -1 0
    outer loop
      vertex 0.95706 55.5 32
      vertex 4.42116 55.5 21.5
      vertex 4.42116 55.5 32
    endloop
  endfacet
  facet normal 0 -1 0
    outer loop
      vertex 0.95706 55.5 19.5
      vertex 4.42116 55.5 21.5
      vertex 0.95706 55.5 32
    endloop
  endfacet
  facet normal 0 -1 0
    outer loop
      vertex 0.95706 55.5 19.5
      vertex 33 55.5 5
      vertex 4.42116 55.5 21.5
    endloop
  endfacet
  facet normal -0 -1 -0
    outer loop
      vertex 33 55.5 5
      vertex 0.95706 55.5 19.5
      vertex 33 55.5 1
    endloop
  endfacet
  facet normal 0 -1 0
    outer loop
      vertex 61.5788 55.5 21.5
      vertex 65.0429 55.5 32
      vertex 61.5788 55.5 32
    endloop
  endfacet
  facet normal 0 -1 0
    outer loop
      vertex 61.5788 55.5 21.5
      vertex 65.0429 55.5 19.5
      vertex 65.0429 55.5 32
    endloop
  endfacet
  facet normal 0 -1 0
    outer loop
      vertex 33 55.5 5
      vertex 65.0429 55.5 19.5
      vertex 61.5788 55.5 21.5
    endloop
  endfacet
  facet normal 0 -1 0
    outer loop
      vertex 65.0429 55.5 19.5
      vertex 33 55.5 5
      vertex 33 55.5 1
    endloop
  endfacet
  facet normal 0 1 0
    outer loop
      vertex 65.0429 69 32
      vertex 61.5788 69 21.5
      vertex 61.5788 69 32
    endloop
  endfacet
  facet normal 0 1 -0
    outer loop
      vertex 65.0429 69 19.5
      vertex 61.5788 69 21.5
      vertex 65.0429 69 32
    endloop
  endfacet
  facet normal 0 1 0
    outer loop
      vertex 65.0429 69 19.5
      vertex 33 69 5
      vertex 61.5788 69 21.5
    endloop
  endfacet
  facet normal -0 1 0
    outer loop
      vertex 33 69 5
      vertex 65.0429 69 19.5
      vertex 33 69 1
    endloop
  endfacet
  facet normal 0 1 -0
    outer loop
      vertex 4.42116 69 21.5
      vertex 0.95706 69 32
      vertex 4.42116 69 32
    endloop
  endfacet
  facet normal 0 1 0
    outer loop
      vertex 4.42116 69 21.5
      vertex 0.95706 69 19.5
      vertex 0.95706 69 32
    endloop
  endfacet
  facet normal 0 1 0
    outer loop
      vertex 33 69 5
      vertex 0.95706 69 19.5
      vertex 4.42116 69 21.5
    endloop
  endfacet
  facet normal 0 1 0
    outer loop
      vertex 0.95706 69 19.5
      vertex 33 69 5
      vertex 33 69 1
    endloop
  endfacet
  facet normal 0.5 0 0.866025
    outer loop
      vertex 0.95706 74.5 19.5
      vertex 33 69 1
      vertex 33 74.5 1
    endloop
  endfacet
  facet normal 0.5 0 0.866025
    outer loop
      vertex 33 69 1
      vertex 0.95706 74.5 19.5
      vertex 0.95706 69 19.5
    endloop
  endfacet
  facet normal 1 -0 0
    outer loop
      vertex 0.95706 69 32
      vertex 0.95706 74.5 19.5
      vertex 0.95706 74.5 32
    endloop
  endfacet
  facet normal 1 0 0
    outer loop
      vertex 0.95706 74.5 19.5
      vertex 0.95706 69 32
      vertex 0.95706 69 19.5
    endloop
  endfacet
  facet normal 0 -1 0
    outer loop
      vertex 0.95706 74.5 32
      vertex 4.42116 74.5 21.5
      vertex 4.42116 74.5 32
    endloop
  endfacet
  facet normal 0 -1 0
    outer loop
      vertex 0.95706 74.5 19.5
      vertex 4.42116 74.5 21.5
      vertex 0.95706 74.5 32
    endloop
  endfacet
  facet normal 0 -1 0
    outer loop
      vertex 0.95706 74.5 19.5
      vertex 33 74.5 5
      vertex 4.42116 74.5 21.5
    endloop
  endfacet
  facet normal -0 -1 -0
    outer loop
      vertex 33 74.5 5
      vertex 0.95706 74.5 19.5
      vertex 33 74.5 1
    endloop
  endfacet
  facet normal 0 -1 0
    outer loop
      vertex 61.5788 74.5 21.5
      vertex 65.0429 74.5 32
      vertex 61.5788 74.5 32
    endloop
  endfacet
  facet normal 0 -1 0
    outer loop
      vertex 61.5788 74.5 21.5
      vertex 65.0429 74.5 19.5
      vertex 65.0429 74.5 32
    endloop
  endfacet
  facet normal 0 -1 0
    outer loop
      vertex 33 74.5 5
      vertex 65.0429 74.5 19.5
      vertex 61.5788 74.5 21.5
    endloop
  endfacet
  facet normal 0 -1 0
    outer loop
      vertex 65.0429 74.5 19.5
      vertex 33 74.5 5
      vertex 33 74.5 1
    endloop
  endfacet
  facet normal -0.5 0 0.866025
    outer loop
      vertex 33 74.5 1
      vertex 65.0429 69 19.5
      vertex 65.0429 74.5 19.5
    endloop
  endfacet
  facet normal -0.5 0 0.866025
    outer loop
      vertex 65.0429 69 19.5
      vertex 33 74.5 1
      vertex 33 69 1
    endloop
  endfacet
  facet normal -1 0 0
    outer loop
      vertex 65.0429 69 19.5
      vertex 65.0429 74.5 32
      vertex 65.0429 74.5 19.5
    endloop
  endfacet
  facet normal -1 -0 0
    outer loop
      vertex 65.0429 74.5 32
      vertex 65.0429 69 19.5
      vertex 65.0429 69 32
    endloop
  endfacet
endsolid OpenSCAD_Model
